<?xml version="1.0" encoding="utf-8"?>
<svg version="1.1" xmlns:xlink="http://www.w3.org/1999/xlink" width="12px" height="12px" viewBox="281 376  12 12" xmlns="http://www.w3.org/2000/svg">
  <path d="M 287 376  C 290.36 376  293 378.64  293 382  C 293 385.36  290.36 388  287 388  C 283.64 388  281 385.36  281 382  C 281 378.64  283.64 376  287 376  Z " fill-rule="nonzero" fill="#ffffff" stroke="none" />
  <path d="M 287 376.5  C 290.08 376.5  292.5 378.92  292.5 382  C 292.5 385.08  290.08 387.5  287 387.5  C 283.92 387.5  281.5 385.08  281.5 382  C 281.5 378.92  283.92 376.5  287 376.5  Z " stroke-width="1" stroke="#797979" fill="none" />
  <path d="M 287 385  C 285.32 385  284 383.68  284 382  C 284 380.32  285.32 379  287 379  C 288.68 379  290 380.32  290 382  C 290 383.68  288.68 385  287 385  " fill-rule="nonzero" fill="#797979" stroke="none" />
</svg>