<?xml version="1.0" encoding="utf-8"?>
<svg version="1.1" xmlns:xlink="http://www.w3.org/1999/xlink" width="12px" height="12px" viewBox="281 338  12 12" xmlns="http://www.w3.org/2000/svg">
  <path d="M 287 338  C 290.36 338  293 340.64  293 344  C 293 347.36  290.36 350  287 350  C 283.64 350  281 347.36  281 344  C 281 340.64  283.64 338  287 338  Z " fill-rule="nonzero" fill="#ffffff" stroke="none" />
  <path d="M 287 338.5  C 290.08 338.5  292.5 340.92  292.5 344  C 292.5 347.08  290.08 349.5  287 349.5  C 283.92 349.5  281.5 347.08  281.5 344  C 281.5 340.92  283.92 338.5  287 338.5  Z " stroke-width="1" stroke="#797979" fill="none" />
  <path d="M 287 347  C 285.32 347  284 345.68  284 344  C 284 342.32  285.32 341  287 341  C 288.68 341  290 342.32  290 344  C 290 345.68  288.68 347  287 347  " fill-rule="nonzero" fill="#797979" stroke="none" />
</svg>