<?xml version="1.0" encoding="utf-8"?>
<svg version="1.1" xmlns:xlink="http://www.w3.org/1999/xlink" width="12px" height="12px" viewBox="281 414  12 12" xmlns="http://www.w3.org/2000/svg">
  <path d="M 287 414  C 290.36 414  293 416.64  293 420  C 293 423.36  290.36 426  287 426  C 283.64 426  281 423.36  281 420  C 281 416.64  283.64 414  287 414  Z " fill-rule="nonzero" fill="#ffffff" stroke="none" />
  <path d="M 287 414.5  C 290.08 414.5  292.5 416.92  292.5 420  C 292.5 423.08  290.08 425.5  287 425.5  C 283.92 425.5  281.5 423.08  281.5 420  C 281.5 416.92  283.92 414.5  287 414.5  Z " stroke-width="1" stroke="#797979" fill="none" />
  <path d="M 287 423  C 285.32 423  284 421.68  284 420  C 284 418.32  285.32 417  287 417  C 288.68 417  290 418.32  290 420  C 290 421.68  288.68 423  287 423  " fill-rule="nonzero" fill="#797979" stroke="none" />
</svg>