<?xml version="1.0" encoding="utf-8"?>
<svg version="1.1" xmlns:xlink="http://www.w3.org/1999/xlink" width="12px" height="12px" viewBox="281 490  12 12" xmlns="http://www.w3.org/2000/svg">
  <path d="M 287 490  C 290.36 490  293 492.64  293 496  C 293 499.36  290.36 502  287 502  C 283.64 502  281 499.36  281 496  C 281 492.64  283.64 490  287 490  Z " fill-rule="nonzero" fill="#ffffff" stroke="none" />
  <path d="M 287 490.5  C 290.08 490.5  292.5 492.92  292.5 496  C 292.5 499.08  290.08 501.5  287 501.5  C 283.92 501.5  281.5 499.08  281.5 496  C 281.5 492.92  283.92 490.5  287 490.5  Z " stroke-width="1" stroke="#797979" fill="none" />
  <path d="M 287 499  C 285.32 499  284 497.68  284 496  C 284 494.32  285.32 493  287 493  C 288.68 493  290 494.32  290 496  C 290 497.68  288.68 499  287 499  " fill-rule="nonzero" fill="#797979" stroke="none" />
</svg>