<?xml version="1.0" encoding="utf-8"?>
<svg version="1.1" xmlns:xlink="http://www.w3.org/1999/xlink" width="12px" height="12px" viewBox="281 452  12 12" xmlns="http://www.w3.org/2000/svg">
  <path d="M 287 452  C 290.36 452  293 454.64  293 458  C 293 461.36  290.36 464  287 464  C 283.64 464  281 461.36  281 458  C 281 454.64  283.64 452  287 452  Z " fill-rule="nonzero" fill="#ffffff" stroke="none" />
  <path d="M 287 452.5  C 290.08 452.5  292.5 454.92  292.5 458  C 292.5 461.08  290.08 463.5  287 463.5  C 283.92 463.5  281.5 461.08  281.5 458  C 281.5 454.92  283.92 452.5  287 452.5  Z " stroke-width="1" stroke="#797979" fill="none" />
  <path d="M 287 461  C 285.32 461  284 459.68  284 458  C 284 456.32  285.32 455  287 455  C 288.68 455  290 456.32  290 458  C 290 459.68  288.68 461  287 461  " fill-rule="nonzero" fill="#797979" stroke="none" />
</svg>