<?xml version="1.0" encoding="utf-8"?>
<svg version="1.1" xmlns:xlink="http://www.w3.org/1999/xlink" width="1178px" height="707px" xmlns="http://www.w3.org/2000/svg">
  <g transform="matrix(1 0 0 1 -245 -655 )">
    <path d="M 246 659  A 3 3 0 0 1 249 656 L 1419 656  A 3 3 0 0 1 1422 659 L 1422 1358  A 3 3 0 0 1 1419 1361 L 249 1361  A 3 3 0 0 1 246 1358 L 246 659  Z " fill-rule="nonzero" fill="#ff3399" stroke="none" fill-opacity="0.0980392156862745" />
    <path d="M 245.5 659  A 3.5 3.5 0 0 1 249 655.5 L 1419 655.5  A 3.5 3.5 0 0 1 1422.5 659 L 1422.5 1358  A 3.5 3.5 0 0 1 1419 1361.5 L 249 1361.5  A 3.5 3.5 0 0 1 245.5 1358 L 245.5 659  Z " stroke-width="1" stroke-dasharray="9,4" stroke="#ff3399" fill="none" stroke-dashoffset="0.5" />
  </g>
</svg>