<?xml version="1.0" encoding="utf-8"?>
<svg version="1.1" xmlns:xlink="http://www.w3.org/1999/xlink" width="12px" height="12px" viewBox="281 528  12 12" xmlns="http://www.w3.org/2000/svg">
  <path d="M 287 528  C 290.36 528  293 530.64  293 534  C 293 537.36  290.36 540  287 540  C 283.64 540  281 537.36  281 534  C 281 530.64  283.64 528  287 528  Z " fill-rule="nonzero" fill="#ffffff" stroke="none" />
  <path d="M 287 528.5  C 290.08 528.5  292.5 530.92  292.5 534  C 292.5 537.08  290.08 539.5  287 539.5  C 283.92 539.5  281.5 537.08  281.5 534  C 281.5 530.92  283.92 528.5  287 528.5  Z " stroke-width="1" stroke="#797979" fill="none" />
  <path d="M 287 537  C 285.32 537  284 535.68  284 534  C 284 532.32  285.32 531  287 531  C 288.68 531  290 532.32  290 534  C 290 535.68  288.68 537  287 537  " fill-rule="nonzero" fill="#797979" stroke="none" />
</svg>