<?xml version="1.0" encoding="utf-8"?>
<svg version="1.1" xmlns:xlink="http://www.w3.org/1999/xlink" width="12px" height="12px" xmlns="http://www.w3.org/2000/svg">
  <g transform="matrix(1 0 0 1 -824 -197 )">
    <path d="M 11.7374062499999 11.76127734375  C 11.9840859375 11.51459765625  11.9840859375 11.1167109375  11.7374062499999 10.87003125  L 6.85146093750006 5.99203125000003  L 11.7294375 1.11404296875  C 11.9761171875 0.867363281249993  11.9761171875 0.469488281249994  11.7294375 0.230753906250015  C 11.4827578125 -0.0159257812499902  11.0848828124999 -0.0159257812499902  10.8461484375 0.230753906250015  L 5.96817187499994 5.10875390625  L 1.09018359375 0.222808593750017  C 0.843503906250021 -0.0238710937499889  0.445628906250022 -0.0238710937499889  0.206894531249986 0.222808593750017  C -0.0397851562499909 0.469488281249994  -0.0397851562499909 0.86737500000001  0.206894531249986 1.10609765625  L 5.08488281249993 5.98408593750003  L 0.198937500000056 10.87003125  C -0.0477421875000346 11.1167109375  -0.0477421875000346 11.5145859375  0.198937500000056 11.7533203125  C 0.445617187500034 12  0.843503906250021 12  1.08222656249995 11.7533203125  L 5.96817187499994 6.87533203125003  L 10.8541171875 11.76127734375  C 11.100796875 12.00795703125  11.498671875 12.00795703125  11.7374062499999 11.76127734375  Z " fill-rule="nonzero" fill="#ffffff" stroke="none" transform="matrix(1 0 0 1 824 197 )" />
  </g>
</svg>