<?xml version="1.0" encoding="utf-8"?>
<svg version="1.1" xmlns:xlink="http://www.w3.org/1999/xlink" width="1170px" height="305px" xmlns="http://www.w3.org/2000/svg">
  <g transform="matrix(1 0 0 1 -245 -718 )">
    <path d="M 246 722  A 3 3 0 0 1 249 719 L 1411 719  A 3 3 0 0 1 1414 722 L 1414 1019  A 3 3 0 0 1 1411 1022 L 249 1022  A 3 3 0 0 1 246 1019 L 246 722  Z " fill-rule="nonzero" fill="#ff3399" stroke="none" fill-opacity="0.0980392156862745" />
    <path d="M 245.5 722  A 3.5 3.5 0 0 1 249 718.5 L 1411 718.5  A 3.5 3.5 0 0 1 1414.5 722 L 1414.5 1019  A 3.5 3.5 0 0 1 1411 1022.5 L 249 1022.5  A 3.5 3.5 0 0 1 245.5 1019 L 245.5 722  Z " stroke-width="1" stroke-dasharray="9,4" stroke="#ff3399" fill="none" stroke-dashoffset="0.5" />
  </g>
</svg>