<?xml version="1.0" encoding="utf-8"?>
<svg version="1.1" xmlns:xlink="http://www.w3.org/1999/xlink" width="277px" height="42px" xmlns="http://www.w3.org/2000/svg">
  <g transform="matrix(1 0 0 1 -786 -374 )">
    <path d="M 787 378  A 3 3 0 0 1 790 375 L 1059 375  A 3 3 0 0 1 1062 378 L 1062 412  A 3 3 0 0 1 1059 415 L 790 415  A 3 3 0 0 1 787 412 L 787 378  Z " fill-rule="nonzero" fill="#ff3399" stroke="none" fill-opacity="0.0980392156862745" />
    <path d="M 786.5 378  A 3.5 3.5 0 0 1 790 374.5 L 1059 374.5  A 3.5 3.5 0 0 1 1062.5 378 L 1062.5 412  A 3.5 3.5 0 0 1 1059 415.5 L 790 415.5  A 3.5 3.5 0 0 1 786.5 412 L 786.5 378  Z " stroke-width="1" stroke-dasharray="9,4" stroke="#ff3399" fill="none" stroke-dashoffset="0.5" />
  </g>
</svg>