<?xml version="1.0" encoding="utf-8"?>
<svg version="1.1" xmlns:xlink="http://www.w3.org/1999/xlink" width="30px" height="30px" xmlns="http://www.w3.org/2000/svg">
  <g transform="matrix(1 0 0 1 -931 -1132 )">
    <path d="M 1.42857143554681 24.2857142871094  L 1.42857143554681 28.5714285644531  C 0.88000001953128 28.9242856933593  1.07714285156248 29.1214285546876  1.42857143554681 28.5714285644531  L 5.71428571289061 28.5714285644531  L 5.71428571289061 30  L 1.42857143554681 30  C 0.394285722656377 30  0 29.6057142773436  0 28.5714285644531  L 0 24.2857142871094  L 1.42857143554681 24.2857142871094  Z M 1.42857143554681 1.42857143554693  C 1.07714285156248 0.878571416015575  0.879999990234296 1.07571427734365  1.42857143554681 1.42857143554693  L 1.42857143554681 5.71428571289061  L 0 5.71428571289061  L 0 1.42857143554693  C 0 0.392857148437542  0.394285722656377 0  1.42857143554681 0  L 5.71428571289061 0  L 5.71428571289061 1.42857143554693  L 1.42857143554681 1.42857143554693  Z M 3 8.57142858398424  L 3 22.8571428515625  L 7.14285714843754 22.8571428515625  L 7.14285714843754 8.57142858398424  L 3 8.57142858398424  Z M 9 8.57142858398424  L 9 22.8571428515625  L 10 22.8571428515625  L 10 8.57142858398424  L 9 8.57142858398424  Z M 10 8.57142858398424  L 10 22.8571428515625  L 13 22.8571428515625  L 13 8.57142858398424  L 10 8.57142858398424  Z M 14.285714296875 8.57142858398424  L 14.285714296875 22.8571428515625  L 15.714285703125 22.8571428515625  L 15.714285703125 8.57142858398424  L 14.285714296875 8.57142858398424  Z M 17 8.57142858398424  L 17 22.8571428515625  L 21 22.8571428515625  L 21 8.57142858398424  L 17 8.57142858398424  Z M 22.8571428515625 8.57142858398424  L 22.8571428515625 22.8571428515625  L 24 22.8571428515625  L 24 8.57142858398424  L 22.8571428515625 8.57142858398424  Z M 24 8.57142858398424  L 24 22.8571428515625  L 27 22.8571428515625  L 27 8.57142858398424  L 24 8.57142858398424  Z M 28.5714285644532 5.71428571289061  L 28.5714285644532 1.42857143554693  C 29.1199999804687 1.07571430664075  28.9228571484375 0.878571445312446  28.5714285644532 1.42857143554693  L 24.2857142871094 1.42857143554693  L 24.2857142871094 0  L 28.5714285644532 0  C 29.6071428515625 0  30 0.392857148437542  30 1.42857143554693  L 30 5.71428571289061  L 28.5714285644532 5.71428571289061  Z M 30 28.5714285644531  C 30 29.6057142773436  29.6071428515625 30  28.5714285644532 30  L 24.2857142871094 30  L 24.2857142871094 28.5714285644531  L 28.5714285644532 28.5714285644531  C 28.9228571484375 29.1214285546876  29.1199999804687 28.9242856933593  28.5714285644532 28.5714285644531  L 28.5714285644532 24.2857142871094  L 30 24.2857142871094  L 30 28.5714285644531  Z " fill-rule="nonzero" fill="#000000" stroke="none" transform="matrix(1 0 0 1 931 1132 )" />
  </g>
</svg>