<?xml version="1.0" encoding="utf-8"?>
<svg version="1.1" xmlns:xlink="http://www.w3.org/1999/xlink" width="18px" height="19px" preserveAspectRatio="xMidYMin meet" viewBox="479 1327  16 19" xmlns="http://www.w3.org/2000/svg">
  <path d="M 775.5 1192  L 775.5 1382  A 3 3 0 0 1 778.5 1385 A 3 3 0 0 1 775.5 1388 L 775.5 1421  A 5 5 0 0 1 770.5 1426.5 L 492 1426.5  A 5 5 0 0 1 487.5 1421 L 487.5 1388  A 3 3 0 0 0 490.5 1385 A 3 3 0 0 0 487.5 1382 L 487.5 1338  " stroke-width="1" stroke="#999999" fill="none" />
  <path d="M 493.8 1339  L 487.5 1333  L 481.2 1339  L 493.8 1339  Z " fill-rule="nonzero" fill="#999999" stroke="none" />
</svg>