<?xml version="1.0" encoding="utf-8"?>
<svg version="1.1" xmlns:xlink="http://www.w3.org/1999/xlink" width="12px" height="11px" xmlns="http://www.w3.org/2000/svg">
  <g transform="matrix(1 0 0 1 -1187 -197 )">
    <path d="M 8.502 4.998  L 2.334 4.998  L 4.728 7.392  L 4.02 8.106  L 0.294 4.374  L 4.02 0.648  L 4.728 1.356  L 2.082 4.002  L 8.502 4.002  C 10.434 4.002  12 5.568  12 7.5  C 12 9.432  10.434 10.998  8.502 10.998  L 2.502 10.998  C 2.226 10.998  2.004 10.776  2.004 10.5  C 2.004 10.224  2.226 10.002  2.502 10.002  L 8.502 10.002  C 9.882 10.002  11.004 8.88  11.004 7.5  C 11.004 6.12  9.882 4.998  8.502 4.998  Z " fill-rule="nonzero" fill="#ffffff" stroke="none" transform="matrix(1 0 0 1 1187 197 )" />
  </g>
</svg>