<?xml version="1.0" encoding="utf-8"?>
<svg version="1.1" xmlns:xlink="http://www.w3.org/1999/xlink" width="489px" height="165px" xmlns="http://www.w3.org/2000/svg">
  <g transform="matrix(1 0 0 1 -1450 -449 )">
    <path d="M 1451 453  A 3 3 0 0 1 1454 450 L 1935 450  A 3 3 0 0 1 1938 453 L 1938 610  A 3 3 0 0 1 1935 613 L 1454 613  A 3 3 0 0 1 1451 610 L 1451 453  Z " fill-rule="nonzero" fill="#ff3399" stroke="none" fill-opacity="0.0980392156862745" />
    <path d="M 1450.5 453  A 3.5 3.5 0 0 1 1454 449.5 L 1935 449.5  A 3.5 3.5 0 0 1 1938.5 453 L 1938.5 610  A 3.5 3.5 0 0 1 1935 613.5 L 1454 613.5  A 3.5 3.5 0 0 1 1450.5 610 L 1450.5 453  Z " stroke-width="1" stroke-dasharray="9,4" stroke="#ff3399" fill="none" stroke-dashoffset="0.5" />
  </g>
</svg>