<?xml version="1.0" encoding="utf-8"?>
<svg version="1.1" xmlns:xlink="http://www.w3.org/1999/xlink" width="12px" height="10px" xmlns="http://www.w3.org/2000/svg">
  <g transform="matrix(1 0 0 1 -340 -198 )">
    <path d="M 11.6606666621094 2.15566666210937  C 11.9616666621094 1.85466666210937  11.9616666621094 1.367  11.6606666621094 1.066  C 11.3596666621094 0.765  10.872 0.765  10.571 1.066  L 4.26166666210938 7.37533333789063  L 1.45233333789063 4.566  C 1.15133333789062 4.265  0.66366667578125 4.265  0.362666662109375 4.566  C 0.0616666621093751 4.867  0.0616666621093751 5.35466666210938  0.362666662109375 5.65566666210937  L 3.641 8.934  C 3.81133333789063 9.10433333789062  4.04 9.17666666210937  4.26166666210938 9.15566666210937  C 4.48333332421875 9.17666666210937  4.712 9.10433332421875  4.88233333789062 8.934  L 11.6606666621094 2.15566666210937  Z " fill-rule="nonzero" fill="#ffffff" stroke="none" transform="matrix(1 0 0 1 340 198 )" />
  </g>
</svg>