<?xml version="1.0" encoding="utf-8"?>
<svg version="1.1" xmlns:xlink="http://www.w3.org/1999/xlink" width="12px" height="16px" xmlns="http://www.w3.org/2000/svg">
  <g transform="matrix(1 0 0 1 -72 -626 )">
    <path d="M 6.1264 15.33344  C 6.04208 15.33328  5.95784 15.33328  5.87352 15.33328  C 5.42136 15.06856  5.38472 14.73416  5.74352 14.32488  C 7.25624 12.59976  8.67016 10.80024  9.73232 8.75576  C 10.02024 8.20144  10.27984 7.60632  10.40544 6.99952  C 10.66088 5.76568  10.32232 4.61752  9.5892 3.61544  C 8.49224 2.11632  6.99104 1.43912  5.15824 1.81352  C 3.23976 2.20536  2.10984 3.48672  1.62872 5.35816  C 1.36888 6.3688  1.5724 7.32016  2.00624 8.24712  C 2.68856 9.7048  3.60528 11.0108  4.57376 12.2852  C 4.61448 12.3388  4.65784 12.39072  4.69496 12.4468  C 4.87744 12.72168  4.83136 13.03456  4.5848 13.20704  C 4.34888 13.37208  4.07544 13.32712  3.88328 13.05216  C 3.18464 12.05296  2.47328 11.06128  1.81352 10.03664  C 1.28936 9.22256  0.88424 8.342  0.64416 7.3956  C 0.59712 7.21016  0.55632 7.02312  0.51264 6.83688  C 0.51264 6.51664  0.51264 6.19624  0.51264 5.876  C 0.54608 5.69576  0.5748 5.51448  0.61376 5.33552  C 1.10424 3.07896  2.39856 1.54008  4.63568 0.853759999999998  C 4.9224 0.765759999999998  5.22456 0.727919999999998  5.51952 0.666879999999998  C 5.83976 0.666879999999998  6.16016 0.666879999999998  6.48048 0.666879999999998  C 6.6036 0.688959999999998  6.72736 0.708479999999998  6.84984 0.733519999999998  C 9.09312 1.19128  10.52096 2.5556  11.22872 4.70168  C 11.3536 5.0804  11.40304 5.484  11.48728 5.87608  C 11.48728 6.19632  11.48728 6.51672  11.48728 6.83696  C 11.47696 6.84984  11.45944 6.8616  11.45728 6.87576  C 11.3028 7.87904  10.8848 8.78336  10.39856 9.65896  C 9.3656 11.51936  8.07168 13.19296  6.68528 14.79816  C 6.51744 14.99256  6.3136 15.15584  6.1264 15.33344  Z " fill-rule="nonzero" fill="#000000" stroke="none" transform="matrix(1 0 0 1 72 626 )" />
  </g>
</svg>