<?xml version="1.0" encoding="utf-8"?>
<svg version="1.1" xmlns:xlink="http://www.w3.org/1999/xlink" width="40px" height="26px" xmlns="http://www.w3.org/2000/svg">
  <g transform="matrix(1 0 0 1 -241 -459 )">
    <path d="M 23.1641419464844 22.2484757019531  L 23.1622874488281 22.2540391949219  C 23.1573076260166 22.2295198681901  23.1535937049736 22.204760375252  23.1511604380859 22.1798590654297  C 23.1601334661787 21.7911934492203  23.2347466855751 21.4068413281429  23.3718463289063 21.0430485791015  C 23.7398322411084 20.1357635576188  24.4942281293788 19.4405493062374  25.4284904556641 19.1477462197266  C 26.0720205569978 18.9460306794958  26.7618608338225 18.9460306794958  27.4053909351563 19.1477462197265  C 28.3410017598018 19.4382129998777  29.0962677568361 20.1342291008214  29.4620350619141 21.0430485791015  C 29.5435755699278 21.2382044959064  29.6014765658356 21.4424144594308  29.6345038648437 21.6513256458984  C 29.669216850139 21.8247991660879  29.6878409038935 22.0011069347489  29.6901389433594 22.1780045677734  C 29.6877829109948 22.2016886955436  29.6840677831167 22.2252178608568  29.6790119326172 22.2484757019531  C 29.6068101715651 23.9951753398943  28.1697682104027 25.3740427763639  26.4215769395508 25.3740427763639  C 24.6733856686988 25.3740427763639  23.2363437075364 23.9951753398943  23.1641419464844 22.2484757019531  Z M 25.704811425 21.0486120720703  L 25.704811425 21.0411940566406  C 25.4675061205192 21.1862837747372  25.2779466569605 21.3977650928123  25.1595874769531 21.6494711482422  C 25.0919624780459 21.8170165886378  25.0555105260427 21.9955054599657  25.0520262904297 22.1761500701172  L 25.0520262904297 22.2540391949219  C 25.1159008148434 22.961242798278  25.708712879902 23.5029252386505  26.4187951930664 23.5029252386505  C 27.1288775062308 23.5029252386505  27.7216895712893 22.961242798278  27.7855640957031 22.2540391949219  L 27.7855640957031 22.1835680855469  C 27.7838946495887 22.0030885840084  27.7486786406399 21.8244931178641  27.6817119044922 21.6568891388672  C 27.5574455427629 21.4056457570945  27.3645483138734 21.1947447804205  27.1253609457031 21.0486120720703  C 26.9111716171138 20.9234845994158  26.6668263046277 20.8593519786263  26.4187951806641 20.8631617607422  C 26.1684691549438 20.8597726449819  25.9218463673883 20.923830506761  25.704811425 21.0486120720703  Z M 5.44714499697267 25.3796062693327  C 3.69895372612069 25.3796062693327  2.26191176495831 24.0007388328631  2.18971000390627 22.2540391949219  L 2.18971000390627 22.1798590654297  C 2.19095289982977 22.0030849339625  2.20833374434227 21.8267934849558  2.24163608710938 21.6531801435547  C 2.27878055805667 21.4459894426836  2.33400871173757 21.2424520055968  2.40668689941407 21.0449030767578  C 2.77298100938214 20.1417328303559  3.52290549643726 19.4489195375482  4.45220399062498 19.1551642351562  C 4.77597024527427 19.0577989847083  5.11185536961233 19.0066046026942  5.44992675585939 19.0030949808594  C 5.78311849341628 19.0068067783806  6.11407858613518 19.0580119200736  6.43281349023437 19.1551642351562  C 7.37010171241735 19.4441966832561  8.12705756999316 20.1405143229064  8.49316661230466 21.0504665945313  C 8.57366563579581 21.2441516607574  8.62913015849966 21.4473138428894  8.6582173998047 21.6550346412109  C 8.69810176513602 21.8277425781239  8.71801366243068 22.0044606905424  8.71756149843748 22.1817135878906  C 8.71466512558709 22.2060571362657  8.71033037586034 22.2302079048584  8.70457999003906 22.2540391949219  C 8.63237822898697 24.0007388328631  7.19533626782459 25.3796062693327  5.44714499697267 25.3796062693327  Z M 4.73965199550781 21.0486120720703  L 4.73965199550781 21.0411940566406  C 4.49677438135143 21.1828009569095  4.30273111086501 21.3949549382936  4.18330101191407 21.6494711482422  C 4.11567601300681 21.8170165886378  4.07922406100369 21.9955054599657  4.0757398253906 22.1761500701172  L 4.0757398253906 22.2540391949219  C 4.13956820471827 22.960251316323  4.73156352924644 23.5011543481771  5.44065423037108 23.5011543481771  C 6.14974493149572 23.5011543481771  6.74174025602395 22.960251316323  6.80556863535156 22.2540391949219  C 6.80989017086466 22.0498084015413  6.77331912950598 21.8467760615014  6.69800744882815 21.6568891388672  C 6.57556857045546 21.4044005099831  6.38224678291641 21.193035358595  6.14165646523441 21.0486120720703  C 5.92938264566504 20.9237625372404  5.68689596234719 20.8596126251954  5.44065424277346 20.8631617607422  C 5.19465456110953 20.8615534115922  4.95267514663726 20.9255691232734  4.73965199550781 21.0486120720703  Z M 31.8228176972656 22.2651662304687  L 31.8153997066406 22.2596027126953  L 30.5172474033203 22.2596027126953  L 30.5172474033203 22.1854225832031  C 30.5148183122087 22.0090345801583  30.4999453516543 21.833037840202  30.4727393355469 21.6587436613281  C 30.4481940640688 21.4525935524166  30.4053719586608 21.2490334162555  30.3447786003906 21.0504665945313  C 30.1138799297263 20.3080373016436  29.6710482522448 19.6492687677521  29.0707348658203 19.1551642351562  C 28.8557102585068 18.9743363263116  28.6219476331462 18.8170439230957  28.3734416386719 18.6859749142578  C 28.2899889960938 18.6433213441406  28.187991302539 18.6006677740234  28.0934116492188 18.5468871683594  C 28.0822846384766 18.5468871683594  28.0730121253906 18.5227786244141  28.0489035566407 18.5227786244141  L 32.4348037841797 18.5227786244141  L 32.4348037841797 21.6643071542969  C 32.4333850876884 21.8257511540997  32.366453019675 21.9796949230639  32.2493534728516 22.0908429050781  C 32.1348831751529 22.2016406465178  31.9821236700427 22.2640727950973  31.8228176972656 22.2651662304687  Z M 22.3296154958985 22  L 9.56136048691405 22  L 9.56136048691405 22.1891315785156  C 9.56136048691405 22.0036812423828  9.54096096308592 21.833066961914  9.52612493222654 21.6624526566406  C 9.49386584287538 21.4576453579423  9.45115651524497 21.2546213247954  9.39816419707029 21.0541755898437  C 9.16726552208019 20.3117463059617  8.72443384494022 19.6529777811998  8.1241204625 19.1588732552734  L 8.05921284609377 19.1588732552734  C 8.07463133970145 19.1580941971378  8.08974975025859 19.1543145881793  8.10372091386716 19.1477462197266  C 7.81155026771415 18.8968589014369  7.48174859637112 18.6934707771885  7.12639769726565 18.5450326707031  C 6.8558972666516 18.4326440553055  6.57682946507401 18.3421020582346  6.291871221875 18.2742751943359  C 6.01678747347393 18.2215358722362  5.7374342568354 18.1942213344649  5.45734477128906 18.192677049414  C 5.1760360248557 18.1943893200652  4.89546689647813 18.2217013588904  4.61910927578123 18.2742751943359  C 4.33598267449099 18.3421802679235  4.05876975854403 18.4327240839631  3.79014631816409 18.5450326707031  C 3.4321782984976 18.696278538644  3.0994623651448 18.9014116706114  2.80355058847658 19.1533097375  C 2.03607988034656 19.7815385814951  1.53566327596826 20.6776488433273  1.40340061640626 21.6605981589843  C 1.37635775924446 21.8349119025638  1.36148576809853 22.0108971711844  1.35889254863281 22.1872770808594  L 1.35889254863281 22.2540391949219  L 0.685707865429663 22.2540391949219  C 0.349383457044723 22.2644495044711  0.0681204406044458 22.0006098632841  0.0570312500000227 21.6643071542969  L 0.0570312500000227 18.5450326707031  C 0.0581119920611854 18.3942458972795  0.120352679152916 18.2503561327559  0.229500052929666 18.1463144591797  L 0.229500052929666 13.6231810082031  C 0.204093445760577 11.5534455643269  1.10540909850971 9.58075470719962  2.68671688886718 8.24512153320313  C 2.79362086539095 8.16460894663783  2.92378660215701 8.1210034254741  3.05761753632811 8.12086981816407  L 8.04437681523439 8.12086981816407  C 8.22352184615772 8.11924567313753  8.39410449378471 8.19740106841039  8.50985714082032 8.33413769355468  L 8.50985714082032 18.2761296919922  C 8.51261845892151 18.3756976237866  8.55075036570588 18.4710273951443  8.61741832734373 18.5450326707031  L 8.67305343066408 18.5450326707031  L 8.67305343066408 18.5876862408203  C 8.74290172815142 18.6464994762979  8.83032029355218 18.680423101818  8.92155686074221 18.6841204166016  L 24.4622942498047 18.6841204166016  C 24.2158534441351 18.8167018623793  23.9834730884544 18.9739003341256  23.7687100179688 19.1533097375  C 23.166913478132 19.6446021951001  22.7258039942247 20.3046518230342  22.5020842988282 21.0486120720703  C 22.439602585893 21.2466884480472  22.3967429298863 21.4504270855898  22.3741235636719 21.6568891388671  C 22.3488974526023 21.8314155378402  22.3340353825951 22.0072834145747  22.3296154958985 22.1835680855469  C 22.3270575530645 22.206988819658  22.3270575530645 22.2306184608107  22.3296154958985 22  Z M 3.29313945800783 9.34669646484372  C 2.29154090741156 10.2672216300703  1.65603758930411 11.5184716759507  1.50354378750001 12.8702526777344  L 7.43795424609374 12.8702526777344  L 7.43795424609374 9.34669646484372  L 3.29313945800783 9.34669646484372  Z M 35.3834639873047 17.8959565314453  L 33.9573509736328 17.903374546875  L 26.5634464443359 1.67832546386717  L 28.716524746875 1.67832546386717  L 37.2732028041016 6.52970599218747  L 39.9065974382813 12.8776706931641  L 39.9065974382813 14.7433009660156  L 35.3834639873047 17.8959565314453  Z M 33.8701893109375 8.46766192167968  L 33.3435103890625 9.33742395175778  L 33.8720438085937 10.2257310080078  L 33.8720438085937 9.85483036054688  L 34.4005772529297 9.85483036054688  C 34.5306970156704 9.8570313895554  34.6524515880168 9.79087572776399  34.7214063148438 9.68050705996092  L 35.3704824541015 8.58264112363281  C 35.2706941568587 8.74341748923632  35.0942194809585 8.84044340347884  34.9050021285156 8.83856256914061  L 33.8701893109375 8.83856256914061  L 33.8701893109375 8.46766192167968  Z M 31.9452149146484 8.84412608691406  L 31.694856986914 9.25211678671872  C 31.6210010988998 9.37609333664756  31.6210010988998 9.5305674684306  31.694856986914 9.65454401835939  C 31.7746290997605 9.78215466943772  31.9152798790855 9.85880933923153  32.065757634375 9.8566848582031  L 33.0041363009766 9.8566848582031  L 33.0041363009766 8.84412608691406  L 31.9452149146484 8.84412608691406  Z M 30.8807300601563 7.61459042011717  L 31.2219586458984 7.80931326933592  L 30.9567646873047 8.25068502617188  C 30.8907716052645 8.36019986306974  30.8907716052645 8.49723483068021  30.9567646873047 8.60674966757813  L 31.609549821875 9.70461560390623  C 31.5136195129645 9.54482053405178  31.5136195129645 9.34514974251067  31.609549821875 9.18535467265622  L 32.1269562554688 8.31744714023438  L 32.4681848412109 8.5028974763672  L 31.9396514216797 7.61459042011717  L 30.8807300601563 7.61459042011717  Z M 34.8234039835937 7.34197844609372  L 33.9091338857422 7.84083980390625  L 34.4339583099609 8.72543786484374  L 34.9216926570313 8.72543786484374  C 35.0709649977974 8.73026422782834  35.2118004056486 8.65632564011923  35.2925933292969 8.53071501562499  C 35.3685389718254 8.40732190015109  35.3685389718254 8.25168092426298  35.2925933292969 8.12828780878908  L 34.8234039835937 7.34197844609372  Z M 32.1918638470703 6.16993238027345  L 32.1900093494141 6.17178687792966  L 31.6336583658203 7.09903850898439  L 32.5442194683594 7.6071724046875  L 33.3546373998047 6.25338502285155  C 33.450602852596 6.09325355318612  33.6241664099132 5.99588863470154  33.8108452123047 5.99746357734375  L 32.5108384113281 5.99746357734375  C 32.3817424678793 5.99551710550116  32.2609233530648 6.06084371908736  32.1918638470703 6.16993238027345  Z M 33.4584895910156 6.30531110605466  L 33.4529260732422 6.30345660839845  C 33.4529260732422 6.30345660839845  33.3286743582031 6.50559747304686  33.2081316384766 6.71144733300781  L 33.4529260732422 7.12685604824219  L 33.1116974875 7.31230638437501  L 34.1798913621094 7.31230638437501  L 34.7084247816406 6.42399932812498  L 34.3671961958984 6.60944963945315  L 34.1798913621094 6.30531110605466  C 34.1037481596835 6.17877621136188  33.9668687310571 6.10139299562758  33.8191904765625 6.10139299562758  C 33.6715122220679 6.10139299562758  33.5346327934415 6.17877621136188  33.4584895910156 6.30531110605466  Z M 32.4644758458984 17.9052290445312  L 10 17.8996655267578  L 10 2.41085424570315  L 21.4042183625 2.29402054609375  L 20.7217611414063 0  L 24.721924690625 0  L 25.5675782015625 1.04779435078126  L 32.4644758458984 16.6256217921875  L 32.4644758458984 17.9052290445312  Z " fill-rule="nonzero" fill="#ff0000" stroke="none" transform="matrix(1 0 0 1 241 459 )" />
  </g>
</svg>