<?xml version="1.0" encoding="utf-8"?>
<svg version="1.1" xmlns:xlink="http://www.w3.org/1999/xlink" width="6px" height="7px" xmlns="http://www.w3.org/2000/svg">
  <g transform="matrix(1 0 0 1 -75 -629 )">
    <path d="M 2.29744 0.378160000000001  C 2.5232 0.31944  2.76024 0.30392  2.91104 0.2808  C 4.08112 0.31584  4.918 0.79472  5.49752 1.70248  C 6.2936 2.94952  6.12048 4.59464  5.10128 5.66624  C 3.87376 6.95688  1.852 6.85432  0.705679999999999 5.4432  C -0.726320000000001 3.68064  0.132159999999999 0.942080000000001  2.29744 0.378160000000001  Z M 1.00328 3.40352  C 0.99424 4.57048  1.87496 5.50504  2.99376 5.5156  C 4.08 5.52592  4.98312 4.60176  4.9964 3.46624  C 5.01016 2.302  4.11664 1.34016  3.01864 1.33704  C 1.91504 1.334  1.01208 2.25984  1.00328 3.40352  Z " fill-rule="nonzero" fill="#000000" stroke="none" transform="matrix(1 0 0 1 75 629 )" />
  </g>
</svg>