<?xml version="1.0" encoding="utf-8"?>
<svg version="1.1" xmlns:xlink="http://www.w3.org/1999/xlink" width="13px" height="12px" xmlns="http://www.w3.org/2000/svg">
  <g transform="matrix(1 0 0 1 -72 -654 )">
    <path d="M 12.733328125 6.933328125  C 12.733328125 3.4  10 0.666671875  6.6 0.666671875  C 3.2 0.666671875  0.399999999999999 3.4  0.399999999999999 6.866671875  C 0.399999999999999 8.533328125  1.066671875 10.066671875  2.2 11.2  C 2.4 11.4  2.733328125 11.4  2.933328125 11.2  C 3 11.133328125  3 11.066671875  3.066671875 11  C 3.133328125 11  3.133328125 10.933328125  3.2 10.933328125  L 3.733328125 10.4  C 3.933328125 10.2  3.933328125 9.866671875  3.733328125 9.666671875  C 3.533328125 9.466671875  3.2 9.466671875  3 9.666671875  L 2.6 10.066671875  C 1.933328125 9.266671875  1.533328125 8.266671875  1.466671875 7.266671875  L 2 7.266671875  C 2.266671875 7.266671875  2.533328125 7.066671875  2.533328125 6.733328125  C 2.533328125 6.399984375  2.266671875 6.266671875  2 6.266671875  L 1.466671875 6.266671875  C 1.6 5.2  2 4.266671875  2.666671875 3.533328125  L 3.066671875 3.933328125  C 3.133328125 4  3.2 4.066671875  3.333328125 4.066671875  C 3.46665625 4.066671875  3.6 4  3.666671875 3.933328125  C 3.866671875 3.733328125  3.866671875 3.4  3.666671875 3.2  L 3.333328125 2.8  C 4.133328125 2.2  5.066671875 1.733328125  6.066671875 1.666671875  L 6.066671875 2.2  C 6.066671875 2.466671875  6.266671875 2.733328125  6.6 2.733328125  C 6.933328125 2.733328125  7.133328125 2.533328125  7.133328125 2.2  L 7.133328125 1.666671875  C 8.2 1.8  9.133328125 2.2  9.866671875 2.8  L 9.466671875 3.2  C 9.266671875 3.4  9.266671875 3.733328125  9.466671875 3.933328125  C 9.533328125 4  9.666671875 4.066671875  9.8 4.066671875  C 9.933328125 4.066671875  10.066671875 4  10.133328125 3.933328125  L 10.533328125 3.533328125  C 11.2 4.266671875  11.6 5.266671875  11.733328125 6.266671875  L 11.2 6.266671875  C 10.933328125 6.266671875  10.666671875 6.466671875  10.666671875 6.8  C 10.666671875 7.133328125  10.866671875 7.333328125  11.2 7.333328125  L 11.733328125 7.333328125  C 11.666671875 8.333328125  11.266671875 9.333328125  10.6 10.133328125  L 10.2 9.733328125  C 10 9.533328125  9.666671875 9.533328125  9.466671875 9.733328125  C 9.266671875 9.933328125  9.266671875 10.266671875  9.466671875 10.466671875  L 10 11  C 10 11  10.066671875 11.066671875  10.133328125 11.066671875  C 10.133328125 11.133328125  10.2 11.2  10.266671875 11.266671875  C 10.333328125 11.333328125  10.466671875 11.4  10.6 11.4  C 10.733328125 11.4  10.866671875 11.333328125  10.933328125 11.266671875  C 12.066671875 10.133328125  12.733328125 8.533328125  12.733328125 6.933328125  Z " fill-rule="nonzero" fill="#000000" stroke="none" transform="matrix(1 0 0 1 72 654 )" />
  </g>
</svg>