<?xml version="1.0" encoding="utf-8"?>
<svg version="1.1" xmlns:xlink="http://www.w3.org/1999/xlink" width="12px" height="14px" xmlns="http://www.w3.org/2000/svg">
  <g transform="matrix(1 0 0 1 -72 -677 )">
    <path d="M 9.56977831921875 3.624495330625  C 9.56977831921875 5.59151603765625  7.96702070671875 7.19427364984375  6 7.19427365  C 4.032979293125 7.19427365  2.43022168078125 5.5915160375  2.43022168078125 3.624495330625  C 2.43022168078125 1.65747462375  4.03297929328125 0.054717011406249  6 0.0547170110937492  C 7.96702070671875 0.0547170107812493  9.56977831921875 1.65747462359375  9.56977831921875 3.624495330625  Z M 8.54984165703125 3.624495330625  C 8.54984165703125 2.2184397890625  7.4060555421875 1.07465367359375  6 1.07465367328125  C 4.593944458125 1.07465367328125  3.45015834296875 2.218439788125  3.45015834296875 3.624495330625  C 3.45015834296875 5.030550873125  4.5939444578125 6.17433698765625  6 6.17433698703125  C 7.4060555421875 6.17433698640625  8.54984165703125 5.0305508721875  8.54984165703125 3.624495330625  Z M 11.9690578976562 13.163331548125  L 11.9690578976562 13.9452829889063  L 10.9491212345312 13.9452829889063  L 10.9491212345312 13.1657599685938  C 10.9491212345312 10.4362151851563  8.72954478265625 8.21421031296875  6 8.21421031296875  C 3.27045521734375 8.21421031296875  1.05087876546875 10.4337867645312  1.05087876546875 13.163331548125  L 1.05087876546875 13.9452829889063  L 0.0309421023437499 13.9452829889063  L 0.0309421023437499 13.1657599685938  C 0.0309421023437499 9.8728216003125  2.7070616315625 7.19427365  6 7.19427365  C 9.2929383684375 7.19427365  11.9690578976562 9.8728216003125  11.9690578976562 13.163331548125  Z " fill-rule="nonzero" fill="#000000" stroke="none" transform="matrix(1 0 0 1 72 677 )" />
  </g>
</svg>