<?xml version="1.0" encoding="utf-8"?>
<svg version="1.1" xmlns:xlink="http://www.w3.org/1999/xlink" width="24px" height="24px" xmlns="http://www.w3.org/2000/svg">
  <defs>
    <filter x="2012px" y="598px" width="24px" height="24px" filterUnits="userSpaceOnUse" id="filter221">
      <feOffset dx="0" dy="1" in="SourceAlpha" result="shadowOffsetInner" />
      <feGaussianBlur stdDeviation="2.5" in="shadowOffsetInner" result="shadowGaussian" />
      <feComposite in2="shadowGaussian" operator="atop" in="SourceAlpha" result="shadowComposite" />
      <feColorMatrix type="matrix" values="0 0 0 0 0.207843137254902  0 0 0 0 0.207843137254902  0 0 0 0 0.207843137254902  0 0 0 0.349019607843137 0  " in="shadowComposite" />
    </filter>
    <g id="widget222">
      <path d="M 2024 602.5  C 2027.64 602.5  2030.5 605.36  2030.5 609  C 2030.5 612.64  2027.64 615.5  2024 615.5  C 2020.36 615.5  2017.5 612.64  2017.5 609  C 2017.5 605.36  2020.36 602.5  2024 602.5  Z " fill-rule="nonzero" fill="#ffffff" stroke="none" />
      <path d="M 2024 602.5  C 2027.64 602.5  2030.5 605.36  2030.5 609  C 2030.5 612.64  2027.64 615.5  2024 615.5  C 2020.36 615.5  2017.5 612.64  2017.5 609  C 2017.5 605.36  2020.36 602.5  2024 602.5  Z " stroke-width="1" stroke="#b2b2b2" fill="none" stroke-opacity="0.349019607843137" />
    </g>
  </defs>
  <g transform="matrix(1 0 0 1 -2012 -598 )">
    <use xlink:href="#widget222" filter="url(#filter221)" />
    <use xlink:href="#widget222" />
  </g>
</svg>