<?xml version="1.0" encoding="utf-8"?>
<svg version="1.1" xmlns:xlink="http://www.w3.org/1999/xlink" width="10px" height="10px" xmlns="http://www.w3.org/2000/svg">
  <g transform="matrix(1 0 0 1 -1881 -652 )">
    <path d="M 1886 652  C 1888.8 652  1891 654.2  1891 657  C 1891 659.8  1888.8 662  1886 662  C 1883.2 662  1881 659.8  1881 657  C 1881 654.2  1883.2 652  1886 652  Z " fill-rule="nonzero" fill="#666666" stroke="none" />
    <path d="M 1886 652.5  C 1888.52 652.5  1890.5 654.48  1890.5 657  C 1890.5 659.52  1888.52 661.5  1886 661.5  C 1883.48 661.5  1881.5 659.52  1881.5 657  C 1881.5 654.48  1883.48 652.5  1886 652.5  Z " stroke-width="1" stroke="#797979" fill="none" />
  </g>
</svg>