<?xml version="1.0" encoding="utf-8"?>
<svg version="1.1" xmlns:xlink="http://www.w3.org/1999/xlink" width="357px" height="176px" xmlns="http://www.w3.org/2000/svg">
  <g transform="matrix(1 0 0 1 -57 -495 )">
    <path d="M 58 501  A 5 5 0 0 1 63 496 L 408 496  A 5 5 0 0 1 413 501 L 413 665  A 5 5 0 0 1 408 670 L 63 670  A 5 5 0 0 1 58 665 L 58 501  Z " fill-rule="nonzero" fill="#ffffff" stroke="none" />
    <path d="M 57.5 501  A 5.5 5.5 0 0 1 63 495.5 L 408 495.5  A 5.5 5.5 0 0 1 413.5 501 L 413.5 665  A 5.5 5.5 0 0 1 408 670.5 L 63 670.5  A 5.5 5.5 0 0 1 57.5 665 L 57.5 501  Z " stroke-width="1" stroke="#cccccc" fill="none" stroke-opacity="0.0980392156862745" />
  </g>
</svg>