<?xml version="1.0" encoding="utf-8"?>
<svg version="1.1" xmlns:xlink="http://www.w3.org/1999/xlink" width="470px" height="36px" xmlns="http://www.w3.org/2000/svg">
  <g transform="matrix(1 0 0 1 -289 -638 )">
    <path d="M 290 642  A 3 3 0 0 1 293 639 L 755 639  A 3 3 0 0 1 758 642 L 758 670  A 3 3 0 0 1 755 673 L 293 673  A 3 3 0 0 1 290 670 L 290 642  Z " fill-rule="nonzero" fill="#ff3399" stroke="none" fill-opacity="0.0980392156862745" />
    <path d="M 289.5 642  A 3.5 3.5 0 0 1 293 638.5 L 755 638.5  A 3.5 3.5 0 0 1 758.5 642 L 758.5 670  A 3.5 3.5 0 0 1 755 673.5 L 293 673.5  A 3.5 3.5 0 0 1 289.5 670 L 289.5 642  Z " stroke-width="1" stroke-dasharray="9,4" stroke="#ff3399" fill="none" stroke-dashoffset="0.5" />
  </g>
</svg>