<?xml version="1.0" encoding="utf-8"?>
<svg version="1.1" xmlns:xlink="http://www.w3.org/1999/xlink" width="120px" height="60px" xmlns="http://www.w3.org/2000/svg">
  <g transform="matrix(1 0 0 1 -618 -647 )">
    <path d="M 619 651  A 3 3 0 0 1 622 648 L 734 648  A 3 3 0 0 1 737 651 L 737 703  A 3 3 0 0 1 734 706 L 622 706  A 3 3 0 0 1 619 703 L 619 651  Z " fill-rule="nonzero" fill="#ffffff" stroke="none" />
    <path d="M 618.5 651  A 3.5 3.5 0 0 1 622 647.5 L 734 647.5  A 3.5 3.5 0 0 1 737.5 651 L 737.5 703  A 3.5 3.5 0 0 1 734 706.5 L 622 706.5  A 3.5 3.5 0 0 1 618.5 703 L 618.5 651  Z " stroke-width="1" stroke-dasharray="9,4" stroke="#000000" fill="none" stroke-dashoffset="0.5" />
  </g>
</svg>