<?xml version="1.0" encoding="utf-8"?>
<svg version="1.1" xmlns:xlink="http://www.w3.org/1999/xlink" width="10px" height="18px" xmlns="http://www.w3.org/2000/svg">
  <g transform="matrix(1 0 0 1 -396 -181 )">
    <path d="M 8.22890625 9.014453125  L 0.606640625 1.3927734375  C 0.502521372802246 1.28857652300573  0.444034310192131 1.14730178433524  0.444034310192131 1  C 0.444034310192131 0.693110430262759  0.692817461512758 0.444327278942131  0.99970703125 0.444327278942131  C 1.14715238673355 0.444327278942131  1.28855270302444 0.502928090032538  1.3927734375 0.6072265625  L 9.4072265625 8.6216796875  C 9.62410442351812 8.83862107115824  9.62410442351812 9.19028517884176  9.4072265625 9.4072265625  L 1.3927734375 17.4222265625  C 1.28918766032677 17.522326171541  1.15077090810197 17.5782775037697  1.00672249623033 17.5782775037697  C 0.699902429351676 17.5782775037697  0.451175621230329 17.3295506956483  0.451175621230329 17.0227306287697  C 0.451175621230329 16.878682216898  0.507126953459003 16.7402654646732  0.607226562500001 16.6366796875  L 8.22890625 9.015  Z " fill-rule="nonzero" fill="#ffffff" stroke="none" transform="matrix(1 0 0 1 396 181 )" />
  </g>
</svg>