<?xml version="1.0" encoding="utf-8"?>
<svg version="1.1" xmlns:xlink="http://www.w3.org/1999/xlink" width="16px" height="8px" xmlns="http://www.w3.org/2000/svg">
  <g transform="matrix(1 0 0 1 -352 -728 )">
    <path d="M 15.5234375 7.453125  C 15.34765625 7.6640625  15.06640625 7.8046875  14.78515625 7.8046875  L 1.1796875 7.8046875  C 0.8984375 7.8046875  0.6171875 7.6640625  0.44140625 7.453125  C 0.265625 7.20703125  0.1953125 6.92578125  0.265625 6.64453125  C 0.96875 3.05859375  3.88671875 0.386718750000002  7.40234375 0.105468750000002  C 8.580078125 0.105468750000002  9.8544921875 0.254882812500002  11.12890625 0.773437500000004  C 11.498046875 0.922851562500002  11.62109375 1.01953125  11.83203125 1.125  C 13.87109375 2.28515625  15.27734375 4.2890625  15.734375 6.64453125  C 15.8046875 6.92578125  15.734375 7.20703125  15.5234375 7.453125  Z " fill-rule="nonzero" fill="#00cc00" stroke="none" transform="matrix(1 0 0 1 352 728 )" />
  </g>
</svg>