<?xml version="1.0" encoding="utf-8"?>
<svg version="1.1" xmlns:xlink="http://www.w3.org/1999/xlink" width="16px" height="8px" xmlns="http://www.w3.org/2000/svg">
  <g transform="matrix(1 0 0 1 -352 -728 )">
    <path d="M 14.8115234375 7.2333984375  L 1.197265625 7.2333984375  C 1.0830078125 7.2333984375  0.9775390625 7.189453125  0.916015625 7.1103515625  C 0.9072265625 7.1015625  0.9072265625 7.0927734375  0.8984375 7.083984375  C 0.810546875 6.99609375  0.8017578125 6.8466796875  0.819335937499999 6.7587890625  C 1.4697265625 3.4189453125  4.203125 0.914062500000002  7.47265625 0.676757812500002  L 7.736328125 0.676757812500002  C 9.3095703125 0.676757812500002  10.8212890625 1.1689453125  11.5595703125 1.634765625  C 13.4931640625 2.794921875  14.78515625 4.6142578125  15.189453125 6.7587890625  C 15.20703125 6.8818359375  15.1806640625 6.99609375  15.0927734375 7.1103515625  C 15.03125 7.189453125  14.92578125 7.2333984375  14.8115234375 7.2333984375  Z " fill-rule="nonzero" fill="#00cc00" stroke="none" transform="matrix(1 0 0 1 352 728 )" />
  </g>
</svg>