<?xml version="1.0" encoding="utf-8"?>
<svg version="1.1" xmlns:xlink="http://www.w3.org/1999/xlink" width="16px" height="16px" xmlns="http://www.w3.org/2000/svg">
  <g transform="matrix(1 0 0 1 -352 -720 )">
    <path d="M 7.4814453125 8.8876953125  C 7.560546875 8.896484375  7.6484375 8.8876953125  7.736328125 8.8876953125  C 9.265625 8.8876953125  10.7333984375 9.3623046875  11.4453125 9.810546875  L 11.4541015625 9.810546875  C 13.3349609375 10.9267578125  14.5830078125 12.693359375  14.9697265625 14.78515625  C 14.978515625 14.8291015625  14.978515625 14.890625  14.908203125 14.9697265625  C 14.8994140625 14.9873046875  14.85546875 15.0048828125  14.802734375 15  L 1.197265625 15  C 1.14453125 15.0048828125  1.1005859375 14.9873046875  1.091796875 14.9697265625  C 1.0830078125 14.9521484375  1.0654296875 14.9345703125  1.0478515625 14.92578125  C 1.0302734375 14.908203125  1.0126953125 14.85546875  1.0302734375 14.7939453125  C 1.6630859375 11.55078125  4.30859375 9.125  7.4814453125 8.8876953125  Z M 11.6826171875 9.44140625  C 10.935546875 8.9755859375  9.40625 8.4482421875  7.736328125 8.4482421875  C 7.6484375 8.4482421875  7.5517578125 8.4482421875  7.4638671875 8.45703125  C 4.0888671875 8.703125  1.2763671875 11.26953125  0.6083984375 14.71484375  C 0.5732421875 14.890625  0.6083984375 15.1015625  0.7490234375 15.2421875  C 0.8544921875 15.3828125  1.0302734375 15.453125  1.2060546875 15.453125  L 14.8115234375 15.453125  C 14.9873046875 15.453125  15.1630859375 15.3828125  15.2685546875 15.2421875  C 15.3740234375 15.1015625  15.4443359375 14.92578125  15.4091796875 14.71484375  C 14.9873046875 12.46484375  13.6513671875 10.619140625  11.6826171875 9.44140625  Z M 12.04296875 4.37890625  C 12.04296875 6.59375  10.21484375 8.421875  8 8.421875  C 5.78515625 8.421875  3.95703125 6.59375  3.95703125 4.37890625  C 3.95703125 2.1640625  5.78515625 0.3359375  8 0.3359375  C 10.21484375 0.3359375  12.04296875 2.1640625  12.04296875 4.37890625  Z " fill-rule="nonzero" fill="#00cc00" stroke="none" transform="matrix(1 0 0 1 352 720 )" />
  </g>
</svg>