<?xml version="1.0" encoding="utf-8"?>
<svg version="1.1" xmlns:xlink="http://www.w3.org/1999/xlink" width="8px" height="9px" xmlns="http://www.w3.org/2000/svg">
  <g transform="matrix(1 0 0 1 -356 -720 )">
    <path d="M 0.748046875 4.37890625  C 0.748046875 2.5859375  2.20703125 1.126953125  4 1.126953125  C 5.79296875 1.126953125  7.251953125 2.5859375  7.251953125 4.37890625  C 7.251953125 6.171875  5.79296875 7.630859375  4 7.630859375  C 2.20703125 7.630859375  0.748046875 6.171875  0.748046875 4.37890625  Z M 7.69140625 4.37890625  C 7.69140625 2.33984375  6.0390625 0.6875  4 0.6875  C 1.9609375 0.6875  0.30859375 2.33984375  0.30859375 4.37890625  C 0.30859375 6.41796875  1.9609375 8.0703125  4 8.0703125  C 6.0390625 8.0703125  7.69140625 6.41796875  7.69140625 4.37890625  Z " fill-rule="nonzero" fill="#00cc00" stroke="none" transform="matrix(1 0 0 1 356 720 )" />
  </g>
</svg>