<?xml version="1.0" encoding="utf-8"?>
<svg version="1.1" xmlns:xlink="http://www.w3.org/1999/xlink" width="26px" height="22px" xmlns="http://www.w3.org/2000/svg">
  <g transform="matrix(1 0 0 1 -1074 -398 )">
    <path d="M 26 2  C 26 0.894999999999999  25.105 0  24 0  L 2 0  C 0.895 0  0 0.894999999999999  0 2  L 0 20  C 0 21.105  0.895 22  2 22  L 24 22  C 25.105 22  26 21.105  26 20  L 26 2  Z M 24 2  L 24 5  L 21 5  L 21 2  L 24 2  Z M 24 7  L 24 10  L 21 10  L 21 7  L 24 7  Z M 20 11.5  C 20 11.776  19.776 12  19.5 12  L 6.5 12  C 6.224 12  6 11.776  6 11.5  C 6 11.224  6.224 11  6.5 11  L 19.5 11  C 19.776 11  20 11.224  20 11.5  Z M 24 12  L 24 15  L 21 15  L 21 12  L 24 12  Z M 24 17  L 24 20  L 21 20  L 21 17  L 24 17  Z M 5 2  L 5 5  L 2 5  L 2 2  L 5 2  Z M 5 7  L 5 10  L 2 10  L 2 7  L 5 7  Z M 5 12  L 5 15  L 2 15  L 2 12  L 5 12  Z M 5 17  L 5 20  L 2 20  L 2 17  L 5 17  Z " fill-rule="nonzero" fill="#d7d7d7" stroke="none" transform="matrix(1 0 0 1 1074 398 )" />
  </g>
</svg>