<?xml version="1.0" encoding="utf-8"?>
<svg version="1.1" xmlns:xlink="http://www.w3.org/1999/xlink" width="1170px" height="124px" xmlns="http://www.w3.org/2000/svg">
  <g transform="matrix(1 0 0 1 -246 -767 )">
    <path d="M 247 771  A 3 3 0 0 1 250 768 L 1412 768  A 3 3 0 0 1 1415 771 L 1415 887  A 3 3 0 0 1 1412 890 L 250 890  A 3 3 0 0 1 247 887 L 247 771  Z " fill-rule="nonzero" fill="#ff3399" stroke="none" fill-opacity="0.0980392156862745" />
    <path d="M 246.5 771  A 3.5 3.5 0 0 1 250 767.5 L 1412 767.5  A 3.5 3.5 0 0 1 1415.5 771 L 1415.5 887  A 3.5 3.5 0 0 1 1412 890.5 L 250 890.5  A 3.5 3.5 0 0 1 246.5 887 L 246.5 771  Z " stroke-width="1" stroke-dasharray="9,4" stroke="#ff3399" fill="none" stroke-dashoffset="0.5" />
  </g>
</svg>