<?xml version="1.0" encoding="utf-8"?>
<svg version="1.1" xmlns:xlink="http://www.w3.org/1999/xlink" width="19px" height="18px" preserveAspectRatio="xMinYMid meet" viewBox="645 1178  19 16" xmlns="http://www.w3.org/2000/svg">
  <path d="M 1170 1186.5  L 1127 1186.5  A 5 5 0 0 0 1122.5 1191.5 L 1122.5 1225  A 5 5 0 0 1 1117 1230.5 L 1067 1230.5  A 3 3 0 0 0 1064 1227.5 A 3 3 0 0 0 1061 1230.5 L 778 1230.5  A 3 3 0 0 0 775 1227.5 A 3 3 0 0 0 772 1230.5 L 685 1230.5  A 5 5 0 0 1 680.5 1225.5 L 680.5 1191  A 5 5 0 0 0 675.5 1186.5 L 656 1186.5  " stroke-width="1" stroke="#999999" fill="none" />
  <path d="M 657 1180.2  L 651 1186.5  L 657 1192.8  L 657 1180.2  Z " fill-rule="nonzero" fill="#999999" stroke="none" />
</svg>