<?xml version="1.0" encoding="utf-8"?>
<svg version="1.1" xmlns:xlink="http://www.w3.org/1999/xlink" width="489px" height="194px" xmlns="http://www.w3.org/2000/svg">
  <g transform="matrix(1 0 0 1 -1069 -67 )">
    <path d="M 1070 71  A 3 3 0 0 1 1073 68 L 1554 68  A 3 3 0 0 1 1557 71 L 1557 257  A 3 3 0 0 1 1554 260 L 1073 260  A 3 3 0 0 1 1070 257 L 1070 71  Z " fill-rule="nonzero" fill="#ff3399" stroke="none" fill-opacity="0.0980392156862745" />
    <path d="M 1069.5 71  A 3.5 3.5 0 0 1 1073 67.5 L 1554 67.5  A 3.5 3.5 0 0 1 1557.5 71 L 1557.5 257  A 3.5 3.5 0 0 1 1554 260.5 L 1073 260.5  A 3.5 3.5 0 0 1 1069.5 257 L 1069.5 71  Z " stroke-width="1" stroke-dasharray="9,4" stroke="#ff3399" fill="none" stroke-dashoffset="0.5" />
  </g>
</svg>