<?xml version="1.0" encoding="utf-8"?>
<svg version="1.1" xmlns:xlink="http://www.w3.org/1999/xlink" width="16px" height="16px" xmlns="http://www.w3.org/2000/svg">
  <g transform="matrix(1 0 0 1 -103 -720 )">
    <path d="M 13.203125 14.880859375  C 13.203125 14.59375  13 14.359375  12.75 14.359375  L 3.330078125 14.359375  C 3.08203125 14.359375  2.87890625 14.59375  2.87890625 14.880859375  C 2.87890625 15.16796875  3.08203125 15.40234375  3.330078125 15.40234375  L 12.751953125 15.40234375  C 13 15.40234375  13.203125 15.16796875  13.203125 14.880859375  Z M 15.833984375 1.544921875  C 15.83203125 1.048828125  15.431640625 0.6484375  14.935546875 0.6484375  L 1.064453125 0.6484375  C 0.5703125 0.6484375  0.16796875 1.048828125  0.16796875 1.544921875  L 0.16796875 11.630859375  C 0.16796875 12.125  0.568359375 12.52734375  1.064453125 12.52734375  L 14.9375 12.52734375  C 15.431640625 12.52734375  15.833984375 12.126953125  15.833984375 11.630859375  L 15.833984375 1.544921875  Z M 13.87890625 4.201171875  C 13.869140625 4.365234375  13.794921875 4.515625  13.669921875 4.623046875  L 9.796875 8.001953125  C 9.478515625 8.28125  9.015625 8.330078125  8.64453125 8.125  L 6.115234375 6.720703125  C 6.052734375 6.685546875  5.97265625 6.697265625  5.923828125 6.75  L 3.470703125 9.337890625  C 3.35546875 9.458984375  3.193359375 9.52734375  3.02734375 9.52734375  C 2.8671875 9.52734375  2.716796875 9.466796875  2.603515625 9.35546875  C 2.359375 9.12109375  2.3515625 8.732421875  2.5859375 8.48828125  L 5.240234375 5.6875  C 5.556640625 5.357421875  6.05859375 5.28125  6.45703125 5.50390625  L 9.0078125 6.921875  C 9.06640625 6.955078125  9.138671875 6.947265625  9.189453125 6.90234375  L 12.86328125 3.69921875  C 12.986328125 3.591796875  13.142578125 3.537109375  13.30859375 3.548828125  C 13.47265625 3.560546875  13.62109375 3.634765625  13.728515625 3.7578125  C 13.8359375 3.880859375  13.888671875 4.0390625  13.87890625 4.201171875  Z " fill-rule="nonzero" fill="#00cc00" stroke="none" transform="matrix(1 0 0 1 103 720 )" />
  </g>
</svg>