<?xml version="1.0" encoding="utf-8"?>
<svg version="1.1" xmlns:xlink="http://www.w3.org/1999/xlink" width="20px" height="17px" xmlns="http://www.w3.org/2000/svg">
  <g transform="matrix(1 0 0 1 -225 -720 )">
    <path d="M 5.83333333984375 13.8333333398437  L 8.825 12.19  L 17.5 12.19  L 17.5 2.16666666015625  L 2.5 2.16666666015625  L 2.5 12.19  L 5.83333333984375 12.19  L 5.83333333984375 13.8333333398437  Z M 1 1.75  C 0.83333333984375 1.05964406271151  1.39297740255526 0.5  2.08333333984375 0.5  L 17.9166666601562 0.5  C 18.6070225974447 0.5  19.1666666601563 1.05964406271151  19.1666666601563 1.75  C 19.1666666601563 1.75  19.1666666601563 1.75  19 1.75  L 19 12.5833333398438  C 19.1666666601563 13.2736892771322  18.6070225974447 13.8333333398437  17.9166666601563 13.8333333398437  L 9.16666666015625 13.8333333398437  C 7.82781107865335 14.6411195418789  6.43573020814126 15.357205938439  5 15.9766666601562  C 4.55333333984375 16.1041666601562  4.16666666015625 15.9766666601562  4.16666666015625 15.5  L 4.16666666015625 13.8333333398437  L 2.08333333984375 13.8333333398437  C 1.39297740255526 13.8333333398437  0.83333333984375 13.2736892771322  1 12.5833333398438  L 1 1.75  Z M 5.83333333984375 8.41666666015625  C 6.52368927713224 8.41666666015625  7.08333333984375 7.85702259744474  7.08333333984375 7.16666666015625  C 7.08333333984375 6.47631072286776  6.52368927713224 5.91666666015625  5.83333333984375 5.91666666015625  C 5.14297740255526 5.91666666015625  4.58333333984375 6.47631072286776  4.58333333984375 7.16666666015625  C 4.58333333984375 7.85702259744474  5.14297740255526 8.41666666015625  5.83333333984375 8.41666666015625  Z M 10 8.41666666015625  C 10.6903559372885 8.41666666015625  11.25 7.85702259744474  11.25 7.16666666015625  C 11.25 6.47631072286776  10.6903559372885 5.91666666015625  10 5.91666666015625  C 9.30964406271151 5.91666666015625  8.75 6.47631072286776  8.75 7.16666666015625  C 8.75 7.85702259744474  9.30964406271151 8.41666666015625  10 8.41666666015625  Z M 14.1666666601563 8.41666666015625  C 14.8570225974447 8.41666666015625  15.4166666601563 7.85702259744474  15.4166666601563 7.16666666015625  C 15.4166666601563 6.47631072286776  14.8570225974447 5.91666666015625  14.1666666601563 5.91666666015625  C 13.4763107228678 5.91666666015625  12.9166666601563 6.47631072286776  12.9166666601563 7.16666666015625  C 12.9166666601563 7.85702259744474  13.4763107228678 8.41666666015625  14.1666666601563 8.41666666015625  Z " fill-rule="nonzero" fill="#8a8a8a" stroke="none" transform="matrix(1 0 0 1 225 720 )" />
  </g>
</svg>