<?xml version="1.0" encoding="utf-8"?>
<svg version="1.1" xmlns:xlink="http://www.w3.org/1999/xlink" width="20px" height="20px" xmlns="http://www.w3.org/2000/svg">
  <g transform="matrix(1 0 0 1 -350 -718 )">
    <path d="M 19.8599609375 17.49  L 19.8599609375 18.44  C 19.8599609375 18.86  19.5199609375 19.2  19.0999609375 19.2  C 18.6799609375 19.2  18.3399609375 18.86  18.3399609375 18.44  L 18.3399609375 18.03  C 18.3399609375 16.13  14.4699609375 13.44  10.0299609375 13.44  C 6.4999609375 13.44  1.6599609375 15.7  1.6599609375 17.95  L 1.6599609375 18.44  C 1.6599609375 18.86  1.3199609375 19.2  0.8999609375 19.2  C 0.4799609375 19.2  0.1399609375 18.86  0.1399609375 18.44  L 0.1399609375 17.49  C 0.1399609375 16.35  1.8299609375 13.43  6.4399609375 12.35  C 4.7799609375 11.21  3.6799609375 9.3  3.6799609375 7.13  C 3.6799609375 3.64  6.5099609375 0.810000000000001  9.9999609375 0.810000000000001  C 13.4899609375 0.810000000000001  16.3199609375 3.64  16.3199609375 7.13  C 16.3199609375 9.26  15.2599609375 11.14  13.6399609375 12.29  C 18.2999609375 13.33  19.8599609375 16.4  19.8599609375 17.49  Z M 10 11.92  C 12.65 11.92  14.8 9.77  14.8 7.12  C 14.8 4.47  12.65 2.32  10 2.32  C 7.35 2.32  5.2 4.47  5.2 7.12  C 5.2 9.77  7.35 11.92  10 11.92  Z " fill-rule="nonzero" fill="#8a8a8a" stroke="none" transform="matrix(1 0 0 1 350 718 )" />
  </g>
</svg>