<?xml version="1.0" encoding="utf-8"?>
<svg version="1.1" xmlns:xlink="http://www.w3.org/1999/xlink" width="16px" height="16px" xmlns="http://www.w3.org/2000/svg">
  <g transform="matrix(1 0 0 1 -536 -165 )">
    <path d="M 14.844135671875 14.847901125  C 14.739646515625 14.95045559375  14.60285925 15.0024843125  14.46703134375 15.0024843125  C 14.32930071875 15.0024843125  14.191554125 14.949672125  14.08706496875 14.844463453125  L 11.3417263125 12.079522078125  C 10.247268359375 13.000801453125  8.833091171875 13.55608896875  7.288570359375 13.55608896875  C 3.8139021875 13.55608896875  0.997491703124999 10.745178765625  0.997491703124999 7.2773699375  C 0.997491703124999 3.80935325  3.813902171875 0.9974996875  7.288570359375 0.9974996875  C 10.764006015625 0.9974996875  13.580592375 3.80935325  13.580592375 7.2773699375  C 13.580592375 8.819652265625  13.02321028125 10.2314630625  12.09972440625 11.323666546875  L 14.846789875 14.09204559375  C 15.0557681875 14.302095171875  15.053865484375 14.640137984375  14.844135671875 14.847901125  Z M 12.5091268125 7.2773699375  C 12.5091268125 5.885881359375  11.966550671875 4.577360546875  10.980387296875 3.59322778125  C 9.99404803125 2.609095015625  8.683384671875 2.066694765625  7.28858634375 2.066694765625  C 5.8945395 2.066694765625  4.58293278125 2.609095015625  3.59772875 3.59322778125  C 2.6113735 4.577360546875  2.068797359375 5.885865375  2.068797359375 7.2773699375  C 2.068797359375 8.6688745  2.6113735 9.97736334375  3.59772875 10.96151209375  C 4.582948765625 11.94566084375  5.894539515625 12.488045109375  7.28858634375 12.488045109375  C 8.683384671875 12.488045109375  9.994048046875 11.94566084375  10.980387296875 10.96151209375  C 11.966550671875 9.97736334375  12.5091268125 8.6688745  12.5091268125 7.2773699375  Z " fill-rule="nonzero" fill="#000000" stroke="none" transform="matrix(1 0 0 1 536 165 )" />
  </g>
</svg>