<?xml version="1.0" encoding="utf-8"?>
<svg version="1.1" xmlns:xlink="http://www.w3.org/1999/xlink" width="20px" height="20px" xmlns="http://www.w3.org/2000/svg">
  <g transform="matrix(1 0 0 1 -60 -117 )">
    <path d="M 0.71 6.07  C 0.74 6.13  0.78 6.18  0.84 6.23  L 9.7 11.35  C 9.79 11.4  9.89 11.43  9.99 11.43  C 10.1 11.43  10.2 11.4  10.29 11.35  L 19.09 6.27  C 19.37 6.11  19.46 5.75  19.3 5.47  C 19.25 5.38  19.17 5.3  19.08 5.25  L 10.32 0.18  C 10.23 0.13  10.13 0.1  10.03 0.1  C 9.91 0.1  9.8 0.13  9.7 0.2  L 0.92 5.27  C 0.64 5.43  0.55 5.79  0.71 6.07  Z M 19.3 14.04  C 19.25 13.95  19.17 13.88  19.08 13.83  L 17.44 12.88  L 16.27 13.55  L 17.63 14.34  L 9.99 18.75  L 2.37 14.35  L 3.73 13.57  L 2.56 12.9  L 0.909999999999999 13.85  C 0.629999999999999 14.01  0.539999999999999 14.37  0.699999999999999 14.65  C 0.739999999999999 14.71  0.779999999999999 14.77  0.839999999999999 14.81  L 0.839999999999999 14.82  L 9.7 19.92  C 9.79 19.97  9.89 20  9.99 20  C 10.1 20  10.2 19.97  10.29 19.92  L 19.09 14.84  C 19.37 14.68  19.46 14.32  19.3 14.04  Z " fill-rule="nonzero" fill="#515151" stroke="none" transform="matrix(1 0 0 1 60 117 )" />
  </g>
</svg>