<?xml version="1.0" encoding="utf-8"?>
<svg version="1.1" xmlns:xlink="http://www.w3.org/1999/xlink" width="20px" height="20px" xmlns="http://www.w3.org/2000/svg">
  <g transform="matrix(1 0 0 1 -386 -117 )">
    <path d="M 16.7405966277562 3.23443579766537  C 14.9271725032426 1.42983138780804  12.5169476869866 0.435927367055768  9.95257241677473 0.435927367055768  C 7.3881971465629 0.435927367055768  4.9770860354518 1.42983138780804  3.16351059230436 3.23441418071768  C 1.34993514915692 5.03899697362732  0.35019455252916 7.4408560311284  0.35019455252916 9.99494163424124  C 0.35019455252916 12.5490272373541  1.34943795936016 14.950410722006  3.1634889753567 16.7556420233463  C 4.97753999135324 18.5608733246866  7.38731085170775 19.5541288370082  9.95192390834416 19.5541288370082  C 12.5165369649806 19.5541288370082  14.9271725032426 18.5613056636403  16.7399265023778 16.755663640294  C 18.5526805015132 14.9500216169477  19.5532209252054 12.5483571119758  19.5532209252054 9.99429312581064  C 19.5532209252054 7.44022913964548  18.5554690877648 5.03966709900563  16.7405533938608 3.23443579766537  Z M 14.7536532641591 10.680869001297  L 10.6384997838305 10.680869001297  L 10.6384997838305 14.7962386511025  C 10.6384997838305 15.1750540423692  10.3314094249892 15.4821660181582  9.95259403372245 15.4821660181582  C 9.57377864245569 15.4821660181582  9.26666666666665 15.1750540423692  9.26666666666665 14.7962602680502  L 9.26666666666665 10.6808473843493  L 5.15127539991352 10.6808473843493  C 4.77246000864676 10.6808473843493  4.46536964980544 10.373757025508  4.46536964980544 9.99494163424124  C 4.46536964980544 9.61612624297449  4.77246000864676 9.30901426718548  5.15127539991352 9.30901426718548  L 9.26664504971899 9.30901426718548  L 9.26664504971899 5.19383916990921  C 9.26664504971899 4.81502377864246  9.57373540856031 4.50793341980112  9.95255079982707 4.50793341980112  C 10.3314094249892 4.50793341980112  10.6384781668829 4.81502377864246  10.6384781668829 5.19383916990921  L 10.6384781668829 9.30920881971466  L 14.7536316472114 9.30920881971466  C 15.1324470384782 9.30920881971466  15.4395373973195 9.61632079550367  15.4395373973195 9.99511456982275  C 15.4395373973195 10.3739083441418  15.1324470384782 10.6810635538262  14.7536316472114 10.6810635538262  Z " fill-rule="nonzero" fill="#36ab60" stroke="none" transform="matrix(1 0 0 1 386 117 )" />
  </g>
</svg>