<?xml version="1.0" encoding="utf-8"?>
<svg version="1.1" xmlns:xlink="http://www.w3.org/1999/xlink" width="357px" height="179px" xmlns="http://www.w3.org/2000/svg">
  <g transform="matrix(1 0 0 1 -57 -190 )">
    <path d="M 58 196  A 5 5 0 0 1 63 191 L 408 191  A 5 5 0 0 1 413 196 L 413 363  A 5 5 0 0 1 408 368 L 63 368  A 5 5 0 0 1 58 363 L 58 196  Z " fill-rule="nonzero" fill="#ffffff" stroke="none" />
    <path d="M 57.5 196  A 5.5 5.5 0 0 1 63 190.5 L 408 190.5  A 5.5 5.5 0 0 1 413.5 196 L 413.5 363  A 5.5 5.5 0 0 1 408 368.5 L 63 368.5  A 5.5 5.5 0 0 1 57.5 363 L 57.5 196  Z " stroke-width="1" stroke="#cccccc" fill="none" stroke-opacity="0.0980392156862745" />
  </g>
</svg>