<?xml version="1.0" encoding="utf-8"?>
<svg version="1.1" xmlns:xlink="http://www.w3.org/1999/xlink" width="19px" height="19px" xmlns="http://www.w3.org/2000/svg">
  <g transform="matrix(1 0 0 1 -675 -441 )">
    <path d="M 19 9.5  C 19 8.217833984375  18.748732421875 6.9736865234375  18.2531552734375 5.8021064453125  C 17.774611328125 4.6707900390625  17.0897021484375 3.65490234375  16.217390625 2.782609375  C 15.34509765625 1.91031640625  14.32919140625 1.225388671875  13.1978935546875 0.746863281249999  C 12.0263134765625 0.2512861328125  10.7821474609375 0  9.5 0  C 8.217833984375 0  6.9736865234375 0.2512861328125  5.8021064453125 0.7468447265625  C 4.6707900390625 1.2253701171875  3.65490234375 1.9102978515625  2.782609375 2.7825908203125  C 1.91031640625 3.6548837890625  1.225388671875 4.6707900390625  0.746863281249999 5.802087890625  C 0.2512861328125 6.9736865234375  0 8.217833984375  0 9.5  C 0 10.7821474609375  0.2512861328125 12.0263134765625  0.7468447265625 13.1978935546875  C 1.2253701171875 14.32919140625  1.9102978515625 15.3451162109375  2.7825908203125 16.217390625  C 3.6548837890625 17.0897021484375  4.6707900390625 17.774611328125  5.802087890625 18.2531552734375  C 6.9736865234375 18.748732421875  8.217833984375 19  9.5 19  C 10.7821474609375 19  12.0263134765625 18.748732421875  13.1978935546875 18.2531552734375  C 14.32919140625 17.774611328125  15.3451162109375 17.0897021484375  16.217390625 16.217390625  C 17.0897021484375 15.34509765625  17.774611328125 14.32919140625  18.2531552734375 13.1978935546875  C 18.748732421875 12.0263134765625  19 10.7821474609375  19 9.5  Z M 17.80767578125 9.5  C 17.80767578125 14.08085546875  14.08085546875 17.80767578125  9.5 17.80767578125  C 4.91914453125 17.80767578125  1.19232421875 14.08085546875  1.19232421875 9.5  C 1.19232421875 4.91914453125  4.91914453125 1.19232421875  9.5 1.19232421875  C 14.08085546875 1.19232421875  17.80767578125 4.91914453125  17.80767578125 9.5  Z " fill-rule="nonzero" fill="#515151" stroke="none" transform="matrix(1 0 0 1 675 441 )" />
  </g>
</svg>