<?xml version="1.0" encoding="utf-8"?>
<svg version="1.1" xmlns:xlink="http://www.w3.org/1999/xlink" width="17px" height="19px" xmlns="http://www.w3.org/2000/svg">
  <g transform="matrix(1 0 0 1 -546 -441 )">
    <path d="M 1.53816793652344 6.0916030625  L 1.39312976660156 14.3587786181641  C 1.39312976660156 16.0992366386719  2.69847327734375 17.5496183193359  4.43893129785156 17.5496183193359  L 12.5610687021484 17.5496183193359  C 14.1564885527344 17.5496183193359  15.6068702333984 16.0992366386719  15.6068702333984 14.3587786181641  L 15.6068702333984 6.0916030625  C 15.6068702333984 4.49618321191406  14.5916030625 3.19083970117187  13.1412213818359 2.90076336132812  C 13.2862595517578 3.48091604101562  13.2862595517578 3.91603053222656  13.2862595332031 4.06106870214844  L 13.8664122128906 4.06106870214844  L 13.8664122128906 5.22137404296875  L 3.27862595703125 5.22137404296875  L 3.27862595703125 4.06106870214844  L 3.85877861816406 4.06106870214844  C 3.85877861816406 3.91603053222656  3.85877861816406 3.48091602246094  4.00381678808594 2.90076336132812  C 2.55343510742188 3.19083970117187  1.53816793652344 4.49618321191406  1.53816793652344 6.0916030625  Z M 12.9961832119141 1.74045802050781  C 15.0267175722656 1.88549619042969  16.7671755742188 3.91603053222656  16.7671755742188 6.23664121386719  L 16.7671755742188 14.5038167880859  C 16.7671755742188 16.9694656396484  14.8816793837891 19  12.5610687021484 19  L 4.43893129785156 19  C 2.11832061621094 19  0.23282442578125 16.9694656396484  0.23282442578125 14.5038167880859  L 0.23282442578125 6.23664121386719  C 0.23282442578125 3.91603053222656  1.97328244628906 2.03053436035156  4.14885495800781 1.74045802050781  C 4.43893129785156 0.870229000976562  5.01908397753906 0  6.17938931835938 0  L 10.9656488515625 0  C 12.1259541923828 0  12.7061068720703 0.870229000976562  12.9961832119141 1.74045802050781  Z M 4.87404580761719 4.06106870214844  L 11.9809160224609 4.06106870214844  C 11.9809160224609 3.04580153125  11.6908396826172 1.16030534082031  10.8206106816406 1.16030534082031  L 6.0343511484375 1.16030534082031  C 5.16412214746094 1.16030534082031  4.87404580761719 3.19083970117187  4.87404580761719 4.06106870214844  Z " fill-rule="nonzero" fill="#515151" stroke="none" transform="matrix(1 0 0 1 546 441 )" />
  </g>
</svg>