<?xml version="1.0" encoding="utf-8"?>
<svg version="1.1" xmlns:xlink="http://www.w3.org/1999/xlink" width="357px" height="231px" xmlns="http://www.w3.org/2000/svg">
  <g transform="matrix(1 0 0 1 -532 -380 )">
    <path d="M 533 386  A 5 5 0 0 1 538 381 L 883 381  A 5 5 0 0 1 888 386 L 888 605  A 5 5 0 0 1 883 610 L 538 610  A 5 5 0 0 1 533 605 L 533 386  Z " fill-rule="nonzero" fill="#ffffff" stroke="none" />
    <path d="M 532.5 386  A 5.5 5.5 0 0 1 538 380.5 L 883 380.5  A 5.5 5.5 0 0 1 888.5 386 L 888.5 605  A 5.5 5.5 0 0 1 883 610.5 L 538 610.5  A 5.5 5.5 0 0 1 532.5 605 L 532.5 386  Z " stroke-width="1" stroke="#cccccc" fill="none" stroke-opacity="0.0980392156862745" />
  </g>
</svg>