<?xml version="1.0" encoding="utf-8"?>
<svg version="1.1" xmlns:xlink="http://www.w3.org/1999/xlink" width="1122px" height="460px" xmlns="http://www.w3.org/2000/svg">
  <g transform="matrix(1 0 0 1 -24 -65 )">
    <path d="M 25 69  A 3 3 0 0 1 28 66 L 1142 66  A 3 3 0 0 1 1145 69 L 1145 521  A 3 3 0 0 1 1142 524 L 28 524  A 3 3 0 0 1 25 521 L 25 69  Z " fill-rule="nonzero" fill="#ffffff" stroke="none" />
    <path d="M 24.5 69  A 3.5 3.5 0 0 1 28 65.5 L 1142 65.5  A 3.5 3.5 0 0 1 1145.5 69 L 1145.5 521  A 3.5 3.5 0 0 1 1142 524.5 L 28 524.5  A 3.5 3.5 0 0 1 24.5 521 L 24.5 69  Z " stroke-width="1" stroke="#cccccc" fill="none" stroke-opacity="0.298039215686275" />
  </g>
</svg>