<?xml version="1.0" encoding="utf-8"?>
<svg version="1.1" xmlns:xlink="http://www.w3.org/1999/xlink" width="1170px" height="310px" xmlns="http://www.w3.org/2000/svg">
  <g transform="matrix(1 0 0 1 0 -574 )">
    <path d="M 1 578  A 3 3 0 0 1 4 575 L 1166 575  A 3 3 0 0 1 1169 578 L 1169 880  A 3 3 0 0 1 1166 883 L 4 883  A 3 3 0 0 1 1 880 L 1 578  Z " fill-rule="nonzero" fill="#ff3399" stroke="none" fill-opacity="0.0980392156862745" />
    <path d="M 0.5 578  A 3.5 3.5 0 0 1 4 574.5 L 1166 574.5  A 3.5 3.5 0 0 1 1169.5 578 L 1169.5 880  A 3.5 3.5 0 0 1 1166 883.5 L 4 883.5  A 3.5 3.5 0 0 1 0.5 880 L 0.5 578  Z " stroke-width="1" stroke-dasharray="9,4" stroke="#ff3399" fill="none" stroke-dashoffset="0.5" />
  </g>
</svg>