<?xml version="1.0" encoding="utf-8"?>
<svg version="1.1" xmlns:xlink="http://www.w3.org/1999/xlink" width="351px" height="32px" xmlns="http://www.w3.org/2000/svg">
  <g transform="matrix(1 0 0 1 -62 -161 )">
    <path d="M 63 165  A 3 3 0 0 1 66 162 L 409 162  A 3 3 0 0 1 412 165 L 412 189  A 3 3 0 0 1 409 192 L 66 192  A 3 3 0 0 1 63 189 L 63 165  Z " fill-rule="nonzero" fill="#ffffff" stroke="none" />
    <path d="M 62.5 165  A 3.5 3.5 0 0 1 66 161.5 L 409 161.5  A 3.5 3.5 0 0 1 412.5 165 L 412.5 189  A 3.5 3.5 0 0 1 409 192.5 L 66 192.5  A 3.5 3.5 0 0 1 62.5 189 L 62.5 165  Z " stroke-width="1" stroke="#cccccc" fill="none" stroke-opacity="0.2" />
  </g>
</svg>