<?xml version="1.0" encoding="utf-8"?>
<svg version="1.1" xmlns:xlink="http://www.w3.org/1999/xlink" width="21px" height="18px" xmlns="http://www.w3.org/2000/svg">
  <g transform="matrix(1 0 0 1 -60 -20 )">
    <path d="M 6.98635477582846 2.01364522417154  C 6.98635477582846 1.36491228070175  6.43742690058479 0.81598440545809  5.73879142300195 0.81598440545809  L 1.24756335282651 0.81598440545809  C 0.548927875243665 0.81598440545809  0 1.36491228070175  0 2.01364522417154  L 0 6.50487329434698  C 0 7.20350877192983  0.548927875243665 7.75243664717349  1.24756335282651 7.75243664717349  L 5.73879142300195 7.75243664717349  C 6.4374269005848 7.75243664717349  6.98635477582846 7.20350877192982  6.98635477582846 6.50487329434698  L 6.98635477582846 2.01364522417154  Z M 5.73879142300195 1.96374269005848  C 5.78869395711501 1.96374269005848  5.78869395711501 2.01364522417154  5.78869395711501 2.01364522417154  L 5.78869395711501 6.50487329434698  C 5.78869395711501 6.55477582846004  5.73879142300195 6.55477582846004  5.73879142300195 6.55477582846004  L 1.24756335282651 6.55477582846004  C 1.19766081871345 6.55477582846004  1.19766081871345 6.50487329434698  1.19766081871345 6.50487329434698  L 1.19766081871345 2.01364522417154  C 1.19766081871345 1.96374269005848  1.24756335282651 1.96374269005848  1.24756335282651 1.96374269005848  L 5.73879142300195 1.96374269005848  Z M 6.9364522417154 12.0939571150097  C 6.9364522417154 11.44522417154  6.38752436647173 10.8962962962963  5.68888888888889 10.8962962962963  L 1.29746588693957 10.8962962962963  C 0.648732943469786 10.8962962962963  0.099805068226121 11.44522417154  0.099805068226121 12.0939571150097  L 0.099805068226121 16.5352826510721  C 0.099805068226121 17.1840155945419  0.648732943469786 17.7329434697856  1.29746588693957 17.7329434697856  L 5.73879142300195 17.7329434697856  C 6.38752436647173 17.7329434697856  6.9364522417154 17.1840155945419  6.9364522417154 16.5352826510721  L 6.9364522417154 12.0939571150097  Z M 5.73879142300195 12.0440545808967  L 5.78869395711501 12.0939571150097  L 5.78869395711501 16.5352826510721  C 5.78869395711501 16.5851851851852  5.73879142300195 16.5851851851852  5.73879142300195 16.5851851851852  L 1.29746588693957 16.5851851851852  C 1.24756335282651 16.5851851851852  1.24756335282651 16.5352826510721  1.24756335282651 16.5352826510721  L 1.24756335282651 12.0939571150097  C 1.24756335282651 12.0440545808967  1.29746588693957 12.0440545808967  1.29746588693957 12.0440545808967  L 5.73879142300195 12.0440545808967  Z M 10.4795321637427 1.36491228070175  C 10.4795321637427 1.71423001949318  10.729044834308 1.96374269005848  11.0783625730994 2.0635477582846  L 19.3122807017544 2.0635477582846  C 19.6615984405458 2.01364522417154  19.9111111111111 1.71423001949318  19.9111111111111 1.36491228070175  C 19.9111111111111 1.01559454191033  19.6615984405458 0.76608187134503  19.3122807017544 0.666276803118909  C 19.3122807017544 0.666276803118909  19.2623781676413 0.616374269005848  19.2124756335283 0.616374269005848  L 11.1282651072125 0.616374269005848  C 11.0783625730994 0.616374269005848  11.0783625730994 0.616374269005848  11.0783625730994 0.666276803118909  C 10.729044834308 0.716179337231969  10.4795321637427 1.01559454191033  10.4795321637427 1.36491228070175  Z M 10.4795321637427 6.65458089668616  C 10.4795321637427 6.95399610136452  10.729044834308 7.25341130604289  11.0284600389864 7.30331384015595  C 11.0284600389864 7.30331384015595  11.0783625730994 7.35321637426901  11.1282651072125 7.35321637426901  L 19.2623781676413 7.35321637426901  C 19.3122807017544 7.35321637426901  19.3122807017544 7.35321637426901  19.3122807017544 7.30331384015595  C 19.6615984405458 7.25341130604289  19.9111111111111 6.95399610136452  19.9111111111111 6.6046783625731  C 19.9111111111111 6.25536062378168  19.6615984405458 5.95594541910331  19.3122807017544 5.90604288499025  L 19.2623781676413 5.90604288499025  L 11.2779727095517 5.90604288499025  L 11.1781676413255 5.90604288499025  L 11.1282651072125 5.90604288499025  C 10.729044834308 6.00584795321637  10.4795321637427 6.30526315789474  10.4795321637427 6.65458089668616  Z M 10.4795321637427 11.9941520467836  C 10.4795321637427 12.293567251462  10.729044834308 12.5929824561403  11.0284600389864 12.6428849902534  C 11.0284600389864 12.6428849902534  11.0783625730994 12.6927875243665  11.1282651072125 12.6927875243665  L 19.3122807017544 12.6927875243665  C 19.7115009746589 12.6927875243665  20.0109161793372 12.343469785575  20.0109161793372 11.9941520467836  C 20.0109161793372 11.5949317738791  19.7115009746589 11.2955165692008  19.3122807017544 11.2955165692008  L 11.2280701754386 11.2955165692008  L 11.1282651072125 11.2955165692008  L 11.0783625730994 11.2955165692008  C 10.729044834308 11.3454191033138  10.4795321637427 11.6448343079922  10.4795321637427 11.9941520467836  Z M 19.9610136452242 16.7348927875244  C 19.9610136452242 16.2857699805068  19.6615984405458 15.9863547758285  19.3122807017544 15.9863547758285  C 19.3122807017544 15.9863547758285  19.2623781676413 15.9863547758285  19.3122807017544 15.9863547758285  L 11.1282651072125 15.9863547758285  C 11.0783625730994 15.9863547758285  11.0783625730994 15.9863547758285  11.0783625730994 16.0362573099415  C 10.729044834308 16.0861598440546  10.5294346978558 16.3855750487329  10.5294346978558 16.7348927875244  C 10.5294346978558 17.0842105263158  10.7789473684211 17.3337231968811  11.1282651072125 17.4335282651072  L 19.2623781676413 17.4335282651072  C 19.6615984405458 17.4335282651072  19.9610136452242 17.1341130604288  19.9610136452242 16.7348927875244  Z " fill-rule="nonzero" fill="#000000" stroke="none" transform="matrix(1 0 0 1 60 20 )" />
  </g>
</svg>