<?xml version="1.0" encoding="utf-8"?>
<svg version="1.1" xmlns:xlink="http://www.w3.org/1999/xlink" width="18px" height="17px" xmlns="http://www.w3.org/2000/svg">
  <g transform="matrix(1 0 0 1 -60 -20 )">
    <path d="M 16.142578125 12.59375  L 12.466796875 8.91796875  C 13.70703125 9.021484375  14.99609375 8.6640625  15.912109375 7.74609375  C 17.03125 6.626953125  17.419921875 5.056640625  17.080078125 3.623046875  C 17.03515625 3.4296875  16.974609375 3.23828125  16.90234375 3.052734375  C 16.8984375 3.044921875  16.896484375 3.03515625  16.892578125 3.02734375  C 16.87109375 2.958984375  16.833984375 2.896484375  16.783203125 2.845703125  L 16.751953125 2.814453125  C 16.578125 2.640625  16.296875 2.640625  16.123046875 2.814453125  L 15.40625 3.53125  C 14.990234375 3.947265625  14.302734375 3.955078125  13.892578125 3.533203125  C 13.4921875 3.123046875  13.49609375 2.458984375  13.90234375 2.052734375  L 14.607421875 1.34765625  C 14.794921875 1.16015625  14.794921875 0.859375  14.607421875 0.671875  C 14.5625 0.626953125  14.505859375 0.58984375  14.447265625 0.56640625  C 14.2421875 0.484375  14.033203125 0.41796875  13.822265625 0.3671875  C 12.388671875 0.02734375  10.81640625 0.416015625  9.69921875 1.53515625  C 8.76953125 2.46484375  8.416015625 3.775390625  8.533203125 5.03125  L 7.62890625 5.900390625  L 4.857421875 3.126953125  C 5.08203125 2.55859375  4.96484375 1.880859375  4.5078125 1.423828125  L 3.279296875 0.1953125  C 3.1875 0.103515625  3.0390625 0.103515625  2.947265625 0.1953125  L 1.041015625 2.1015625  C 0.94921875 2.193359375  0.94921875 2.341796875  1.041015625 2.43359375  L 2.26953125 3.662109375  C 2.728515625 4.12109375  3.404296875 4.236328125  3.97265625 4.01171875  L 6.724609375 6.763671875  L 1.955078125 11.349609375  C 0.81640625 12.48828125  0.81640625 14.353515625  1.955078125 15.4921875  C 3.09375 16.630859375  4.958984375 16.630859375  6.09765625 15.4921875  L 9.59765625 11.849609375  L 13.2421875 15.494140625  C 14.0390625 16.291015625  15.345703125 16.291015625  16.142578125 15.494140625  C 16.939453125 14.697265625  16.939453125 13.390625  16.142578125 12.59375  Z M 3.625 2.99609375  C 3.494140625 3.126953125  3.283203125 3.126953125  3.154296875 2.998046875  L 2.45703125 2.30078125  C 2.4375 2.28125  2.4375 2.25  2.45703125 2.23046875  L 3.078125 1.609375  C 3.09765625 1.58984375  3.12890625 1.58984375  3.1484375 1.609375  L 3.845703125 2.306640625  C 3.974609375 2.435546875  3.974609375 2.646484375  3.845703125 2.775390625  L 3.625 2.99609375  Z M 10.35546875 9.1875  L 5.212890625 14.607421875  C 4.560546875 15.259765625  3.490234375 15.259765625  2.837890625 14.607421875  C 2.185546875 13.955078125  2.185546875 12.884765625  2.837890625 12.232421875  L 8.2578125 7.08984375  L 8.884765625 6.462890625  L 8.90234375 6.4453125  L 9.876953125 5.470703125  L 9.880859375 5.466796875  L 9.873046875 5.458984375  C 9.6484375 4.4453125  9.79296875 3.205078125  10.58203125 2.41796875  C 11.181640625 1.818359375  11.9609375 1.51171875  12.74609375 1.498046875  C 12.13671875 2.39453125  12.2265625 3.6328125  13.01953125 4.42578125  C 13.8125 5.21875  15.052734375 5.310546875  15.947265625 4.69921875  C 15.93359375 5.484375  15.626953125 6.265625  15.02734375 6.86328125  C 14.240234375 7.650390625  13 7.796875  11.986328125 7.572265625  L 11.978515625 7.564453125  L 11.974609375 7.568359375  L 11 8.54296875  L 10.982421875 8.560546875  L 10.35546875 9.1875  Z M 15.259765625 13.478515625  C 15.5703125 13.7890625  15.5703125 14.298828125  15.2578125 14.609375  C 14.947265625 14.919921875  14.4375 14.919921875  14.125 14.609375  L 10.46484375 10.947265625  L 11.57421875 9.79296875  L 15.259765625 13.478515625  Z " fill-rule="nonzero" fill="#ffffff" stroke="none" transform="matrix(1 0 0 1 60 20 )" />
  </g>
</svg>