<?xml version="1.0" encoding="utf-8"?>
<svg version="1.1" xmlns:xlink="http://www.w3.org/1999/xlink" width="12px" height="12px" viewBox="319 302  12 12" xmlns="http://www.w3.org/2000/svg">
  <path d="M 325 302  C 328.36 302  331 304.64  331 308  C 331 311.36  328.36 314  325 314  C 321.64 314  319 311.36  319 308  C 319 304.64  321.64 302  325 302  Z " fill-rule="nonzero" fill="#ffffff" stroke="none" />
  <path d="M 325 302.5  C 328.08 302.5  330.5 304.92  330.5 308  C 330.5 311.08  328.08 313.5  325 313.5  C 321.92 313.5  319.5 311.08  319.5 308  C 319.5 304.92  321.92 302.5  325 302.5  Z " stroke-width="1" stroke="#797979" fill="none" />
  <path d="M 325 311  C 323.32 311  322 309.68  322 308  C 322 306.32  323.32 305  325 305  C 326.68 305  328 306.32  328 308  C 328 309.68  326.68 311  325 311  " fill-rule="nonzero" fill="#797979" stroke="none" />
</svg>