<?xml version="1.0" encoding="utf-8"?>
<svg version="1.1" xmlns:xlink="http://www.w3.org/1999/xlink" width="12px" height="12px" viewBox="319 362  12 12" xmlns="http://www.w3.org/2000/svg">
  <path d="M 325 362  C 328.36 362  331 364.64  331 368  C 331 371.36  328.36 374  325 374  C 321.64 374  319 371.36  319 368  C 319 364.64  321.64 362  325 362  Z " fill-rule="nonzero" fill="#ffffff" stroke="none" />
  <path d="M 325 362.5  C 328.08 362.5  330.5 364.92  330.5 368  C 330.5 371.08  328.08 373.5  325 373.5  C 321.92 373.5  319.5 371.08  319.5 368  C 319.5 364.92  321.92 362.5  325 362.5  Z " stroke-width="1" stroke="#797979" fill="none" />
  <path d="M 325 371  C 323.32 371  322 369.68  322 368  C 322 366.32  323.32 365  325 365  C 326.68 365  328 366.32  328 368  C 328 369.68  326.68 371  325 371  " fill-rule="nonzero" fill="#797979" stroke="none" />
</svg>