<?xml version="1.0" encoding="utf-8"?>
<svg version="1.1" xmlns:xlink="http://www.w3.org/1999/xlink" width="12px" height="12px" viewBox="294 272  12 12" xmlns="http://www.w3.org/2000/svg">
  <path d="M 300 272  C 303.36 272  306 274.64  306 278  C 306 281.36  303.36 284  300 284  C 296.64 284  294 281.36  294 278  C 294 274.64  296.64 272  300 272  Z " fill-rule="nonzero" fill="#ffffff" stroke="none" />
  <path d="M 300 272.5  C 303.08 272.5  305.5 274.92  305.5 278  C 305.5 281.08  303.08 283.5  300 283.5  C 296.92 283.5  294.5 281.08  294.5 278  C 294.5 274.92  296.92 272.5  300 272.5  Z " stroke-width="1" stroke="#797979" fill="none" />
  <path d="M 300 281  C 298.32 281  297 279.68  297 278  C 297 276.32  298.32 275  300 275  C 301.68 275  303 276.32  303 278  C 303 279.68  301.68 281  300 281  " fill-rule="nonzero" fill="#797979" stroke="none" />
</svg>