<?xml version="1.0" encoding="utf-8"?>
<svg version="1.1" xmlns:xlink="http://www.w3.org/1999/xlink" width="12px" height="12px" viewBox="319 392  12 12" xmlns="http://www.w3.org/2000/svg">
  <path d="M 325 392  C 328.36 392  331 394.64  331 398  C 331 401.36  328.36 404  325 404  C 321.64 404  319 401.36  319 398  C 319 394.64  321.64 392  325 392  Z " fill-rule="nonzero" fill="#ffffff" stroke="none" />
  <path d="M 325 392.5  C 328.08 392.5  330.5 394.92  330.5 398  C 330.5 401.08  328.08 403.5  325 403.5  C 321.92 403.5  319.5 401.08  319.5 398  C 319.5 394.92  321.92 392.5  325 392.5  Z " stroke-width="1" stroke="#797979" fill="none" />
  <path d="M 325 401  C 323.32 401  322 399.68  322 398  C 322 396.32  323.32 395  325 395  C 326.68 395  328 396.32  328 398  C 328 399.68  326.68 401  325 401  " fill-rule="nonzero" fill="#797979" stroke="none" />
</svg>