<?xml version="1.0" encoding="utf-8"?>
<svg version="1.1" xmlns:xlink="http://www.w3.org/1999/xlink" width="20px" height="20px" xmlns="http://www.w3.org/2000/svg">
  <g transform="matrix(1 0 0 1 -269 -478 )">
    <path d="M 18.6801080464143 3.86196596918393  L 18.6801080464143 16.1380340308161  C 18.6801080464143 17.5385633250904  17.5415825185466 18.6747070001902  16.1410532242724 18.6747070001902  L 3.86498516264032 18.6747070001902  C 2.46445586836603 18.6747070001902  1.32593034049842 17.5361814723226  1.32593032147611 16.1380340308161  L 1.32593032147611 3.86196596918393  C 1.32593032147611 2.4638185276774  2.46445584934372 1.32529299980979  3.86498516264032 1.32529299980979  L 16.1410532242724 1.32529299980979  C 17.5415825185466 1.32529299980979  18.6801080464143 2.4638185276774  18.6801080464143 3.86196596918393  Z M 16.1410532242724 0.260604907742049  L 3.86498516264032 0.260604907742049  C 1.87852012554686 0.260604907742049  0.263624101198388 1.87550093209057  0.263624101198388 3.86196596918393  L 0.263624101198388 16.1380340308161  C 0.263624101198388 18.1221172151417  1.87852012554686 19.739395092258  3.86498516264032 19.739395092258  L 16.1410532242724 19.739395092258  C 18.1275182613658 19.739395092258  19.7424142857143 18.1244990679095  19.7424142857143 16.1380340308161  L 19.7424142857143 3.86196596918393  C 19.7424142857143 1.87788278485829  18.1275182613658 0.260604907742049  16.1410532242724 0.260604907742049  Z M 14.154588187179 9.46884688986114  L 9.47186606429523 9.46884688986114  L 5.85145018071148 9.46884688986114  C 5.55848230930189 9.46884688986114  5.32029707057256 9.70703214761272  5.32029707057256 10  C 5.32029707057256 10.2929678523873  5.55848232832409 10.5311531101389  5.85145018071148 10.5311531101389  L 14.154588187179 10.5311531101389  C 14.4475560585886 10.5311531101389  14.6857412973179 10.2929678523873  14.6857412973179 10  C 14.6857412973179 9.70703214761272  14.4475560395663 9.46884688986114  14.154588187179 9.46884688986114  Z " fill-rule="nonzero" fill="#000000" stroke="none" transform="matrix(1 0 0 1 269 478 )" />
  </g>
</svg>