<?xml version="1.0" encoding="utf-8"?>
<svg version="1.1" xmlns:xlink="http://www.w3.org/1999/xlink" width="20px" height="20px" xmlns="http://www.w3.org/2000/svg">
  <g transform="matrix(1 0 0 1 -269 -478 )">
    <path d="M 18.6801080464143 3.86196596918393  L 18.6801080464143 16.1380340308161  C 18.6801080464143 17.5385633250904  17.5415825185466 18.6747070001902  16.1410532242724 18.6747070001902  L 3.86498516264032 18.6747070001902  C 2.46445586836603 18.6747070001902  1.32593034049842 17.5361814723226  1.32593032147611 16.1380340308161  L 1.32593032147611 3.86196596918393  C 1.32593032147611 2.4638185276774  2.46445584934372 1.32529299980979  3.86498516264032 1.32529299980979  L 16.1410532242724 1.32529299980979  C 17.5415825185466 1.32529299980979  18.6801080464143 2.4638185276774  18.6801080464143 3.86196596918393  Z M 16.1410532242724 0.260604907742049  L 3.86498516264032 0.260604907742049  C 1.87852012554686 0.260604907742049  0.263624101198388 1.87550093209057  0.263624101198388 3.86196596918393  L 0.263624101198388 16.1380340308161  C 0.263624101198388 18.1221172151417  1.87852012554686 19.739395092258  3.86498516264032 19.739395092258  L 16.1410532242724 19.739395092258  C 18.1275182613658 19.739395092258  19.7424142857143 18.1244990679095  19.7424142857143 16.1380340308161  L 19.7424142857143 3.86196596918393  C 19.7424142857143 1.87788278485829  18.1275182613658 0.260604907742049  16.1410532242724 0.260604907742049  Z M 9.47186606429523 5.86986768118697  L 9.47186606429523 10.5549716378163  L 9.47186606429523 14.1753875214  C 9.47186606429523 14.4683553928096  9.71005132204675 14.7065406315389  10.0030191934563 14.7065406505612  C 10.2959870648659 14.7065406695834  10.5341723035953 14.4683553928096  10.5341723035953 14.1753875214  L 10.5341723035953 5.86986768118697  C 10.5341723035953 5.57689980977744  10.2959870458436 5.33871457104812  10.0030191934563 5.33871455202586  C 9.71005134106906 5.33871453300361  9.47186608331754 5.57689980977744  9.47186606429523 5.86986768118697  Z " fill-rule="nonzero" fill="#000000" stroke="none" transform="matrix(1 0 0 1 269 478 )" />
  </g>
</svg>