<?xml version="1.0" encoding="utf-8"?>
<svg version="1.1" xmlns:xlink="http://www.w3.org/1999/xlink" width="12px" height="12px" viewBox="319 452  12 12" xmlns="http://www.w3.org/2000/svg">
  <path d="M 325 452  C 328.36 452  331 454.64  331 458  C 331 461.36  328.36 464  325 464  C 321.64 464  319 461.36  319 458  C 319 454.64  321.64 452  325 452  Z " fill-rule="nonzero" fill="#ffffff" stroke="none" />
  <path d="M 325 452.5  C 328.08 452.5  330.5 454.92  330.5 458  C 330.5 461.08  328.08 463.5  325 463.5  C 321.92 463.5  319.5 461.08  319.5 458  C 319.5 454.92  321.92 452.5  325 452.5  Z " stroke-width="1" stroke="#797979" fill="none" />
  <path d="M 325 461  C 323.32 461  322 459.68  322 458  C 322 456.32  323.32 455  325 455  C 326.68 455  328 456.32  328 458  C 328 459.68  326.68 461  325 461  " fill-rule="nonzero" fill="#797979" stroke="none" />
</svg>