<?xml version="1.0" encoding="utf-8"?>
<svg version="1.1" xmlns:xlink="http://www.w3.org/1999/xlink" width="863px" height="728px" xmlns="http://www.w3.org/2000/svg">
  <g transform="matrix(1 0 0 1 -250 -678 )">
    <path d="M 251 682  A 3 3 0 0 1 254 679 L 1109 679  A 3 3 0 0 1 1112 682 L 1112 1402  A 3 3 0 0 1 1109 1405 L 254 1405  A 3 3 0 0 1 251 1402 L 251 682  Z " fill-rule="nonzero" fill="#ff3399" stroke="none" fill-opacity="0.0980392156862745" />
    <path d="M 250.5 682  A 3.5 3.5 0 0 1 254 678.5 L 1109 678.5  A 3.5 3.5 0 0 1 1112.5 682 L 1112.5 1402  A 3.5 3.5 0 0 1 1109 1405.5 L 254 1405.5  A 3.5 3.5 0 0 1 250.5 1402 L 250.5 682  Z " stroke-width="1" stroke-dasharray="9,4" stroke="#ff3399" fill="none" stroke-dashoffset="0.5" />
  </g>
</svg>