<?xml version="1.0" encoding="utf-8"?>
<svg version="1.1" xmlns:xlink="http://www.w3.org/1999/xlink" width="1170px" height="746px" xmlns="http://www.w3.org/2000/svg">
  <g transform="matrix(1 0 0 1 -245 -715 )">
    <path d="M 246 719  A 3 3 0 0 1 249 716 L 1411 716  A 3 3 0 0 1 1414 719 L 1414 1457  A 3 3 0 0 1 1411 1460 L 249 1460  A 3 3 0 0 1 246 1457 L 246 719  Z " fill-rule="nonzero" fill="#ff3399" stroke="none" fill-opacity="0.0980392156862745" />
    <path d="M 245.5 719  A 3.5 3.5 0 0 1 249 715.5 L 1411 715.5  A 3.5 3.5 0 0 1 1414.5 719 L 1414.5 1457  A 3.5 3.5 0 0 1 1411 1460.5 L 249 1460.5  A 3.5 3.5 0 0 1 245.5 1457 L 245.5 719  Z " stroke-width="1" stroke-dasharray="9,4" stroke="#ff3399" fill="none" stroke-dashoffset="0.5" />
  </g>
</svg>