<?xml version="1.0" encoding="utf-8"?>
<svg version="1.1" xmlns:xlink="http://www.w3.org/1999/xlink" width="1170px" height="476px" xmlns="http://www.w3.org/2000/svg">
  <g transform="matrix(1 0 0 1 -245 -944 )">
    <path d="M 246 948  A 3 3 0 0 1 249 945 L 1411 945  A 3 3 0 0 1 1414 948 L 1414 1416  A 3 3 0 0 1 1411 1419 L 249 1419  A 3 3 0 0 1 246 1416 L 246 948  Z " fill-rule="nonzero" fill="#ff3399" stroke="none" fill-opacity="0.0980392156862745" />
    <path d="M 245.5 948  A 3.5 3.5 0 0 1 249 944.5 L 1411 944.5  A 3.5 3.5 0 0 1 1414.5 948 L 1414.5 1416  A 3.5 3.5 0 0 1 1411 1419.5 L 249 1419.5  A 3.5 3.5 0 0 1 245.5 1416 L 245.5 948  Z " stroke-width="1" stroke-dasharray="9,4" stroke="#ff3399" fill="none" stroke-dashoffset="0.5" />
  </g>
</svg>