<?xml version="1.0" encoding="utf-8"?>
<svg version="1.1" xmlns:xlink="http://www.w3.org/1999/xlink" width="16px" height="15px" xmlns="http://www.w3.org/2000/svg">
  <g transform="matrix(1 0 0 1 -103 -721 )">
    <path d="M 14.041666671875 14.1880010094202  C 14.0413333382863 14.1880010094202  14.0410000047844 14.1880006729467  14.040666671875 14  L 1.960666671875 14  L 1.960666671875 14.188  C 1.6871016243539 14.188  1.4653333359375 13.9662317115836  1.4653333359375 13.6926666640625  C 1.4653333359375 13.4191016165414  1.68710162435391 13.197333328125  1.960666671875 13.197333328125  C 1.960666671875 13.197333328125  1.960666671875 13.197333328125  1.960666671875 13  L 14.042666671875 13  C 14.3158412772267 13.1978848246336  14.5370010172327 13.4194915020191  14.5370010172327 13.6926666640625  C 14.5370010172327 13.966232269071  14.3152322768835 14.1880010094202  14.041666671875 14.1880010094202  Z M 1.960666671875 13.422666671875  C 1.81295755718138 13.4233961100932  1.69339611009316 13.5429575571814  1.692666671875 13.690666671875  C 1.692666671875 13.83733334375  1.814666671875 13.95933334375  1.961333328125 14  L 14.042666671875 14  C 14.1908951137178 13.9589668750219  14.3109668750219 13.8388951137178  14.311333328125 13.690666671875  C 14.3098823905522 13.5430000442576  14.1903364485157 13.4237507376523  14.042666671875 13.422666671875  L 1.961333328125 13.422666671875  Z M 15.018 0.343333328125  L 0.984666671875 0.343333328125  C 0.45 0.343333328125  0.013333328125 0.78  0.013333328125 1.316666671875  L 0.013333328125 10.509333328125  C 0.0137004742098886 11.0461099248542  0.448557109296646 11.4812648178507  0.985333328125 11.482  L 15.018 11.482  C 15.552666671875 11.482  15.990666671875 11.046  15.990666671875 10.509333328125  L 15.990666671875 1.316  C 15.9884723403902 0.779462614623386  15.5538720910534 0.345160039012681  15.017333328125 0.343333328125  Z M 14.995333328125 1.336666671875  L 14.995333328125 10.488666671875  L 1.008 10.488666671875  L 1.008 1.336666671875  L 14.994666671875 1.336666671875  Z M 14.040666671875 13.308666671875  L 14.042 13.308666671875  C 14.2446443597041 13.3201000483179  14.403110557908 13.4877590751949  14.403110557908 13.6907257192938  C 14.403110557908 13.8929192561912  14.2458100811079 14.0602200849402  14.044 14  L 1.960666671875 14  C 1.75844816089239 14.0607144211985  1.60057834723555 13.8932380975013  1.60057834723555 13.690666671875  C 1.60057834723555 13.4880952462487  1.75844816089239 13.3206189225515  1.960666671875 13.308666671875  L 14.040666671875 13.308666671875  Z " fill-rule="nonzero" fill="#8a8a8a" stroke="none" transform="matrix(1 0 0 1 103 721 )" />
  </g>
</svg>