<?xml version="1.0" encoding="utf-8"?>
<svg version="1.1" xmlns:xlink="http://www.w3.org/1999/xlink" width="20px" height="20px" xmlns="http://www.w3.org/2000/svg">
  <g transform="matrix(1 0 0 1 -225 -719 )">
    <path d="M 20 15.29015328125  C 19.9579584960938 15.805563828125  19.8509710351562 15.9125113085938  19.33558046875 15.9125113085938  L 14.9789742578125 15.9125113085938  L 7.51051787109375 15.9125113085938  L 6.88811986328125 15.9125113085938  L 6.2657418359375 15.9125113085938  L 3.813964140625 18.7508669140625  C 3.64499869140625 18.91985234375  3.41161693359375 19.0244014648437  3.15391166015625 19.0244014648437  C 3.15027412109375 19.0244014648437  3.1466366015625 19.0231623046875  3.14237947265625 19.0231623046875  C 2.8895508984375 19.0201443554687  2.66040625 18.9174140039062  2.49387916015625 18.7508669140625  C 2.490221640625 18.747229375  2.48718369140625 18.7423726757813  2.483526171875 18.7387751171875  C 2.44583173828125 18.6992419140625  2.40997603515625 18.657929921875  2.379596640625 18.6129404296875  C 2.3674448828125 18.5946927929688  2.359550234375 18.5746463867188  2.34859765625 18.5557991796875  C 2.3297704296875 18.5224018164063  2.309084453125 18.490183671875  2.2939147265625 18.45432796875  C 2.28661966796875 18.43727953125  2.28356173828125 18.4184522851563  2.277505859375 18.401443828125  C 2.2629357421875 18.3613110351563  2.2477260546875 18.3211982421875  2.23921181640625 18.2786470898438  C 2.22706005859375 18.2184878710938  2.22036458984375 18.1552907226563  2.22036458984375 18.0908544140625  L 1.9091555859375 15.9125512890625  L 1.28677755859375 15.9125512890625  C 0.7713869921875 15.9125512890625  0.0420614843749999 15.8055838085938  0 15.2901732617187  L 0 1.90914560546875  C 0.042061484375 1.3937550390625  0.46021796875 0.9755985546875  0.97560853515625 1  L 19.0244114453125 1  C 19.5398219921875 0.9755985546875  19.9579784960937 1.3937550390625  20 1.90914560546875  L 20 15.29015328125  Z M 7.1993288671875 8.7552439453125  C 7.19932884765625 7.7238232421875  6.36363544921875 6.88814984375  5.332214765625 6.88814984375  C 4.30083404296875 6.88814984375  3.4651006640625 7.7238432421875  3.4651006640625 8.7552439453125  C 3.4651006640625 9.7866646484375  4.30081404296875 10.6223980078125  5.332214765625 10.6223980078125  C 6.36363546875 10.6223980078125  7.1993288671875 9.78668462890625  7.1993288671875 8.7552439453125  Z M 11.8671241015625 8.7552439453125  C 11.8671240820312 7.7238232421875  11.031410703125 6.88814984375  10.00001 6.88814984375  C 8.96862927734375 6.88814984375  8.1328958984375 7.7238432421875  8.1328958984375 8.7552439453125  C 8.1328958984375 9.7866646484375  8.96860927734375 10.6223980078125  10.00001 10.6223980078125  C 11.031410703125 10.6223980078125  11.8671241015625 9.78668462890625  11.8671241015625 8.7552439453125  Z M 16.5348993359375 8.7552439453125  C 16.5348993359375 7.7238232421875  15.6992059375 6.88814984375  14.667785234375 6.88814984375  C 13.6364045117187 6.88814984375  12.8006711328125 7.7238432421875  12.8006711328125 8.7552439453125  C 12.8006711328125 9.7866646484375  13.63636453125 10.6223980078125  14.667785234375 10.6223980078125  C 15.6992059375 10.6223980078125  16.5348993359375 9.78668462890625  16.5348993359375 8.7552439453125  Z " fill-rule="nonzero" fill="#00cc00" stroke="none" transform="matrix(1 0 0 1 225 719 )" />
  </g>
</svg>