<?xml version="1.0" encoding="utf-8"?>
<svg version="1.1" xmlns:xlink="http://www.w3.org/1999/xlink" width="12px" height="7px" xmlns="http://www.w3.org/2000/svg">
  <g transform="matrix(1 0 0 1 -105 -723 )">
    <path d="M 11.089333328125 0.880666671874998  C 11.224 0.880666671874998  10.829333328125 0.907333343749998  10.726 0.992666671875  L 7.278 4.797333328125  L 3.524666671875 2.38  C 3.33124868890428 2.28046506097228  3.09560785876111 2.31798404978195  2.942666671875 2.472666671875  L 0.601333328125 5.272666671875  C 0.510670879853573 5.36503155829621  0.459877959354633 5.48928785243951  0.459877959354633 5.61871332045169  C 0.459877959354633 5.8915419868681  0.681049292938221 6.11271332045169  0.953877959354633 6.11271332045169  C 0.956140943663766 6.11271332045169  0.958403901260193 6.11269777055903  0.960666671875 6.112666671875  C 1.094666671875 6.112666671875  1.220666671875 6.05933334375  1.314 5.964  L 3.402666671875 3.432666671875  L 7.125333328125 5.838  C 7.30249943271416 5.92744639199533  7.51564298813318 5.9047493428593  7.67 5.78  L 11.366 1.752  C 11.4759307165879 1.65764416922435  11.5391844219086 1.51999362967822  11.5391844219086 1.37512201323492  C 11.5391844219086 1.11895646842258  11.3443583359973 0.904812721422077  11.089333328125 0.880666671874998  Z " fill-rule="nonzero" fill="#8a8a8a" stroke="none" transform="matrix(1 0 0 1 105 723 )" />
  </g>
</svg>