<?xml version="1.0" encoding="utf-8"?>
<svg version="1.1" xmlns:xlink="http://www.w3.org/1999/xlink" width="357px" height="199px" xmlns="http://www.w3.org/2000/svg">
  <g transform="matrix(1 0 0 1 -532 -378 )">
    <path d="M 533 384  A 5 5 0 0 1 538 379 L 883 379  A 5 5 0 0 1 888 384 L 888 571  A 5 5 0 0 1 883 576 L 538 576  A 5 5 0 0 1 533 571 L 533 384  Z " fill-rule="nonzero" fill="#ffffff" stroke="none" />
    <path d="M 532.5 384  A 5.5 5.5 0 0 1 538 378.5 L 883 378.5  A 5.5 5.5 0 0 1 888.5 384 L 888.5 571  A 5.5 5.5 0 0 1 883 576.5 L 538 576.5  A 5.5 5.5 0 0 1 532.5 571 L 532.5 384  Z " stroke-width="1" stroke="#cccccc" fill="none" stroke-opacity="0.0980392156862745" />
  </g>
</svg>