<?xml version="1.0" encoding="utf-8"?>
<svg version="1.1" xmlns:xlink="http://www.w3.org/1999/xlink" width="213px" height="198px" xmlns="http://www.w3.org/2000/svg">
  <g transform="matrix(1 0 0 1 -695 -559 )">
    <path d="M 696 563  A 3 3 0 0 1 699 560 L 904 560  A 3 3 0 0 1 907 563 L 907 753  A 3 3 0 0 1 904 756 L 699 756  A 3 3 0 0 1 696 753 L 696 563  Z " fill-rule="nonzero" fill="#ff3399" stroke="none" fill-opacity="0.0980392156862745" />
    <path d="M 695.5 563  A 3.5 3.5 0 0 1 699 559.5 L 904 559.5  A 3.5 3.5 0 0 1 907.5 563 L 907.5 753  A 3.5 3.5 0 0 1 904 756.5 L 699 756.5  A 3.5 3.5 0 0 1 695.5 753 L 695.5 563  Z " stroke-width="1" stroke-dasharray="9,4" stroke="#ff3399" fill="none" stroke-dashoffset="0.5" />
  </g>
</svg>