<?xml version="1.0" encoding="utf-8"?>
<svg version="1.1" xmlns:xlink="http://www.w3.org/1999/xlink" width="40px" height="40px" xmlns="http://www.w3.org/2000/svg">
  <g transform="matrix(1 0 0 1 -372 -186 )">
    <path d="M 40 40  L 39.9333333203125 0  L 0 0  L 40 40  Z M 29 13.3333333203125  C 29.2 12.666666640625  29.2666666796875 12  29.2 11.4  C 29.5333333203125 11.4666666796875  29.8 11.4666666796875  30 11.4666666796875  C 30 12.2  29.9333333203125 12.8  29.8 13.4  C 29.6 13.4  29.3333333203125 13.3333333203125  29 13.3333333203125  Z M 21.0666666796875 8.6666666796875  C 20.8 9.933333359375  20.6666666796875 11.133333359375  20.7333333203125 12.2666666796875  C 20.8 13.4  21.2 14.6666666796875  22 16.0666666796875  C 21.4666666796875 15.8666666796875  20.9333333203125 15.933333359375  20.4 16.2  C 19.9333333203125 15.2  19.6666666796875 14.0666666796875  19.5333333203125 12.8666666796875  C 19.466666640625 11.6666666796875  19.6 10.2666666796875  20.0666666796875 8.7333333203125  L 17.1333333203125 11.6666666796875  C 16.6 12.2  16.1333333203125 12.6666666796875  15.7333333203125 13.1333333203125  L 14.8 12.2  C 15.2666666796875 11.8  15.8 11.3333333203125  16.3333333203125 10.8  L 19.3333333203125 7.7333333203125  C 17.6 8.1333333203125  16.1333333203125 8.3333333203125  14.9333333203125 8.2  C 13.7333333203125 8.1333333203125  12.7333333203125 8  11.9333333203125 7.8  C 12.066666640625 7.4666666796875  12.066666640625 6.9333333203125  11.9333333203125 6.3333333203125  C 12.6 6.666666640625  13.5333333203125 6.866666640625  14.9333333203125 7  C 16.266666640625 7.1333333203125  17.666666640625 7  19.1333333203125 6.6666666796875  L 16.9333333203125 4.6666666796875  C 16.3333333203125 4  15.866666640625 3.6  15.5333333203125 3.2666666796875  L 16.2666666796875 2.5333333203125  C 16.6666666796875 2.9333333203125  17.133333359375 3.466666640625  17.7333333203125 4.0666666796875  L 20.4 6.7333333203125  L 22 5.0666666796875  L 20.2666666796875 3.3333333203125  C 19.6 2.666666640625  19.0666666796875 2.1333333203125  18.6 1.7333333203125  L 19.3333333203125 1  C 19.7333333203125 1.4666666796875  20.2 2  21 2.6  L 22.8 4.4  C 23.4666666796875 3.6  24.0666666796875 2.9333333203125  24.4 2.6  L 25.3333333203125 3.4666666796875  C 25 3.8  24.3333333203125 4.333333359375  23.5333333203125 5.2  L 25.3333333203125 7  C 25.866666640625 7.5333333203125  26.4 8  26.8666666796875 8.4666666796875  L 26.1333333203125 9.2  C 25.666666640625 8.7333333203125  25.2 8.2  24.6666666796875 7.6666666796875  L 22.8666666796875 5.8666666796875  L 21.2 7.5333333203125  L 23.6666666796875 10  C 24.2666666796875 10.6  24.8666666796875 11.1333333203125  25.4 11.6666666796875  L 24.6666666796875 12.4  C 24.2 11.8666666796875  23.6 11.2666666796875  23.0666666796875 10.6666666796875  L 21.0666666796875 8.6666666796875  Z M 24.6 19.6  C 24.0666666796875 19.6666666796875  23.5333333203125 19.6666666796875  23.1333333203125 19.7333333203125  C 23.2 19.4  23.2 18.9333333203125  23.1333333203125 18.4666666796875  C 23.6 18.533333359375  23.9333333203125 18.4666666796875  24.2666666796875 18.2666666796875  L 28.3333333203125 14.2  C 28 13.8666666796875  27.5333333203125 13.4666666796875  26.9333333203125 12.9333333203125  L 27.6666666796875 12.2  C 28.2 12.8  28.6666666796875 13.2666666796875  29 13.6  L 29.7333333203125 14.3333333203125  C 29.266666640625 14.8  28.7333333203125 15.266666640625  28.1333333203125 15.8  L 25.4 18.5333333203125  C 25.8666666796875 18.5333333203125  26.4 18.466666640625  26.9333333203125 18.4  C 26.8 18.7333333203125  26.666666640625 19.0666666796875  26.6666666796875 19.5333333203125  C 25.8666666796875 19.5333333203125  25.2 19.5333333203125  24.6 19.6  Z M 29.8666666796875 17.2666666796875  C 30.133333359375 18.2666666796875  30.2 19.133333359375  30.4 19.8666666796875  C 30.0666666796875 19.933333359375  29.6666666796875 20  29.2666666796875 20.0666666796875  C 29.0666666796875 18.8666666796875  28.8666666796875 18  28.7333333203125 17.5333333203125  C 29.066666640625 17.466666640625  29.5333333203125 17.4  29.8666666796875 17.2666666796875  Z M 31.2 27.3333333203125  C 30.8 27.466666640625  30.4 27.466666640625  30 27.5333333203125  C 30 26.5333333203125  29.8 25.4  29.4 23.9333333203125  C 29.8666666796875 23.866666640625  30.2 23.8  30.4666666796875 23.6666666796875  C 30.8666666796875 25.4  31.0666666796875 26.6  31.2 27.3333333203125  Z M 31.3333333203125 22.4666666796875  L 32.2666666796875 23.3333333203125  C 32.8666666796875 23.9333333203125  33.4 24.466666640625  34 25  L 33.2666666796875 25.7333333203125  C 32.8 25.2  32.2 24.6  31.6666666796875 24  L 30.5333333203125 22.8666666796875  C 29.7333333203125 23.2  29 23.333333359375  28.3333333203125 23.3333333203125  C 27.666666640625 23.33333328125  27 23.2  26.4 23  C 25.8 22.8  25.2666666796875 22.6  24.8666666796875 22.4  C 24.933333359375 22  24.933333359375 21.6  25 21.2  C 25.8666666796875 21.8  26.7333333203125 22.1333333203125  27.6666666796875 22.2666666796875  C 28.533333359375 22.4  29.2666666796875 22.333333359375  29.8 22.0666666796875  L 28.7333333203125 21  C 28.2 20.4666666796875  27.666666640625 19.9333333203125  27 19.4  L 27.7333333203125 18.6666666796875  C 28.2 19.2  28.7333333203125 19.733333359375  29.3333333203125 20.4  L 30.6 21.6666666796875  C 31.0666666796875 21.2666666796875  31.6 20.8666666796875  32.2 20.4  C 32.7333333203125 19.9333333203125  33.2 19.5333333203125  33.6 19.1333333203125  C 33.7333333203125 19.466666640625  34 19.8  34.3333333203125 20.2  C 33.9333333203125 20.4  33.466666640625 20.7333333203125  33 21.2  C 32.4666666796875 21.6  31.9333333203125 22.0666666796875  31.3333333203125 22.4666666796875  Z M 31.1333333203125 19.6666666796875  C 31.066666640625 18.6666666796875  30.866666640625 17.8  30.6666666796875 17.0666666796875  C 31 17  31.333333359375 16.933333359375  31.6666666796875 16.8  C 31.933333359375 18  32.133333359375 18.9333333203125  32.2666666796875 19.4666666796875  C 31.933333359375 19.533333359375  31.533333359375 19.6  31.1333333203125 19.6666666796875  Z M 38.8666666796875 19.2666666796875  L 38.0666666796875 20.0666666796875  C 37.6666666796875 19.6  36.8666666796875 18.733333359375  35.6 17.5333333203125  L 34.7333333203125 18.4  L 37.5333333203125 21.2  C 36.2 21.7333333203125  35.266666640625 22.1333333203125  34.8 22.3333333203125  C 34.6666666796875 22.066666640625  34.5333333203125 21.7333333203125  34.4 21.3333333203125  C 35.0666666796875 21.066666640625  35.5333333203125 20.866666640625  35.8666666796875 20.7333333203125  L 32.4666666796875 17.3333333203125  C 31.8666666796875 16.7333333203125  31.2666666796875 16.2  30.6666666796875 15.6  L 31.4 14.8666666796875  C 31.9333333203125 15.4666666796875  32.8666666796875 16.4  34.0666666796875 17.6  L 34.9333333203125 16.7333333203125  C 33.9333333203125 15.7333333203125  33.1333333203125 14.9333333203125  32.5333333203125 14.4  L 33.2666666796875 13.6666666796875  C 33.6666666796875 14.133333359375  34.4666666796875 14.933333359375  35.6 16.0666666796875  C 36 15.6666666796875  36.3333333203125 15.2666666796875  36.6666666796875 14.9333333203125  L 37.4666666796875 15.7333333203125  C 37 16.1333333203125  36.6 16.5333333203125  36.3333333203125 16.8  C 37.466666640625 17.9333333203125  38.3333333203125 18.8  38.8666666796875 19.2666666796875  Z " fill-rule="nonzero" fill="#8cd79a" stroke="none" transform="matrix(1 0 0 1 372 186 )" />
  </g>
</svg>