<?xml version="1.0" encoding="utf-8"?>
<svg version="1.1" xmlns:xlink="http://www.w3.org/1999/xlink" width="16px" height="13px" xmlns="http://www.w3.org/2000/svg">
  <g transform="matrix(1 0 0 1 -2740 -414 )">
    <path d="M 16 1.18181818181824  C 16 0.528863636363667  15.4492307692308 0  14.7692307692307 0  L 1.23076923076928 0  C 0.55076923076922 0  0 0.528863636363667  0 1.18181818181824  L 0 11.8181818181818  C 0 12.4711363636363  0.55076923076922 13  1.23076923076928 13  L 14.7692307692307 13  C 15.4492307692308 13  16 12.4711363636363  16 11.8181818181818  L 16 1.18181818181824  Z M 14.7692307692307 1.18181818181824  L 14.7692307692307 2.9545454545455  L 12.9230769230769 2.9545454545455  L 12.9230769230769 1.18181818181824  L 14.7692307692307 1.18181818181824  Z M 14.7692307692307 4.13636363636374  L 14.7692307692307 5.90909090909099  L 12.9230769230769 5.90909090909099  L 12.9230769230769 4.13636363636374  L 14.7692307692307 4.13636363636374  Z M 12.3076923076923 6.79545454545451  C 12.3076923076923 6.9585454545454  12.1698461538462 7.09090909090901  12 7.09090909090901  L 4 7.09090909090901  C 3.83015384615385 7.09090909090901  3.69230769230774 6.9585454545454  3.69230769230774 6.79545454545451  C 3.69230769230774 6.63236363636361  3.83015384615385 6.5  4 6.5  L 12 6.5  C 12.1698461538462 6.5  12.3076923076923 6.63236363636361  12.3076923076923 6.79545454545451  Z M 14.7692307692307 7.09090909090901  L 14.7692307692307 8.86363636363626  L 12.9230769230769 8.86363636363626  L 12.9230769230769 7.09090909090901  L 14.7692307692307 7.09090909090901  Z M 14.7692307692307 10.0454545454545  L 14.7692307692307 11.8181818181818  L 12.9230769230769 11.8181818181818  L 12.9230769230769 10.0454545454545  L 14.7692307692307 10.0454545454545  Z M 3.07692307692309 1.18181818181824  L 3.07692307692309 2.9545454545455  L 1.23076923076928 2.9545454545455  L 1.23076923076928 1.18181818181824  L 3.07692307692309 1.18181818181824  Z M 3.07692307692309 4.13636363636374  L 3.07692307692309 5.90909090909099  L 1.23076923076928 5.90909090909099  L 1.23076923076928 4.13636363636374  L 3.07692307692309 4.13636363636374  Z M 3.07692307692309 7.09090909090901  L 3.07692307692309 8.86363636363626  L 1.23076923076928 8.86363636363626  L 1.23076923076928 7.09090909090901  L 3.07692307692309 7.09090909090901  Z M 3.07692307692309 10.0454545454545  L 3.07692307692309 11.8181818181818  L 1.23076923076928 11.8181818181818  L 1.23076923076928 10.0454545454545  L 3.07692307692309 10.0454545454545  Z " fill-rule="nonzero" fill="#d7d7d7" stroke="none" transform="matrix(1 0 0 1 2740 414 )" />
  </g>
</svg>