<?xml version="1.0" encoding="utf-8"?>
<svg version="1.1" xmlns:xlink="http://www.w3.org/1999/xlink" width="17px" height="23px" xmlns="http://www.w3.org/2000/svg">
  <g transform="matrix(1 0 0 1 -2666 -375 )">
    <path d="M 15.9020446302434 4.67806878439592  C 15.9020717808307 3.58164808347317  15.01367860151 2.69328205473994  13.9172035994129 3  L 2.00807596308732 3  C 0.911655262164459 2.69328205453019  0.0232077818791367 3.58164808326342  0.0232077818791367 4.67806878439592  L 0.0232077818791367 5.33967341128357  L 15.9020446302434 5.33967341128357  L 15.9020446302434 4.67806878439592  Z M 10.4501868389261 1.37009995176174  L 10.7422181654783 3.45824882906879  L 5.1830613970219 3.45824882906879  L 5.47509272378375 1.37009995176174  L 10.4501596885489 1.37009995176174  Z M 11.738534785025 1.02960489177849  C 11.6628933498323 0.488847367659446  11.1550694437919 0.0469178487835507  10.6091261644297 0.0469178487835507  L 5.31618054844785 0.0469178487835507  C 4.77023726908556 0.0469178487835507  4.26238621245784 0.488847367449694  4.18614746539424 1.0302565048238  L 3.79911636094812 3.79874388905205  C 3.72352922692971 4.33950141317109  4.10863264240788 4.78143093204699  4.65457592177017 4.78143093204699  L 11.2707579419043 4.78143093204699  C 11.8167012212666 4.78143093204699  12.2018317873321 4.33952856396809  12.1255658892619 3.79811942638423  L 11.738534785025 1.02960489177849  Z M 15.4517527416106 7.98082471098996  C 15.5176199783978 7.25593214995808  14.975532077181 6.66282836304526  14.2480059127515 7  L 1.67724649937099 7  C 0.949747485528405 6.66282836325502  0.407659584102475 7.25593214953858  0.473553971266938 7.98082471098996  L 1.55775692428688 19.8998079972735  C 1.62299969840615 20.6247277088926  2.27301103984883 21.2178043452182  3.00053720427832 21.2178043447987  L 12.9247966591861 21.2178043447987  C 13.6522956730287 21.2178043447987  14.302307014681 20.6247005585151  14.367576939178 19.8998079972735  L 15.4517527416106 7.98082471098996  Z M 5.31618054844785 18.5714401388423  L 3.33131236724012 18.5714401388423  L 2.66968058997463 9.3092197200084  L 5.31615339807058 9.3092197200084  L 5.31615339807058 18.5714672894295  Z M 9.28588976069614 18.5714401388423  L 6.63941695260064 18.5714401388423  L 6.63941695260064 9.3092197200084  L 9.28588976069614 9.3092197200084  L 9.28588976069614 18.5714672894295  Z M 12.5939671952601 18.5714401388423  L 10.6090990138423 18.5714401388423  L 10.6090990138423 9.3092197200084  L 13.2555718221474 9.3092197200084  L 12.5939671952601 18.5714672894295  Z " fill-rule="nonzero" fill="#d81e06" stroke="none" transform="matrix(1 0 0 1 2666 375 )" />
  </g>
</svg>