<?xml version="1.0" encoding="utf-8"?>
<svg version="1.1" xmlns:xlink="http://www.w3.org/1999/xlink" width="21px" height="16px" xmlns="http://www.w3.org/2000/svg">
  <g transform="matrix(1 0 0 1 -60 -23 )">
    <path d="M 9.53982541015625 15.4692266210937  C 9.53982541015625 15.7518304101563  9.29113408203125 15.9996521875  9.0076607421875 15.9996521875  C 8.71712148843017 15.9932460616587  8.48285320144995 15.7597433493358  8.47549609375 15.4692266210938  L 8.47549609375 5.67287525390625  C 8.47549609375 5.3894019140625  8.724187421875 5.1424496875  9.0076607421875 5.1424496875  C 9.2911340625 5.1424496875  9.539825390625 5.3894019140625  9.53982541015625 5.67287525390625  L 9.53982541015625 15.4692266210937  Z M 1.06432064453125 10.37627171875  C 1.06432064453125 10.6597450585937  0.8164988671875 10.9066972851563  0.53302552734375 10.906697265625  C 0.242486280948198 10.9002911402103  0.00821799685275498 10.6667884393608  0.000860878906250029 10.37627171875  L 0.000860878906250029 1.1459974609375  C 0.000860878906250029 0.862524121093751  0.24868265625 0.61557189453125  0.53302552734375 0.61557189453125  C 0.8164988671875 0.61557189453125  1.06432064453125 0.862524121093751  1.06432064453125 1.1459974609375  L 1.06432064453125 10.37627171875  Z M 7.447687890625 7.90066259765625  C 7.35024148974417 8.06059100135191  7.1739771208063 8.15537466904508  6.986826328125 8.148484375  C 6.87987166015625 8.148484375  6.80943810546875 8.11370236328125  6.70248345703125 8.07718126953125  L 2.7312481640625 5.77896037109375  C 2.56702212899717 5.68746852664133  2.46521899666989 5.51421756244116  2.46521899666989 5.32622567912013  C 2.46521899666989 5.22293068971109  2.49608649046546 5.12199217420421  2.55385994140625 5.03636458984375  C 2.64629293398889 4.87217171850341  2.82007610708634 4.77057525000622  3.00849892183224 4.77057525000622  C 3.11197753877507 4.77057525000622  3.21311901149244 4.80134635195279  3.299064375 4.8589763671875  L 7.27029966796875 7.15806681640625  C 7.43452570303409 7.24955866085867  7.53632883536136 7.42280962505884  7.53632883536136 7.61080150837987  C 7.53632883536136 7.71409649778892  7.50546134156579 7.8150350132958  7.447687890625 7.90066259765625  Z M 17.022303984375 13.4179579492187  C 16.9153493164063 13.4527399609375  16.80926421875 13.4883915039062  16.70230953125 13.4883915039063  C 16.4767631404922 13.4886269763019  16.2602270484801 13.3998877969014  16.099711328125 13.2414392773438  C 15.9223231054687 13.0640510546875  15.6040677734375 12.817098828125  15.42581 12.817098828125  C 15.2484217773438 12.817098828125  14.8945148828125 13.0640510546875  14.7527782226563 13.2414392773438  C 14.6101720117188 13.4179579492187  14.362350234375 13.4883915039063  14.14931046875 13.4883915039063  C 14.0432253515625 13.4883915039063  13.9371402539063 13.4536094921875  13.8301855859375 13.4179579492188  L 13.7954035742188 13.4179579492188  L 12.7310742578125 12.817098828125  L 12.6962922460937 12.817098828125  C 12.4119493554687 12.6040590625  12.2702126953125 12.21537015625  12.4476009179688 11.86146328125  C 12.4823829296875 11.8266812695313  12.5180344726563 11.684944609375  12.5180344921875 11.5432079492188  C 12.5180887771938 11.5393994291902  12.5181159207308 11.5355905706629  12.5181159207308 11.5317816637764  C 12.5181159207308 11.0890010648502  12.1591713243445 10.7300564684639  11.7163907254183 10.7300564684639  C 11.7117257183906 10.7300564684639  11.7070608002086 10.7300971849538  11.7023965039063 10.7301786132813  L 11.6676144921875 10.7301786132813  C 11.348489609375 10.7301786132813  11.09979828125 10.4823568359375  11.0293647265625 10.0936679296875  C 11.0293647265625 10.0936679296875  10.9224100585937 9.598024375  10.9224100585937 9.20933548828125  C 10.9224100585937 8.8206466015625  11.0293647265625 8.325003046875  11.0293647265625 8.325003046875  C 11.09979828125 7.97109615234375  11.348489609375 7.6884923828125  11.6676144921875 7.6884923828125  L 11.7023965039063 7.6884923828125  C 12.163258046875 7.6884923828125  12.5180344921875 7.33458548828125  12.5180344921875 6.87546302734375  C 12.5180344921875 6.76937791015625  12.4476009375 6.62764125  12.4476009179687 6.5572076953125  C 12.3033010367669 6.21175659475127  12.4217451791003 5.81246178700917  12.7310742578125 5.6015721484375  L 12.7658562695313 5.56679013671875  L 13.8658371289063 4.965061484375  L 13.900619140625 4.965061484375  C 14.0075738085937 4.93027947265625  14.11365890625 4.8946279296875  14.2206135742188 4.89462791015625  C 14.4336533398438 4.89462791015625  14.6814751171875 5.00071302734375  14.8232117773438 5.1424496875  C 15.0006 5.318968359375  15.3197248828125 5.53113857421875  15.4971131054688 5.53113859375  C 15.674501328125 5.53113859375  15.9927566601563 5.31896837890625  16.1710144335938 5.1424496875  C 16.31275109375 5.00071302734375  16.5605728710938 4.89462791015625  16.77361265625 4.89462791015625  C 16.8796977734375 4.89462791015625  16.986652421875 4.929409921875  17.0927375390625 4.965061484375  L 17.12751953125 4.965061484375  L 18.1918488476563 5.56679013671875  L 18.2275004101563 5.56679013671875  C 18.51097375 5.7789603515625  18.6535799609375 6.1676492578125  18.4753221875 6.52155615234375  C 18.4405401757813 6.5563381640625  18.4048886328125 6.69807482421875  18.4048886328125 6.839811484375  C 18.4048886328125 7.2998034765625  18.759665078125 7.6528408203125  19.2205266210938 7.6528408203125  L 19.2553086132813 7.6528408203125  C 19.575303046875 7.6528408203125  19.8231248242188 7.90066259765625  19.8944279296875 8.29022103515625  C 19.8944279296875 8.29022103515625  20.000513046875 8.7849950390625  20.000513046875 9.1736839453125  C 20.000513046875 9.5632423828125  19.8944279296875 10.0580163867187  19.8944279296875 10.0580163867187  C 19.8231248242188 10.4475748242187  19.575303046875 10.6945270507813  19.2561781640625 10.6945270507813  L 19.2205266210938 10.6945270507813  C 19.2158580362318 10.6944454726102  19.2111888277729 10.6944046811899  19.2065195302228 10.6944046811899  C 18.7637389312966 10.6944046811899  18.4047943349103 11.0533492775762  18.4047943349103 11.4961298765024  C 18.4047943349103 11.5002287442914  18.4048257684687 11.5043275518147  18.4048886328125 11.5084259375  C 18.4048886328125 11.6145110546875  18.4753221875 11.7553781640625  18.4753221875 11.8266812695312  C 18.6191454464594 12.1718936648411  18.5007529482704 12.5706512123345  18.1918488476563 12.7814472851562  L 18.1570668554688 12.8162292773437  L 17.0570859765625 13.4179579492187  L 17.022303984375 13.4179579492187  Z M 14.3275682226562 12.074503046875  C 14.7179962109375 11.8623328320312  15.07277265625 11.721465703125  15.3918975390625 11.7214657226562  C 15.7458044335938 11.7214657226562  16.100580859375 11.8623328320312  16.4553573046875 12.110154609375  C 16.561442421875 12.1805881640625  16.6683970703125 12.28667328125  16.7388306445313 12.3223248242188  L 17.3770804101563 11.9684179492188  C 17.3338188756574 11.8069201268824  17.310170650042 11.6407986337253  17.3066468554688 11.4736439453125  C 17.3066468554688 10.5545294921875  17.9805481835938 9.77628216796875  18.8666197265625 9.63454548828125  C 18.9014017382813 9.492808828125  18.9014017382813 9.31629015625  18.9014017382813 9.1745534765625  C 18.9014017382813 9.0336863671875  18.8666197265625 8.85629814453125  18.8666197265625 8.71543103515625  C 17.9796786328125 8.573694375  17.3066468554688 7.79544703125  17.3066468554688 6.84068103515625  C 17.3066468554688 6.66416236328125  17.3414288671875 6.486774140625  17.3770804101563 6.34503748046875  L 16.7388306445313 5.99200013671875  C 16.6683970898438 6.06243369140625  16.561442421875 6.133736796875  16.4553573046875 6.20417037109375  C 16.100580859375 6.4519921484375  15.7458044335938 6.5928592578125  15.4266795507812 6.5928592578125  C 15.1075546679687 6.5928592578125  14.7536477734375 6.4519921484375  14.3988713476563 6.20417037109375  C 14.2919166796875 6.13373681640625  14.1858315820313 6.0624337109375  14.1145284570313 5.99200013671875  L 13.4414966796875 6.34590703125  C 13.4762786914062 6.486774140625  13.511930234375 6.66416236328125  13.511930234375 6.84068103515625  C 13.511930234375 7.75979548828125  12.83802890625 8.5380428125  11.9519573632812 8.71543103515625  C 11.9171753515625 8.85629814453125  11.9171753515625 9.06846837890625  11.9171753710937 9.1745534765625  C 11.9171753710937 9.31629013671875  11.9519573828125 9.49280880859375  11.9519573632812 9.63454548828125  C 12.8516281523181 9.78377574429665  13.5114680876858 10.561680687074  13.511930234375 11.4736439453125  C 13.511930234375 11.6501626171875  13.4771482226562 11.8275508398438  13.4414966796875 11.9692875  L 14.0440949023437 12.28667328125  C 14.1145284570313 12.2171092773437  14.221483125 12.145806171875  14.3275682226562 12.074503046875  Z M 15.3918975390625 10.9432183789062  C 14.4146378860633 10.9422687163623  13.6218435214608 10.1518060930104  13.6180153515625 9.1745534765625  C 13.6180153515625 8.21978748046875  14.398871328125 7.406758125  15.3918975390625 7.40675814453125  C 16.3484026367188 7.40675814453125  17.1649101757812 8.1841359375  17.1649101953125 9.1745534765625  C 17.161082025374 10.1518061006226  16.3682876489032 10.9422687271045  15.3910279882813 10.9432183789062  Z M 16.0649293164063 9.2102050390625  C 16.0649293164063 8.8562981640625  15.7814559765625 8.5032608203125  15.3918975390625 8.5032608203125  C 15.3913176597423 8.50325931950581  15.3907377787243 8.50325856910152  15.3901578974619 8.50325856910152  C 15.0192716143507 8.50325856910152  14.7184748005894 8.80366750221092  14.7179962304688 9.1745534765625  C 14.7179962304688 9.52846037109375  15.0371211132813 9.846715703125  15.3918975390625 9.846715703125  C 15.7458044335938 9.846715703125  16.0649293164063 9.5641119140625  16.0649293164063 9.2102050390625  Z " fill-rule="nonzero" fill="#ffffff" stroke="none" transform="matrix(1 0 0 1 60 23 )" />
  </g>
</svg>