<?xml version="1.0" encoding="utf-8"?>
<svg version="1.1" xmlns:xlink="http://www.w3.org/1999/xlink" width="10px" height="20px" xmlns="http://www.w3.org/2000/svg">
  <g transform="matrix(1 0 0 1 -60 -19 )">
    <path d="M 0.77997775390625 5.19730091796875  C 0.704752174116036 5.24158342448243  0.619426908362964 5.26583376210836  0.5321559765625 5.26773447265625  C 0.3556373046875 5.26773447265625  0.14346708984375 5.16164935546875  0.07303353515625 4.985130703125  C -0.068703125 4.73730892578125  0.0382515234375 4.41818404296875  0.3208553125 4.27644736328125  L 8.4520182421875 0.06260759765625  C 8.69984001953125 -0.0791290625  9.01722580078125 0.0278255859375  9.1589624609375 0.310429375  C 9.30069912109375 0.59390271484375  9.1946140234375 0.87737603515625  8.912010234375 1.0182431640625  L 0.77997775390625 5.19730091796875  Z M 9.1589624609375 19.7518304101563  C 9.06221938179403 19.9116189432231  8.88650874982856 20.0064627521611  8.69984001953125 19.9996521875  C 8.59375490234375 19.9996521875  8.52332134765625 19.9648701757813  8.41723623046875 19.9292186132813  L 0.2495521875 14.935392421875  C 0.00259996093749999 14.7936557617187  -0.06870314453125 14.4397488671875  0.07303353515625 14.1919270898438  C 0.2147701953125 13.9441053125  0.56867708984375 13.8736717578125  0.81562931640625 14.0145388867187  L 8.9824437890625 19.008365078125  C 9.23026556640625 19.1501017382813  9.30069912109375 19.5040086328125  9.1589624609375 19.7518304101563  Z " fill-rule="nonzero" fill="#ffffff" stroke="none" transform="matrix(1 0 0 1 60 19 )" />
  </g>
</svg>