<?xml version="1.0" encoding="utf-8"?>
<svg version="1.1" xmlns:xlink="http://www.w3.org/1999/xlink" width="10px" height="16px" xmlns="http://www.w3.org/2000/svg">
  <g transform="matrix(1 0 0 1 -68 -23 )">
    <path d="M 1.4754787109375 15.4170536132813  C 1.40591470703125 15.4866176171875  1.30156869140625 15.4866176171875  1.23200466796875 15.4866176171875  C 1.0580946484375 15.4866176171875  0.885054179687499 15.3822716015625  0.780708183593749 15.2083616015625  C 0.64158017578125 14.964887578125  0.745926171874999 14.65184953125  0.989400195312498 14.5127215234375  L 3.802394765625 12.9457922460938  C 4.0458687890625 12.8066642382813  4.35803728515625 12.911010234375  4.4971652734375 13.1544842773438  C 4.63629328125 13.3979583007813  4.53194728515625 13.7109963476563  4.28847326171875 13.8501243359375  L 1.4754787109375 15.4170536132813  Z M 9.4283838671875 3.54769482421875  C 9.15012783203125 3.54769482421875  8.90665380859375 3.30422080078125  8.90665380859375 3.025964765625  L 8.90665380859375 0.62426740234375  C 8.90665380859375 0.3460113671875  9.15012783203125 0.10253734375  9.4283838671875 0.10253734375  C 9.70663990234375 0.10253734375  9.949244375 0.3460113671875  9.949244375 0.62426740234375  L 9.949244375 3.025964765625  C 9.949244375 3.30422080078125  9.7057703515625 3.54769482421875  9.42751431640625 3.54769482421875  Z " fill-rule="nonzero" fill="#ffffff" stroke="none" transform="matrix(1 0 0 1 68 23 )" />
  </g>
</svg>