<?xml version="1.0" encoding="utf-8"?>
<svg version="1.1" xmlns:xlink="http://www.w3.org/1999/xlink" width="14px" height="8px" xmlns="http://www.w3.org/2000/svg">
  <g transform="matrix(1 0 0 1 -186 -487 )">
    <path d="M 7 1.80625  L 1.8375 7.54375  C 1.71887205518956 7.69147168032003  1.53964081700083 7.7774098783289  1.35018294799951 7.7774098783289  C 1.00500497935527 7.7774098783289  0.725182947999511 7.49758784697314  0.725182947999511 7.1524098783289  C 0.725182947999511 6.98457145922659  0.792687570167039 6.82378602249644  0.9125 6.70625  L 6.5375 0.456250000000001  C 6.65595279442369 0.3259286013712  6.82389000185297 0.251629293020008  7 0.251629293020008  C 7.17610999814703 0.251629293020008  7.34404720557631 0.325928601371201  7.4625 0.456250000000001  L 13.0875 6.70625  C 13.207312429833 6.82378602249644  13.2748170520005 6.98457145922659  13.2748170520005 7.1524098783289  C 13.2748170520005 7.49758784697314  12.9949950206447 7.7774098783289  12.6498170520005 7.7774098783289  C 12.4603591829992 7.7774098783289  12.2811279448104 7.69147168032003  12.1625 7.54375  L 7 1.80625  Z " fill-rule="nonzero" fill="#333333" stroke="none" transform="matrix(1 0 0 1 186 487 )" />
  </g>
</svg>