<?xml version="1.0" encoding="utf-8"?>
<svg version="1.1" xmlns:xlink="http://www.w3.org/1999/xlink" width="10px" height="11px" xmlns="http://www.w3.org/2000/svg">
  <g transform="matrix(1 0 0 1 -66 -20 )">
    <path d="M 9.55024494140625 3.4720879296875  C 9.55022494140625 3.1048369140625  9.29062095703125 2.653083203125  8.97333607421875 2.46818857421875  L 5.563587890625 0.481275703125  C 5.40493544921875 0.38883837890625  5.19581724609375 0.3426097265625  4.98667904296875 0.3426097265625  C 4.777520859375 0.3426097265625  4.56840263671875 0.38883837890625  4.40975021484375 0.481275703125  L 1.00002201171875 2.46818857421875  C 0.682717148437499 2.65308322265625  0.423113164062499 3.10483693359375  0.423113164062499 3.4720879296875  L 0.423113164062499 7.455147421875  C 0.423113164062499 7.82239841796875  0.682717148437499 8.27415212890625  1.00004201171875 8.45904677734375  L 4.40977021484375 10.4459396679687  C 4.56842265625 10.5383969726563  4.777540859375 10.5846056445312  4.9866790625 10.5846056445312  C 5.19583724609375 10.5846056445312  5.40495546875 10.5383769921875  5.563607890625 10.4459396679687  L 8.97333609375 8.45904677734375  C 9.29064095703125 8.27415212890625  9.55024494140625 7.82239841796875  9.55024494140625 7.455147421875  L 9.55024494140625 3.4720879296875  Z M 2.25081396484375 3.30867873046875  C 2.11048908203125 3.22881287109375  2.10213474609375 3.099020859375  2.2260507421875 3.01158015625  L 4.4097501953125 1.739102890625  C 4.56840263671875 1.64666556640625  4.77754083984375 1.6004369140625  4.98665904296875 1.6004369140625  C 5.19579724609375 1.6004369140625  5.40493544921875 1.64666556640625  5.563587890625 1.739102890625  L 7.74728734375 3.01158015625  C 7.8712033203125 3.09902087890625  7.86282900390625 3.2288328515625  7.722524140625 3.30867873046875  L 7.35135580078125 3.5198155859375  L 7.3497169140625 3.52045515625  L 7.32867119140625 3.5327268359375  L 7.2959133984375 3.55135419921875  L 5.5139016015625 4.59020984375  C 5.368899921875 4.67471255859375  5.1777894921875 4.71694392578125  4.9866590625 4.71694392578125  C 4.7955486328125 4.71694392578125  4.60441822265625 4.67471255859375  4.4594365234375 4.59020984375  L 2.67678515625 3.551434140625  L 2.6446869140625 3.5327268359375  L 2.62362119140625 3.52045515625  L 2.6219823046875 3.5198155859375  L 2.25081396484375 3.30867873046875  Z M 4.49367330078125 6.03840796875  L 4.49367328125 8.504635859375  L 4.48649814453125 8.92796884765625  C 4.48391990234375 9.07800712890625  4.388824375 9.14879912109375  4.266087578125 9.10442919921875  L 2.079290234375 7.8301531640625  C 1.76198537109375 7.645258515625  1.50236138671875 7.1935048046875  1.50236138671875 6.82625380859375  L 1.50236140625 4.61293443359375  L 1.50723810546875 4.325529296875  C 1.50987630859375 4.17217328125  1.60920896484375 4.10190091796875  1.73586310546875 4.152466640625  L 2.1478237890625 4.3922640625  L 2.2453176953125 4.45010484375  C 2.2451578125 4.44964515625  2.2449579296875 4.44918546875  2.24481802734375 4.44872578125  L 3.8882237890625 5.4052972265625  L 4.2508579296875 5.6251481640625  C 4.3793508203125 5.70307533203125  4.48519904296875 5.88537173828125  4.49367330078125 6.03840796875  Z M 8.4709766796875 6.82625380859375  C 8.4709766796875 7.1935048046875  8.2113526953125 7.645258515625  7.89404783203125 7.8301531640625  L 5.70725048828125 9.10442919921875  C 5.5844937109375 9.14879912109375  5.48941818359375 9.078027109375  5.486839921875 8.92796884765625  L 5.479684765625 8.504635859375  L 5.479684765625 6.03838796875  C 5.4881590234375 5.88535171875  5.59400724609375 5.7030753125  5.72250013671875 5.6251281640625  L 6.08511427734375 5.4052772265625  L 7.7285400390625 4.44870578125  C 7.72838015625 4.44916546875  7.7281802734375 4.44962515625  7.72804037109375 4.45008484375  L 7.8255542578125 4.3922440625  L 8.2374949609375 4.152446640625  C 8.36416908203125 4.10188091796875  8.46350171875 4.17215328125  8.4661199609375 4.325509296875  L 8.47099666015625 4.61291443359375  L 8.47099666015625 6.82625380859375  Z " fill-rule="nonzero" fill="#000000" stroke="none" transform="matrix(1 0 0 1 66 20 )" />
  </g>
</svg>