<?xml version="1.0" encoding="utf-8"?>
<svg version="1.1" xmlns:xlink="http://www.w3.org/1999/xlink" width="10px" height="11px" xmlns="http://www.w3.org/2000/svg">
  <g transform="matrix(1 0 0 1 -62 -27 )">
    <path d="M 9.51298220703125 3.507318046875  C 9.51296220703125 3.14006703125  9.25335822265625 2.6883133203125  8.93607333984375 2.503438671875  L 5.52632515625 0.516525800781251  C 5.36767271484375 0.424088476562501  5.15855451171875 0.377859824218751  4.94941630859375 0.377859824218751  C 4.740258125 0.377859824218751  4.53113990234375 0.424088476562501  4.37248748046875 0.516525800781251  L 0.96275927734375 2.503438671875  C 0.6454544140625 2.6883133203125  0.3858504296875 3.14008703125  0.3858504296875 3.50733802734375  L 0.3858504296875 7.49039751953125  C 0.3858504296875 7.857648515625  0.6454544140625 8.3094022265625  0.96277927734375 8.494296875  L 4.37250748046875 10.481169765625  C 4.531159921875 10.5736270703125  4.740278125 10.6198357421875  4.949416328125 10.6198357421875  C 5.15857451171875 10.6198357421875  5.367692734375 10.5736070898437  5.52634515625 10.481169765625  L 8.936073359375 8.494296875  C 9.25337822265625 8.30938224609375  9.51298220703125 7.857648515625  9.51298220703125 7.49039751953125  L 9.51298220703125 3.507318046875  Z M 2.21355123046875 3.343908828125  C 2.07322634765625 3.26404298828125  2.06487201171875 3.1342509765625  2.1887880078125 3.04681025390625  L 4.3724874609375 1.77433298828125  C 4.53113990234375 1.6818956640625  4.74027810546875 1.63566701171875  4.94939630859375 1.63566701171875  C 5.15853451171875 1.63566701171875  5.36767271484375 1.6818956640625  5.52632515625 1.77433298828125  L 7.710024609375 3.04681025390625  C 7.8339405859375 3.1342509765625  7.82556626953125 3.26404296875  7.68526140625 3.343908828125  L 7.31409306640625 3.55504568359375  L 7.3124541796875 3.55566525390625  L 7.29140845703125 3.56793693359375  L 7.2586506640625 3.586564296875  L 5.4766388671875 4.62541994140625  C 5.3316371875 4.70992265625  5.1405267578125 4.7521540234375  4.949396328125 4.7521540234375  C 4.7582858984375 4.7521540234375  4.56715548828125 4.70992265625  4.4221737890625 4.62541994140625  L 2.639522421875 3.58664423828125  L 2.6074241796875 3.56793693359375  L 2.58635845703125 3.55566525390625  L 2.5847195703125 3.55504568359375  L 2.21355123046875 3.343908828125  Z M 4.45641056640625 6.07363806640625  L 4.456410546875 8.5398659765625  L 4.44923541015625 8.96319896484375  C 4.44665716796875 9.1132572265625  4.351561640625 9.18402923828125  4.22882484375 9.13965931640625  L 2.0420275 7.86538328125  C 1.72472263671875 7.6804886328125  1.46509865234375 7.228734921875  1.46509865234375 6.86148392578125  L 1.465098671875 4.64816455078125  L 1.46997537109375 4.3607594140625  C 1.47261357421875 4.2074033984375  1.57194623046875 4.13713103515625  1.69860037109375 4.1876967578125  L 2.1105610546875 4.4274741796875  L 2.2080549609375 4.48533494140625  C 2.207895078125 4.48487525390625  2.2076951953125 4.4843955859375  2.20755529296875 4.48395587890625  L 3.8509610546875 5.44050734375  L 4.2135951953125 5.66037826171875  C 4.3420880859375 5.7383054296875  4.44793630859375 5.9206018359375  4.45641056640625 6.07363806640625  Z M 8.4337139453125 6.86148390625  C 8.4337139453125 7.228714921875  8.1740899609375 7.68048861328125  7.85678509765625 7.86538326171875  L 5.66998775390625 9.139659296875  C 5.5472309765625 9.18402921875  5.45215544921875 9.11325720703125  5.4495771875 8.9631989453125  L 5.44242203125 8.53986595703125  L 5.44242203125 6.0736180859375  C 5.4508962890625 5.9205818359375  5.55674451171875 5.7383054296875  5.68523740234375 5.66035828125  L 6.04785154296875 5.44048736328125  L 7.6912773046875 4.4839358984375  C 7.691117421875 4.48437560546875  7.6909175390625 4.4848552734375  7.69077763671875 4.4853149609375  L 7.7882915234375 4.42745419921875  L 8.2002322265625 4.18767677734375  C 8.32690634765625 4.1371110546875  8.426238984375 4.20738341796875  8.4288572265625 4.36073943359375  L 8.43373392578125 4.6481445703125  L 8.43373392578125 6.86148390625  Z " fill-rule="nonzero" fill="#ffffff" stroke="none" transform="matrix(1 0 0 1 62 27 )" />
  </g>
</svg>