<?xml version="1.0" encoding="utf-8"?>
<svg version="1.1" xmlns:xlink="http://www.w3.org/1999/xlink" width="10px" height="11px" xmlns="http://www.w3.org/2000/svg">
  <g transform="matrix(1 0 0 1 -70 -27 )">
    <path d="M 9.56416349609375 3.50400029296875  C 9.56416349609375 3.13674927734375  9.30455951171875 2.68499556640625  8.98727462890625 2.50012091796875  L 5.5775264453125 0.513208046874999  C 5.41887400390625 0.420770722656249  5.20975580078125 0.374542070312499  5.00061759765625 0.374542070312499  C 4.7914594140625 0.374542070312499  4.58234119140625 0.42077072265625  4.42368876953125 0.513208046874999  L 1.01396056640625 2.50012091796875  C 0.696655703124998 2.68499556640625  0.437031718749999 3.13676927734375  0.437031718749999 3.5040202734375  L 0.437031718749999 7.487079765625  C 0.437031718749999 7.85433076171875  0.696635703124999 8.30608447265625  1.01396056640625 8.49097912109375  L 4.42368876953125 10.4778520117187  C 4.5823412109375 10.5703093164062  4.7914594140625 10.6165179882812  5.0005976171875 10.6165179882812  C 5.20975580078125 10.6165179882812  5.4188740234375 10.5702893359375  5.5775264453125 10.4778520117187  L 8.9872546484375 8.49097912109375  C 9.30455951171875 8.3060644921875  9.56416349609375 7.85433076171875  9.56416349609375 7.487079765625  L 9.56416349609375 3.50400029296875  Z M 2.26475248046875 3.34059109375  C 2.12442763671875 3.260725234375  2.11607330078125 3.13093322265625  2.239989296875 3.04349251953125  L 4.42368875 1.77101525390625  C 4.58234119140625 1.6785779296875  4.79147939453125 1.63234927734375  5.00059759765625 1.63234927734375  C 5.20973580078125 1.63234927734375  5.41887400390625 1.6785779296875  5.5775264453125 1.77101525390625  L 7.7612258984375 3.04349251953125  C 7.885141875 3.1309332421875  7.87676755859375 3.260725234375  7.7364626953125 3.34059109375  L 7.36529435546875 3.55172794921875  L 7.36365546875 3.55234751953125  L 7.34260974609375 3.56461919921875  L 7.309851953125 3.5832465625  L 5.5278401171875 4.62210220703125  C 5.3828384375 4.706604921875  5.1917280078125 4.7488362890625  5.000597578125 4.7488362890625  C 4.8094871484375 4.7488362890625  4.61835673828125 4.706604921875  4.4733750390625 4.62210220703125  L 2.690723671875 3.58332650390625  L 2.6586254296875 3.56461919921875  L 2.6375397265625 3.55234751953125  L 2.6359208203125 3.55172794921875  L 2.26475248046875 3.34059109375  Z M 4.5076118359375 8.53654822265625  L 4.50043669921875 8.9598812109375  C 4.49785845703125 9.10993947265625  4.4027629296875 9.180711484375  4.2800461328125 9.1363415625  L 2.0932487890625 7.86206552734375  C 1.77592392578125 7.67717087890625  1.51633994140625 7.22541716796875  1.51633994140625 6.858166171875  L 1.516339921875 4.644846796875  L 1.52119662109375 4.35744166015625  C 1.52383482421875 4.20408564453125  1.62318748046875 4.13381328125  1.74982162109375 4.18437900390625  L 2.1617823046875 4.42415642578125  L 2.2592762109375 4.4820171875  C 2.259096328125 4.4815575  2.2589164453125 4.48107783203125  2.25877654296875 4.480638125  L 3.9021823046875 5.43718958984375  L 4.26483642578125 5.6570605078125  C 4.39332931640625 5.73498767578125  4.4991775390625 5.91728408203125  4.50763181640625 6.0703203125  L 4.50763181640625 8.53654822265625  Z M 8.484915234375 6.858166171875  C 8.484915234375 7.2253971875  8.22529125 7.67717087890625  7.90798638671875 7.86206552734375  L 5.72118904296875 9.1363415625  C 5.598432265625 9.180711484375  5.50335673828125 9.10993947265625  5.5007784765625 8.9598812109375  L 5.4936233203125 8.53654822265625  L 5.4936233203125 6.07030033203125  C 5.502097578125 5.91726408203125  5.60794580078125 5.73498767578125  5.73643869140625 5.65704052734375  L 6.09905283203125 5.437169609375  L 7.74247859375 4.48061814453125  C 7.7423187109375 4.4810578515625  7.742118828125 4.48153751953125  7.74197892578125 4.48199720703125  L 7.8394928125 4.4241364453125  L 8.251433515625 4.1843590234375  C 8.37810763671875 4.13379330078125  8.4774402734375 4.2040656640625  8.480058515625 4.3574216796875  L 8.48493521484375 4.64482681640625  L 8.48493521484375 6.858166171875  Z " fill-rule="nonzero" fill="#ffffff" stroke="none" transform="matrix(1 0 0 1 70 27 )" />
  </g>
</svg>