<?xml version="1.0" encoding="utf-8"?>
<svg version="1.1" xmlns:xlink="http://www.w3.org/1999/xlink" width="20px" height="20px" xmlns="http://www.w3.org/2000/svg">
  <g transform="matrix(1 0 0 1 -61 -19 )">
    <path d="M 0.6 18.52  C 0.64 19.28  1.28 19.96  2.08 19.96  L 6.32 19.96  C 6.72 19.96  7.08 19.64  7.08 19.2  C 7.08 18.8  6.76 18.44  6.32 18.44  L 2.12 18.44  L 2.12 6.76  L 10 1.48  L 17.96 7.04  L 17.96 10.76  C 17.96 11.16  18.28 11.52  18.72 11.52  C 19.12 11.52  19.48 11.2  19.48 10.76  L 19.48 7.04  C 19.48 6.56  19.24 6.12  18.88 5.88  L 10.88 0.279999999999999  C 10.4 -0.0800000000000008  9.72 -0.0800000000000008  9.2 0.279999999999999  L 1.24 5.56  C 0.84 5.84  0.6 6.28  0.6 6.76  L 0.6 18.52  Z " fill-rule="nonzero" fill="#ffffff" stroke="none" transform="matrix(1 0 0 1 61 19 )" />
  </g>
</svg>