<?xml version="1.0" encoding="utf-8"?>
<svg version="1.1" xmlns:xlink="http://www.w3.org/1999/xlink" width="6px" height="9px" xmlns="http://www.w3.org/2000/svg">
  <g transform="matrix(1 0 0 1 -75 -30 )">
    <path d="M 1.92 8.52  C 1.72 8.68  1.52 8.76  1.32 8.76  C 1.16 8.76  0.960000000000001 8.68  0.84 8.56  C 0.559999999999999 8.28  0.52 7.84  0.800000000000001 7.52  L 3.72 4.4  L 0.640000000000001 1.4  C 0.359999999999999 1.12  0.359999999999999 0.639999999999999  0.640000000000001 0.359999999999999  C 0.92 0.0799999999999983  1.4 0.0799999999999983  1.68 0.359999999999999  L 5.28 3.88  C 5.56 4.16  5.56 4.6  5.32 4.88  L 1.92 8.52  Z " fill-rule="nonzero" fill="#000000" stroke="none" transform="matrix(1 0 0 1 75 30 )" />
  </g>
</svg>