<?xml version="1.0" encoding="utf-8"?>
<svg version="1.1" xmlns:xlink="http://www.w3.org/1999/xlink" width="21px" height="20px" xmlns="http://www.w3.org/2000/svg">
  <g transform="matrix(1 0 0 1 -60 -19 )">
    <path d="M 10.4427974609375 15.2427700390625  L 7.04281689453125 11.814218203125  C 6.77338623342151 11.5914253432974  6.38368144235974 11.5914253432974  6.11425078125 11.814218203125  C 5.96100790090867 11.9364663163068  5.86741332201641 12.1184557780286  5.85710939453125 12.3142153515625  C 5.83989869687086 12.5107514409312  5.90157550609379 12.7060613532002  6.02853697265625 12.8570693945313  L 8.2428100390625 15.0570568164063  L 0.728567265625 15.0570568164063  C 0.388340257032978 15.1254416039853  0.143568841874413 15.4243068974784  0.143568841874413 15.7713384472656  C 0.143568841874413 16.1183699970528  0.388340257032978 16.4172352905459  0.728567265625 16.485620078125  L 8.2285244140625 16.485620078125  L 5.99996572265625 18.7427500390625  C 5.79622831146396 18.9560410424995  5.73490426888639 19.2682361420184  5.84282375 19.54274546875  C 5.88685262211077 19.6288056770458  5.93950311524653 19.7101746162236  5.99996572265625 19.7856012304688  C 6.13971400278022 19.9258912483764  6.33054544327077 20.0032553481595  6.52853412109375 19.9998857226562  C 6.72158099013621 19.9994128072842  6.90654868736303 19.9223429322689  7.04281689453125 19.7856012304688  L 10.485654375 16.34276375  C 10.5306528927813 16.3122617877652  10.569437471359 16.2734772091876  10.5999394335938 16.2284786914062  C 10.7115204588634 16.081941816914  10.7580054403393 15.8960018768875  10.7285101171875 15.7141959179687  C 10.7001891709208 15.5251540561621  10.5972784057585 15.3553512950512  10.4427974609375 15.2427700390625  Z M 20 6.51424849609375  C 20.0102766770194 6.26495965807346  19.8844403854765 6.02970050301859  19.671316171875 5.8999662890625  L 10.3856549414063 0.09999943359375  C 10.1448257784903 -0.0295312245395225  9.85505994416599 -0.0295312245395225  9.61423078125 0.09999943359375  L 0.34285517578125 5.8999662890625  C 0.130736406929174 6.03233164332444  0.00130923055294108 6.26422200744991  0 6.51424849609375  L 0 9.9999428515625  C 0.0683847875790747 10.3401698601545  0.367250081072168 10.5849412753131  0.714281630859375 10.5849412753131  C 1.06131318064658 10.5849412753131  1.36017847413968 10.3401698601545  1.42856326171875 9.9999428515625  L 1.42856326171875 6.9285318359375  L 9.9999428515625 1.58570521484375  L 18.5713224414063 6.9142462109375  L 18.5713224414063 18.5713224414063  L 14.6427734765625 18.5713224414063  C 14.3025464450568 18.6397072095136  14.0577750042261 18.9385725136167  14.0577750042261 19.2856040820313  C 14.0577750042261 19.6326356504458  14.3025464450568 19.931500954549  14.6427734765625 19.9998857226562  L 19.2713184570312 19.9998857226562  C 19.6736950470619 19.9998857226562  19.9998857226562 19.6736950470619  20 19.2713184570312  L 20 6.51424849609375  Z " fill-rule="nonzero" fill="#000000" stroke="none" transform="matrix(1 0 0 1 60 19 )" />
  </g>
</svg>