<?xml version="1.0" encoding="utf-8"?>
<svg version="1.1" xmlns:xlink="http://www.w3.org/1999/xlink" width="16px" height="20px" xmlns="http://www.w3.org/2000/svg">
  <g transform="matrix(1 0 0 1 -63 -19 )">
    <path d="M 15.6963106796116 19.1464077669903  C 15.6963106796116 19.4247766990291  15.4775922330097 19.6434951456311  15.1992233009709 19.6434951456311  L 0.98252427184466 19.6434951456311  C 0.704155339805824 19.6434951456311  0.485436893203883 19.4247766990291  0.485436893203883 19.1464077669903  L 0.485436893203883 0.85359223300971  C 0.485436893203883 0.575223300970875  0.704155339805825 0.356504854368933  0.98252427184466 0.356504854368933  L 10.0295145631068 0.356504854368933  C 10.1587572815534 0.356504854368933  10.288 0.406213592233011  10.3774757281553 0.505631067961166  L 15.5471844660194 5.67533980582524  C 15.6366601941748 5.76481553398058  15.6963106796116 5.89405825242719  15.6963106796116 6.02330097087379  L 15.6963106796116 19.1464077669903  Z M 1.47961165048544 1.35067961165049  L 1.47961165048544 18.6493203883495  L 14.7021359223301 18.6493203883495  L 14.7021359223301 6.23207766990291  L 9.82073786407767 1.35067961165049  L 1.47961165048544 1.35067961165049  Z " fill-rule="nonzero" fill="#2c2c2c" stroke="none" transform="matrix(1 0 0 1 63 19 )" />
  </g>
</svg>