<?xml version="1.0" encoding="utf-8"?>
<svg version="1.1" xmlns:xlink="http://www.w3.org/1999/xlink" width="7px" height="7px" xmlns="http://www.w3.org/2000/svg">
  <g transform="matrix(1 0 0 1 -72 -19 )">
    <path d="M 6.65654368932038 6.21219417475728  C 6.57700970873786 6.40108737864078  6.39805825242718 6.52038834951456  6.19922330097087 6.52038834951456  L 1.02951456310679 6.52038834951456  C 0.75114563106796 6.52038834951456  0.532427184466018 6.30166990291262  0.532427184466018 6.02330097087379  L 0.532427184466018 0.85359223300971  C 0.532427184466018 0.654757281553399  0.651728155339804 0.475805825242719  0.840621359223299 0.396271844660195  C 1.02951456310679 0.316737864077671  1.23829126213592 0.366446601941748  1.37747572815534 0.505631067961166  L 6.54718446601942 5.67533980582524  C 6.68636893203883 5.81452427184466  6.73607766990291 6.0332427184466  6.65654368932038 6.21219417475728  Z M 1.52660194174757 2.05654368932039  L 1.52660194174757 5.52621359223301  L 4.99627184466019 5.52621359223301  L 1.52660194174757 2.05654368932039  Z " fill-rule="nonzero" fill="#ffffff" stroke="none" transform="matrix(1 0 0 1 72 19 )" />
  </g>
</svg>