<?xml version="1.0" encoding="utf-8"?>
<svg version="1.1" xmlns:xlink="http://www.w3.org/1999/xlink" width="8px" height="5px" xmlns="http://www.w3.org/2000/svg">
  <g transform="matrix(1 0 0 1 -67 -28 )">
    <path d="M 7.52077669902913 1  C 7.52077669902913 1.27836893203884  7.30205825242718 1.49708737864078  7.02368932038835 1.49708737864078  L 0.959223300970873 1.49708737864078  C 0.680854368932038 1.49708737864078  0.462135922330096 1.27836893203884  0.462135922330096 1  C 0.462135922330096 0.721631067961164  0.680854368932038 0.502912621359222  0.959223300970873 0.502912621359222  L 7.02368932038835 0.502912621359222  C 7.30205825242718 0.502912621359222  7.52077669902913 0.721631067961164  7.52077669902913 1  Z M 7.52077669902913 3.6842718446602  C 7.52077669902913 3.96264077669903  7.30205825242718 4.18135922330097  7.02368932038835 4.18135922330097  L 0.959223300970873 4.18135922330097  C 0.680854368932038 4.18135922330097  0.462135922330096 3.96264077669903  0.462135922330096 3.6842718446602  C 0.462135922330096 3.40590291262136  0.680854368932038 3.18718446601942  0.959223300970873 3.18718446601942  L 7.02368932038835 3.18718446601942  C 7.30205825242718 3.18718446601942  7.52077669902913 3.40590291262136  7.52077669902913 3.6842718446602  Z " fill-rule="nonzero" fill="#ffffff" stroke="none" transform="matrix(1 0 0 1 67 28 )" />
  </g>
</svg>