<?xml version="1.0" encoding="utf-8"?>
<svg version="1.1" xmlns:xlink="http://www.w3.org/1999/xlink" width="8px" height="7px" xmlns="http://www.w3.org/2000/svg">
  <g transform="matrix(1 0 0 1 -67 -27 )">
    <path d="M 1.23759223300971 2.41755339805825  C 1.15805825242718 2.47720388349514  1.05864077669903 2.50702912621359  0.959223300970873 2.50702912621359  C 0.800155339805824 2.50702912621359  0.641087378640775 2.42749514563107  0.551611650485436 2.28831067961165  C 0.392543689320386 2.05965048543689  0.45219417475728 1.75145631067961  0.680854368932038 1.60233009708738  L 2.66920388349514 0.250252427184465  C 2.8978640776699 0.091184466019417  3.20605825242718 0.150834951456311  3.35518446601941 0.379495145631068  C 3.51425242718446 0.608155339805824  3.45460194174757 0.916349514563107  3.22594174757281 1.06547572815534  L 1.23759223300971 2.41755339805825  Z M 5.28388349514563 6.40419417475728  C 5.20434951456311 6.46384466019417  5.10493203883495 6.49366990291262  5.00551456310679 6.49366990291262  C 4.84644660194175 6.49366990291262  4.6873786407767 6.4141359223301  4.59790291262136 6.27495145631068  C 4.43883495145631 6.04629126213592  4.4984854368932 5.73809708737864  4.72714563106796 5.58897087378641  L 6.70555339805825 4.2368932038835  C 6.93421359223301 4.07782524271845  7.24240776699029 4.13747572815534  7.39153398058252 4.3661359223301  C 7.55060194174757 4.59479611650485  7.49095145631068 4.90299029126214  7.26229126213592 5.05211650485437  L 5.28388349514563 6.40419417475728  Z " fill-rule="nonzero" fill="#ffffff" stroke="none" transform="matrix(1 0 0 1 67 27 )" />
  </g>
</svg>