<?xml version="1.0" encoding="utf-8"?>
<svg version="1.1" xmlns:xlink="http://www.w3.org/1999/xlink" width="16px" height="19px" xmlns="http://www.w3.org/2000/svg">
  <g transform="matrix(1 0 0 1 -64 -19 )">
    <path d="M 14.6507352941177 15.8915441176471  C 14.6507352941177 16.2477022058823  14.9379595588235 16.5349264705882  15.2918198529412 16.5349264705882  C 15.6456801470588 16.5349264705882  15.9329044117647 16.2477022058823  16 15.8938419117647  L 16 2.57582720588235  C 15.9329044117647 2.10248161764706  15.5491727941177 1.72104779411765  15.078125 1.72104779411765  L 12.5114889705882 1.72104779411765  L 12.5114889705882 0.866268382352942  C 12.5114889705882 0.392922794117649  12.1277573529412 0.0114889705882355  11.6567095588235 0.0114889705882355  L 4.81387867647059 0.0114889705882355  C 4.34283088235294 0.0114889705882355  3.95909926470588 0.395220588235293  3.95909926470588 0.866268382352942  L 3.95909926470588 1.72104779411765  L 1.39246323529412 1.72104779411765  C 0.919117647058826 1.72104779411765  0.537683823529406 2.10477941176471  0.537683823529406 2.57582720588235  L 0.537683823529406 17.9710477941177  C 0.537683823529406 18.4443933823529  0.921415441176464 18.8258272058823  1.39246323529412 18.8258272058823  L 15.078125 18.8258272058823  C 15.5514705882353 18.8258272058823  15.9329044117647 18.4443933823529  15.9329044117647 17.9710477941177  L 15.9329044117647 15.1907169117647  C 15.9214154411765 14.84375  15.6387867647059 14.5680147058824  15.2918198529412 14.5680147058824  C 14.9448529411765 14.5680147058824  14.6622242647059 14.84375  14.6507352941177 15.1907169117647  L 14.6507352941177 17.5436580882353  L 2 17.5436580882353  L 2 3.00321691176471  L 3.95909926470588 3.00321691176471  L 3.95909926470588 3.85799632352941  C 3.95909926470588 4.33134191176471  4.34283088235294 4.71277573529412  4.81387867647058 4.71277573529412  L 11.6567095588235 4.71277573529412  C 12.1300551470588 4.71277573529412  12.5114889705882 4.32904411764706  12.5114889705882 3.85799632352941  L 12.5114889705882 3.00321691176471  L 14.6507352941177 3.00321691176471  L 14.6507352941177 15.8915441176471  Z M 11.2270220588235 3.43290441176471  L 11.2293198529412 3.43290441176471  L 5.24126838235294 3.43290441176471  L 5.24126838235294 1.29365808823529  L 11.2270220588235 1.29365808823529  L 11.2270220588235 3.43290441176471  Z M 5.02757352941177 14.1245404411765  C 4.67371323529412 14.1222426470588  4.38648897058823 14.4094669117647  4.38648897058823 14.765625  C 4.38648897058823 15.1194852941176  4.67371323529412 15.4067095588235  5.02757352941177 15.4067095588235  L 11.4430147058823 15.4067095588235  C 11.6773897058823 15.4136029411765  11.8956801470588 15.2941176470588  12.0151654411765 15.0919117647059  C 12.1346507352941 14.8897058823529  12.1346507352941 14.6392463235294  12.0151654411765 14.4393382352941  C 11.8956801470588 14.2371323529412  11.6773897058823 14.1176470588235  11.4430147058823 14.1245404411765  L 5.02757352941177 14.1245404411765  Z M 7.60799632352941 12.3552389705882  C 7.61029411764706 12.7045036764706  7.88832720588235 12.9871323529412  8.23529411764706 12.9940257352941  C 8.58915441176471 12.9940257352941  8.87637867647058 12.7068014705882  8.87637867647058 12.3529411764706  L 8.87637867647058 8.27665441176471  L 10.2022058823529 9.60248161764706  C 10.4549632352941 9.83226102941177  10.8455882352941 9.82306985294118  11.0868566176471 9.58180147058824  C 11.328125 9.3405330882353  11.3373161764706 8.9499080882353  11.1075367647059 8.69715073529412  L 8.54319852941177 6.13051470588236  C 8.37545955882352 5.96507352941176  8.10661764705883 5.96507352941176  7.93887867647058 6.13051470588236  L 5.37454044117646 8.69485294117647  C 5.14246323529412 8.94761029411765  5.14935661764706 9.34053308823529  5.39292279411765 9.58409926470588  C 5.63648897058823 9.82766544117647  6.02711397058823 9.83455882352941  6.28216911764706 9.60248161764706  L 7.60799632352941 8.27665441176471  L 7.60799632352941 12.3552389705882  Z " fill-rule="nonzero" fill="#000000" stroke="none" transform="matrix(1 0 0 1 64 19 )" />
  </g>
</svg>