<?xml version="1.0" encoding="utf-8"?>
<svg version="1.1" xmlns:xlink="http://www.w3.org/1999/xlink" width="18px" height="20px" xmlns="http://www.w3.org/2000/svg">
  <g transform="matrix(1 0 0 1 -62 -19 )">
    <path d="M 6.328444140625 3.99866733104925  C 5.48077589936647 3.99911171512983  4.72496215234793 3.46496772957416  4.44240615234375 2.66577830654566  L 1.9032525390625 2.66577830654566  C 1.82091563458632 2.67041125211724  1.73988225544543 2.68841867165354  2 2.7190938722133  L 2 18.61379542936  C 1.74026406340596 18.6421920604499  1.82128559666601 18.6579462467048  1.9032525390625 18.660446541995  L 16.0851918945312 18.660446541995  C 16.1671588435123 18.6579462488041  16.2481803835347 18.6421920625168  16 18.61379542936  L 16 2.7190938722133  C 16.2485621915231 2.68841866958843  16.1675288056188 2.67041125001509  16.0851918945312 2.66577830654566  L 13.552702734375 2.66577830654566  C 13.2693360860534 3.46728031867142  12.5101128799345 4.00194454081531  11.6600002929687 3.99866733104925  L 6.328444140625 3.99866733104925  Z M 11.6600002929688 0  C 12.5076685342273 -0.000444107010849353  13.2634822812458 0.53369987854482  13.54603828125 1.33288930157332  L 16.0851918945312 1.33288930157332  C 16.9015818499826 1.28345695389278  17.6044814528564 1.90296167664402  17.6580009570313 2.7190938722133  L 17.6580009570313 18.61379542936  C 17.6009978815702 19.427267554633  16.8991530298969 20.0428687438075  16.0851918945312 20  L 1.9032525390625 20  C 1.08929140369688 20.0428687438075  0.387446552023579 19.427267554633  0.3304434765625 18.61379542936  L 0.3304434765625 2.7190938722133  C 0.38396298073739 1.90296167664402  1.08686258361119 1.28345695389278  1.9032525390625 1.33288930157332  L 4.44240615234375 1.33288930157332  C 4.72496215234793 0.533699878544821  5.48077589936647 -0.000444107010848977  6.328444140625 0  L 11.6600002929688 0  Z M 11.6600002929688 1.33288930157332  L 6.328444140625 1.33288930157332  C 5.9603770001943 1.33288930157332  5.66199962890625 1.63126666872781  5.66199962890625 1.99933380405949  C 5.66199962890625 2.36740093939117  5.9603770001943 2.66577830654566  6.328444140625 2.66577830654566  L 11.6600002929688 2.66577830654566  C 12.0280674333994 2.66577830654566  12.3264448046875 2.36740093939117  12.3264448046875 1.99933380405949  C 12.3264448046875 1.63126666872781  12.0280674333994 1.33288930157332  11.6600002929688 1.33288930157332  Z M 12.9928893359375 14.6617794880155  C 13.3609564763682 14.6617794880155  13.6593338476562 14.96015685517  13.6593338476562 15.3282239905016  C 13.6593338476562 15.6962911258333  13.3609564763682 15.9946684929878  12.9928893359375 15.9946684929878  L 4.9955551171875 15.9946684929878  C 4.6274879767568 15.9946684929878  4.32911060546875 15.6962911258333  4.32911060546875 15.3282239905016  C 4.32911060546875 14.96015685517  4.6274879767568 14.6617794880155  4.9955551171875 14.6617794880155  L 12.9928893359375 14.6617794880155  Z M 8.52104662109375 13.1356215599393  L 8.52104662109375 13.1089637673399  L 5.69532185546875 10.2832390603923  C 5.59190787394473 10.1624817224777  5.53507088677299 10.0087325797591  5.53507088677299 9.8497458320769  C 5.53507088677299 9.48167869674522  5.83344825806105 9.18330132959073  6.20151539849174 9.18330132959073  C 6.36050214837644 9.18330132959073  6.514251293225 9.24013831597508  6.6350086328125 9.34355229606646  L 8.3277776953125 11.0429857881484  L 8.3277776953125 5.85138306710143  C 8.3277776953125 5.48331592637634  8.62615507097277 5.18493855484963  8.99422221679687 5.18493855484963  C 9.36228936262098 5.18493855484963  9.66066673828125 5.48331592637634  9.66066673828125 5.85138306710143  L 9.66066673828125 11.0696435807478  L 11.3601002539062 9.37021006913465  C 11.4808575934938 9.26679608904328  11.6346067383423 9.20995910265894  11.793593488227 9.20995910265894  C 12.1616606286577 9.20995910265894  12.4600379999458 9.50833646981342  12.4600379999458 9.8764036051451  C 12.4600379999458 10.0353903528273  12.403201012774 10.1891394955459  12.29978703125 10.3098968334605  L 9.474062265625 13.1356215599393  C 9.34867707605048 13.2638539620532  9.17690046414639 13.3361384108476  8.99755444335938 13.3361384108476  C 8.81820842257236 13.3361384108476  8.64643181066827 13.2638539620532  8.52104662109375 13.1356215599393  Z " fill-rule="nonzero" fill="#ffffff" stroke="none" transform="matrix(1 0 0 1 62 19 )" />
  </g>
</svg>