<?xml version="1.0" encoding="utf-8"?>
<svg version="1.1" xmlns:xlink="http://www.w3.org/1999/xlink" width="18px" height="18px" xmlns="http://www.w3.org/2000/svg">
  <g transform="matrix(1 0 0 1 -62 -20 )">
    <path d="M 5.872 15.4164  C 5.1723 15.4164  4.6048 15.9868  4.6048 16.6899  C 4.6048 17.3929  5.1723 17.9634  5.872 17.9634  C 6.5717 17.9634  7.1388 17.3929  7.1388 16.6899  C 7.1388 15.9868  6.5717 15.4164  5.872 15.4164  Z M 14.7406 15.4164  C 14.0402 15.4164  13.473 15.9868  13.473 16.6899  C 13.473 17.3929  14.0402 17.9634  14.7406 17.9634  C 15.4396 17.9634  16.0074 17.3929  16.0074 16.6899  C 16.0074 15.9868  15.4396 15.4164  14.7406 15.4164  Z M 15.9967 14.7803  L 5.7083 14.7803  C 4.795 14.7803  3.9929 14.0551  3.8807 13.1278  L 2.807 5.5263  L 2.1957 1.9732  C 2.1575 1.6639  1.8763 1.4101  1.6014 1.4101  L 0.7942 1.4101  C 0.4447 1.4101  0.1611 1.1252  0.1611 0.774  C 0.1611 0.4225  0.4446 0.1365  0.7942 0.1365  L 1.6017 0.1365  C 2.5254 0.1365  3.337 0.8627  3.4488 1.789  L 4.0594 5.3277  L 5.1374 12.9623  C 5.1729 13.2575  5.4391 13.5073  5.7079 13.5073  L 15.9967 13.5073  C 16.3476 13.5073  16.6309 13.7912  16.6309 14.144  C 16.6309 14.4964  16.3476 14.7803  15.9967 14.7803  Z M 6.5 12.2332  C 6.1712 12.2332  5.8927 11.9787  5.8686 11.6426  C 5.8425 11.2931  6.1053 10.9878  6.4531 10.9623  L 15.0472 10.3262  C 15.3625 10.3229  15.6284 10.0744  15.6632 9.7912  L 16.6609 4.0536  C 16.6864 3.8397  16.6274 3.605  16.5003 3.4604  C 16.4186 3.367  16.3161 3.3201  16.1963 3.3201  L 5.2285 3.3201  C 4.879 3.3201  4.5954 3.0348  4.5954 2.6836  C 4.5954 2.3321  4.879 2.0468  5.2285 2  L 16.1963 2  C 16.6797 2.0468  17.1243 2.2487  17.4484 2.6159  C 17.818 3.0358  17.9881 3.6266  17.9131 4.2403  L 16.9154 9.9779  C 16.8076 10.8712  16.006 11.5963  15.0927 11.5963  L 6.5465 12.2311  C 6.5312 12.2332  6.5145 12.2332  6.5 12.2332  Z " fill-rule="nonzero" fill="#ffffff" stroke="none" transform="matrix(1 0 0 1 62 20 )" />
  </g>
</svg>