<?xml version="1.0" encoding="utf-8"?>
<svg version="1.1" xmlns:xlink="http://www.w3.org/1999/xlink" width="20px" height="19px" xmlns="http://www.w3.org/2000/svg">
  <g transform="matrix(1 0 0 1 -61 -19 )">
    <path d="M 4.43146164046924 12.2934730467844  L 4.98539435248296 12.9265390086707  C 5.22279408355358 13.3222052209394  5.7767267955673 13.4804717206844  6.17239300783605 13.2430719710669  C 6.56805922010479 13.0056722399963  6.72632571984977 12.5308727778551  6.48892598877916 12.1352065655863  L 5.14366083368108 9.99860898595076  C 4.74799462141235 9.44467627393703  3.87752892845552 9.44467627393703  3.56099596605925 10.0777422358233  L 0.316532980943109 16.0127355125887  C -0.474799462141235 17.3580006491399  0.3956662308156 18.703265804238  2.05746432976306 18.7032657856911  L 7.43852491306163 18.7032657856911  C 7.91332437520286 18.7032657856911  8.3089905874716 18.3075995734224  8.3089905874716 17.9119333611536  C 8.3089905874716 17.4371338990124  7.91332437520286 17.1206009180693  7.43852491306163 17.1206009180693  L 2.05746432976306 17.1206009180693  C 1.74093134881996 17.1206009180693  1.74093134881996 17.1206009180693  1.89919784856494 16.8832011869987  L 4.43146164046924 12.2934730467844  Z M 12.5821857467427 17.0414676681968  L 12.9778519590115 16.2501352436593  C 13.2152516900821 15.8544690313906  13.0569852088839 15.3796695692493  12.6613189966152 15.1422698196318  C 12.2656527843465 14.9048700885612  11.7117200723327 15.0631365697594  11.4743203412621 15.458802800575  L 10.287321685909 17.4371338990124  C 9.97078870496591 17.9910666110261  10.3664549357815 18.703265804238  11.0786541104465 18.7032657856911  L 17.0136473872119 18.7032657856911  C 18.6754455047063 18.7032657856911  19.5459111791162 17.3580006491399  18.7545787545788 16.0127355125887  L 15.9057819817314 10.9482079102332  C 15.6683822506607 10.5525416979645  15.114449538647 10.3942751982195  14.7187833263783 10.6316749292901  C 14.243983864237 10.8690746603607  14.0857173830389 11.343874122502  14.3231171141095 11.7395403533176  L 17.1719138869569 16.8040679371262  C 17.3301803681551 17.0414676681968  17.3301803681551 17.0414676681968  17.0136473872119 17.0414676681968  L 12.5821857467427 17.0414676681968  Z M 11.9491198034033 6.516746269764  L 10.8412543793759 6.67501275096212  C 10.3664549172347 6.67501275096212  9.97078870496593 7.07067896323086  9.97078870496593 7.5454784253721  C 9.97078870496593 8.02027788751333  10.3664549172347 8.33681086845644  10.8412543793759 8.33681086845644  L 13.3735181898271 8.33681086845644  C 14.0065841331664 8.33681086845644  14.4813835953076 7.70374492511708  14.1648506143645 7.14981221310335  L 11.0786541104465 1.45221866740854  C 10.2873216673622 0.0278202809848374  8.70465679974035 0.106953530857329  7.91332437520286 1.53135191728103  L 4.82712787128483 7.07067896323086  C 4.58972814021422 7.38721194417397  4.74799462141235 7.94114463764084  5.22279408355358 8.09941113738582  C 5.69759354569482 8.33681086845644  6.17239300783605 8.17854438725831  6.40979273890666 7.70374492511708  C 6.40979273890666 7.70374492511708  9.33772276162657 2.40181759169101  9.41685599295219 2.24355111049288  C 9.49598924282469 2.08528462929476  9.57512247415032 2.24355111049288  9.57512249269718 2.24355111049288  L 11.9491198034033 6.516746269764  Z " fill-rule="nonzero" fill="#ffffff" stroke="none" transform="matrix(1 0 0 1 61 19 )" />
  </g>
</svg>