<?xml version="1.0" encoding="utf-8"?>
<svg version="1.1" xmlns:xlink="http://www.w3.org/1999/xlink" width="18px" height="18px" xmlns="http://www.w3.org/2000/svg">
  <g transform="matrix(1 0 0 1 -62 -20 )">
    <path d="M 8.289 17.2687  C 8.298 17.0452  8.1282 16.8571  7.91 16.8485  L 2.2318 16.8485  C 1.8499 16.8485  1.54 16.5318  1.5395 16.1414  L 1.5395 1.6734  C 1.5405 1.2829  1.8499 0.9672  2.2318 1  L 15.1065 1  C 15.4875 0.9672  15.7973 1.2838  15.7973 1.6734  L 15.7973 7.8083  C 15.7973 8.0319  15.9739 8.2132  16.1926 8.2132  C 16.4113 8.2132  16.5879 8.031  16.5879 7.8083  L 16.5879 1.6734  C 16.586 0.8367  15.924 0.1593  15.1065 0.1584  L 2.2318 0.1584  C 1.4138 0.1593  0.7513 0.8367  1 1.6734  L 1 16.1414  C 0.751400000000001 16.977  1.4139 17.6545  2.2313 17.6563  L 7.91 17.6563  C 8.1158 17.6477  8.2808 17.4789  8.289 17.2687  Z M 12.9563 3.8524  C 12.9649 3.6289  12.7951 3.4408  12.5773 3.4321  L 4.4396 3.4321  C 4.2338 3.4408  4.0688 3.6096  4.0606 3.8208  C 4.052 4.0434  4.2218 4.2314  4.4396 4.24  L 12.5774 4.24  C 12.7827 4.2314  12.9477 4.0625  12.9563 3.8524  Z M 12.5774 7.0178  C 12.7826 7.0101  12.9477 6.8412  12.9563 6.6301  C 12.965 6.4075  12.7952 6.2195  12.5774 6.2099  L 4.4396 6.2099  C 4.2338 6.2185  4.0688 6.3873  4.0606 6.5975  C 4.052 6.821  4.2218 7.0091  4.4396 7.0178  L 12.5774 7.0178  Z M 7.3261 9.2667  L 4.4405 9.2667  C 4.2222 9.2667  4.0452 9.4471  4.0452 9.6707  C 4.0452 9.8942  4.2217 10.0746  4.4405 10.0746  L 7.3261 10.0746  C 7.5439 10.0746  7.7209 9.8942  7.7209 9.6717  C 7.7209 9.4481  7.5439 9.2667  7.3261 9.2667  Z M 17.4497 16.4884  C 17.4501215673999 16.1735297549408  17.3423372357115 15.8680760904246  17.1444 15.6232  C 17.1294731420858 15.5940994723298  17.1104457057812 15.5672926771114  17.0879 15.5436  L 14.859 13.3291  C 14.9710938282798 12.985536490985  15.0280662646361 12.6263873824143  15.0278 12.265  C 15.0278 10.4103  13.5579 8.9068  11.7455 8.9068  C 11.2705 8.9068  10.8004 9.0133  10.3685 9.2176  C 10.3140394200463 9.23379410461389  10.2645677935033 9.26351836423363  10.2247 9.304  C 10.0885 9.4412  10.0885 9.6657  10.2227 9.8038  L 11.6859 11.3294  L 10.8195 12.2159  L 9.3573 10.6923  C 9.29295307897086 10.6257114002329  9.20432378335688 10.5881079884148  9.11172482080934 10.5881079884148  C 9.02004610559086 10.5881079884148  8.93221751404939 10.624969902083  8.868 10.6904  C 8.8603 10.699  8.8545 10.7086  8.8469 10.7173  L 8.846 10.7153  C 8.845 10.7182  8.844 10.7201  8.8431 10.723  C 8.80895694359704 10.7647928712887  8.78526885402438 10.8141230607171  8.774 10.8669  C 8.5831 11.2919  8.4631 11.7688  8.4631 12.2648  C 8.4631 14.1194  9.933 15.6229  11.7455 15.6229  C 12.1744 15.6239  12.5984 15.5375  12.9947 15.3706  L 15.1736 17.4421  C 15.1966 17.4661  15.2236 17.4834  15.2504 17.4987  C 15.4846 17.7117  15.7916 17.8413  16.1274 17.8413  C 16.8586 17.8413  17.4497 17.2358  17.4497 16.4884  Z M 14.3082 12.2447  C 14.3082 13.6918  13.1607 14.8662  11.7455 14.8662  C 10.3303 14.8662  9.1836 13.6918  9.1836 12.2449  C 9.1836 12.0233  9.2115 11.8084  9.2613 11.602  L 10.5394 12.9338  C 10.5509 12.9491  10.5624 12.9645  10.5767 12.9779  C 10.6373751570814 13.0360372434653  10.7173207589147 13.0698165738927  10.8013 13.0728  C 10.8079 13.0728  10.8148 13.0738  10.8214 13.0738  C 10.8272 13.0738  10.8319 13.0728  10.8367 13.0728  C 10.9219276741085 13.0678694912085  11.0024436505989 13.0320727634709  11.0632 12.9721  C 11.0728 12.9624  11.0795 12.9509  11.0872 12.9413  L 12.3882 11.6096  C 12.3987 11.6019  12.4083 11.5943  12.418 11.5847  C 12.5537630652471 11.4460185051608  12.5546049679272 11.224509478962  12.4199 11.0848  L 11.0998 9.7079  C 11.3104939112718 9.65203215170887  11.527525029602 9.62363021660138  11.7455 9.6234  C 13.1607 9.6234  14.3082 10.7968  14.3082 12.2447  Z M 16.7722 16.4896  C 16.7722 16.8552  16.4834 17.1508  16.1264 17.1508  C 15.9590234527731 17.1505723665662  15.7985790280184 17.0839273275457  15.6803 16.9655  L 15.6573 16.9368  L 15.6286 16.908  C 15.6251048420641 16.9047512793268  15.6218621349168 16.9012411324147  15.6189 16.8975  L 14.8436 16.1212  L 13.628 15.0159  C 14.0000004875677 14.7484641163859  14.3131602587624 14.407531453843  14.5481 14.0142  L 15.761 15.1732  L 16.5102 15.959  C 16.5247 15.9695  16.5381 15.9811  16.5506 15.9936  L 16.5956 16.0406  C 16.5990101547414 16.0429356778066  16.602251513002 16.0455087147763  16.6053 16.0483  C 16.7130240798754 16.1700424476647  16.7724007832712 16.3270402859424  16.7722 16.4896  Z " fill-rule="nonzero" fill="#ffffff" stroke="none" transform="matrix(1 0 0 1 62 20 )" />
  </g>
</svg>