<?xml version="1.0" encoding="utf-8"?>
<svg version="1.1" xmlns:xlink="http://www.w3.org/1999/xlink" width="17px" height="20px" xmlns="http://www.w3.org/2000/svg">
  <g transform="matrix(1 0 0 1 -61 -19 )">
    <path d="M 9.21668143061113 18.6273886621094  C 9.20408180146816 18.6273886621094  9.19148667702412 18.627865053822  9.178923046875 18.6288168164063  L 3.44346396484375 18.6288168164063  C 2.44871784642161 18.6272441007399  1.64270864441486 17.8212349074676  1.64113591796875 16.8264887890625  L 1.64113591796875 2.7991782421875  C 1.64271164758196 1.80489559126181  2.44918006531905 0.999705264062957  3.44346396484375 1  L 14.1803119140625 1  C 15.1745958135872 0.999705264062958  15.9810642313243 1.80489559126182  15.9826399609375 2.7991782421875  L 15.9826399609375 8.3689716796875  C 15.9826945227272 8.64499442228006  16.2064704649054 8.86872613473635  16.4824932128906 8.86872613473635  C 16.7585159608758 8.86872613473635  16.9822919030541 8.64499442228006  16.9823464648438 8.3689716796875  L 16.9823464648437 2.7991782421875  C 16.9791990792153 1.2534254831197  15.7260670791886 0.00157088764885063  14.1803119140625 0  L 3.44346396484375 0  C 1.89882413971033 0.0031427200750886  0.647428442731339 1.25453841705408  0.64428572265625 2.7991782421875  L 0.64428572265625 16.8264887890625  C 0.647428442731339 18.3711286141959  1.89882413971034 19.6225243111749  3.44346396484375 19.62566703125  L 9.178923046875 19.62566703125  C 9.19148667702412 19.6266187938342  9.20408180146816 19.6270951855469  9.21668143061113 19.6270951855469  C 9.49274276421158 19.6270951855469  9.71653469232988 19.4033032574286  9.71653469232988 19.1272419238281  C 9.71653469232988 18.8511805902277  9.49274276421158 18.6273886621094  9.21668143061113 18.6273886621094  Z " fill-rule="nonzero" fill="#000000" stroke="none" transform="matrix(1 0 0 1 61 19 )" />
  </g>
</svg>