<?xml version="1.0" encoding="utf-8"?>
<svg version="1.1" xmlns:xlink="http://www.w3.org/1999/xlink" width="14px" height="14px" xmlns="http://www.w3.org/2000/svg">
  <g transform="matrix(1 0 0 1 -64 -23 )">
    <path d="M 11.0974791015625 1.42697822265625  C 11.0974791015625 1.1509168890558  10.8736871734442 0.9271249609375  10.5976258398438 0.9271249609375  L 0.7348069921875 0.9271249609375  C 0.458745658587054 0.9271249609375  0.23495373046875 1.1509168890558  0.23495373046875 1.42697822265625  C 0.23495373046875 1.7030395562567  0.458745658587054 1.926831484375  0.7348069921875 1.926831484375  L 10.59476953125 1.926831484375  C 10.5957216244213 1.92683692500444  10.5966737311943 1.92683964533582  10.5976258399104 1.92683964533582  C 10.8736871735108 1.92683964533582  11.0974791016291 1.70304771721751  11.0974791016291 1.42698638361706  Z M 4.313756328125 8.87621990234375  L 0.7348069921875 8.87621990234375  C 0.458745658587054 8.87621990234375  0.23495373046875 9.10001183046206  0.23495373046875 9.3760731640625  C 0.23495373046875 9.65213449766295  0.458745658587054 9.87592642578125  0.7348069921875 9.87592642578125  L 4.313756328125 9.87592642578125  C 4.58981766172545 9.87592642578125  4.81360958984375 9.65213449766295  4.81360958984375 9.3760731640625  C 4.81360958984375 9.10001183046206  4.58981766172545 8.87621990234375  4.313756328125 8.87621990234375  Z M 4.81351078317385 5.54005645507813  C 4.81351078317385 5.26403370709292  4.58977907071756 5.0402577649147  4.313756328125 5.040203203125  L 0.7348069921875 5.040203203125  C 0.458784249594941 5.0402577649147  0.23505253713865 5.26403370709292  0.23505253713865 5.54005645507813  C 0.23505253713865 5.81607920306334  0.458784249594942 6.03985514524155  0.7348069921875 6.03990970703125  L 4.313756328125 6.03990970703125  C 4.58977907071756 6.03985514524155  4.81351078317385 5.81607920306334  4.81351078317385 5.54005645507813  Z M 13.4196545117188 12.1209816210937  L 13.4282234375 12.129550546875  C 13.4197343880969 12.0941328989508  13.4019918723186 12.0616049511105  13.3768099609375 12.0352925  L 11.8543997460937 10.5185949023438  C 11.9161880881847 10.3573084432795  11.9546594393669 10.1880344875555  11.9686519140625 10.0158853320312  C 11.9700679810753 10.0035485167531  11.9700679810753 9.99109019418441  11.9686519140625 9.97875337890625  L 11.9686519140625 9.89877685546875  C 11.9686519150956 8.95222135486094  11.2013653106503 8.18493475041564  10.2548693174394 8.18493475041564  C 10.2501087472947 8.18493475041564  10.2453481978129 8.18495458638679  10.2405877929687 8.1849942578125  C 10.0019195939575 8.1848750785092  9.7657385155735 8.23347200758879  9.54650583984375 8.32780947265625  C 9.50978877149242 8.33323818237185  9.47576470428563 8.35025022281803  9.44939150390625 8.37636666015625  L 9.3865528125 8.40778599609375  L 9.4094032421875 8.42778013671875  C 9.37356763729882 8.49723251775366  9.38749614181448 8.58196427141514  9.44367888671874 8.6362903515625  L 10.2634382421875 9.42463033203125  L 9.79500431640625 9.895920546875  L 8.9781012890625 9.081873828125  C 8.92100121508974 9.02340276052733  8.8313039808373 9.01160049201303  8.7610221484375 9.05331078125  L 8.74102802734375 9.033316640625  L 8.7067523828125 9.099011640625  C 8.68984287970869 9.11868189775398  8.67806722836434 9.14223319373256  8.67247671875 9.16756294921875  C 8.57108786894295 9.39171399888743  8.51864546525442 9.6349028610961  8.51864546525442 9.88091788489092  C 8.51864546525442 10.8368788413779  9.29360493845495 11.6118383145784  10.2495658949419 11.6118383145784  C 10.4602806067271 11.6118383145784  10.6692245181326 11.5733637078507  10.8661184570313 11.4983072851562  L 12.2571386523437 12.8864711914062  C 12.294636990822 12.9325386780969  12.3367485621693 12.9746502428997  12.3828160546875 13.0121485742187  C 12.4030053453459 13.0317336423182  12.4274418693152 13.04639556071  12.4542236523437 13.0549931445312  C 12.558817736421 13.1170096642347  12.6782393480866 13.1495791953025  12.799836484375 13.1492511914062  C 13.1867931031383 13.1476942556958  13.499660222293 12.8335657704751  13.499660222293 12.4466060195274  C 13.499660222293 12.3331985733958  13.4722101030651 12.2214761913765  13.4196545117188 12.1209816210937  Z " fill-rule="nonzero" fill="#000000" stroke="none" transform="matrix(1 0 0 1 64 23 )" />
  </g>
</svg>