<?xml version="1.0" encoding="utf-8"?>
<svg version="1.1" xmlns:xlink="http://www.w3.org/1999/xlink" width="12px" height="11px" xmlns="http://www.w3.org/2000/svg">
  <g transform="matrix(1 0 0 1 -69 -28 )">
    <path d="M 2.847004765625 2.4909123046875  C 3.68509158599755 1.6496479582615  4.82430918880034 1.177715761645  6.0117899609375 1.1798686328125  C 8.48260576174953 1.18144590912532  10.4847616466288 3.1848803033172  10.4847616466288 5.65569660756626  C 10.4847616466288 8.12762864455316  8.48086479689691 10.131525494285  6.00893275991 10.131525494285  C 3.53811645566094 10.131525494285  1.53468206146907 8.12936960940579  1.53310478515625 5.65855380859375  C 1.52935057801622 4.46935569153988  2.00263853063623 3.32832016044634  2.847004765625 2.4909123046875  Z M 6.0117899609375 0.320121015625  L 6.0117899609375 0.322977324218751  C 3.06345570551294 0.322977324218696  0.673357932097446 2.7130750976342  0.673357932097446 5.66141011718745  C 0.673357932097446 8.6097451367407  3.06345570551294 10.9998429101562  6.0117907250662 10.9998429101562  C 8.96012574461945 10.9998429101562  11.3502235180349 8.6097451367407  11.3502235180349 5.66141011718745  C 11.3502235180349 5.66045801427083  11.3502232633254 5.65950591137409  11.3502227539063 5.65855380859375  C 11.3502227539063 2.7102187890405  8.96012498049075 0.320121015625  6.0117899609375 0.320121015625  Z " fill-rule="nonzero" fill="#000000" stroke="none" transform="matrix(1 0 0 1 69 28 )" />
  </g>
</svg>